G75*
%MOIN*%
%OFA0B0*%
%FSLAX25Y25*%
%IPPOS*%
%LPD*%
%AMOC8*
5,1,8,0,0,1.08239X$1,22.5*
%
%ADD10C,0.00000*%
%ADD11OC8,0.05200*%
%ADD12C,0.05200*%
%ADD13C,0.05200*%
%ADD14C,0.05937*%
%ADD15C,0.01600*%
%ADD16C,0.01200*%
%ADD17C,0.05315*%
D10*
X0001800Y0001800D02*
X0001800Y0191761D01*
X0190501Y0191761D01*
X0190501Y0001800D01*
X0001800Y0001800D01*
X0016288Y0021800D02*
X0016290Y0021948D01*
X0016296Y0022096D01*
X0016306Y0022244D01*
X0016320Y0022391D01*
X0016338Y0022538D01*
X0016359Y0022684D01*
X0016385Y0022830D01*
X0016415Y0022975D01*
X0016448Y0023119D01*
X0016486Y0023262D01*
X0016527Y0023404D01*
X0016572Y0023545D01*
X0016620Y0023685D01*
X0016673Y0023824D01*
X0016729Y0023961D01*
X0016789Y0024096D01*
X0016852Y0024230D01*
X0016919Y0024362D01*
X0016990Y0024492D01*
X0017064Y0024620D01*
X0017141Y0024746D01*
X0017222Y0024870D01*
X0017306Y0024992D01*
X0017393Y0025111D01*
X0017484Y0025228D01*
X0017578Y0025343D01*
X0017674Y0025455D01*
X0017774Y0025565D01*
X0017876Y0025671D01*
X0017982Y0025775D01*
X0018090Y0025876D01*
X0018201Y0025974D01*
X0018314Y0026070D01*
X0018430Y0026162D01*
X0018548Y0026251D01*
X0018669Y0026336D01*
X0018792Y0026419D01*
X0018917Y0026498D01*
X0019044Y0026574D01*
X0019173Y0026646D01*
X0019304Y0026715D01*
X0019437Y0026780D01*
X0019572Y0026841D01*
X0019708Y0026899D01*
X0019845Y0026954D01*
X0019984Y0027004D01*
X0020125Y0027051D01*
X0020266Y0027094D01*
X0020409Y0027134D01*
X0020553Y0027169D01*
X0020697Y0027201D01*
X0020843Y0027228D01*
X0020989Y0027252D01*
X0021136Y0027272D01*
X0021283Y0027288D01*
X0021430Y0027300D01*
X0021578Y0027308D01*
X0021726Y0027312D01*
X0021874Y0027312D01*
X0022022Y0027308D01*
X0022170Y0027300D01*
X0022317Y0027288D01*
X0022464Y0027272D01*
X0022611Y0027252D01*
X0022757Y0027228D01*
X0022903Y0027201D01*
X0023047Y0027169D01*
X0023191Y0027134D01*
X0023334Y0027094D01*
X0023475Y0027051D01*
X0023616Y0027004D01*
X0023755Y0026954D01*
X0023892Y0026899D01*
X0024028Y0026841D01*
X0024163Y0026780D01*
X0024296Y0026715D01*
X0024427Y0026646D01*
X0024556Y0026574D01*
X0024683Y0026498D01*
X0024808Y0026419D01*
X0024931Y0026336D01*
X0025052Y0026251D01*
X0025170Y0026162D01*
X0025286Y0026070D01*
X0025399Y0025974D01*
X0025510Y0025876D01*
X0025618Y0025775D01*
X0025724Y0025671D01*
X0025826Y0025565D01*
X0025926Y0025455D01*
X0026022Y0025343D01*
X0026116Y0025228D01*
X0026207Y0025111D01*
X0026294Y0024992D01*
X0026378Y0024870D01*
X0026459Y0024746D01*
X0026536Y0024620D01*
X0026610Y0024492D01*
X0026681Y0024362D01*
X0026748Y0024230D01*
X0026811Y0024096D01*
X0026871Y0023961D01*
X0026927Y0023824D01*
X0026980Y0023685D01*
X0027028Y0023545D01*
X0027073Y0023404D01*
X0027114Y0023262D01*
X0027152Y0023119D01*
X0027185Y0022975D01*
X0027215Y0022830D01*
X0027241Y0022684D01*
X0027262Y0022538D01*
X0027280Y0022391D01*
X0027294Y0022244D01*
X0027304Y0022096D01*
X0027310Y0021948D01*
X0027312Y0021800D01*
X0027310Y0021652D01*
X0027304Y0021504D01*
X0027294Y0021356D01*
X0027280Y0021209D01*
X0027262Y0021062D01*
X0027241Y0020916D01*
X0027215Y0020770D01*
X0027185Y0020625D01*
X0027152Y0020481D01*
X0027114Y0020338D01*
X0027073Y0020196D01*
X0027028Y0020055D01*
X0026980Y0019915D01*
X0026927Y0019776D01*
X0026871Y0019639D01*
X0026811Y0019504D01*
X0026748Y0019370D01*
X0026681Y0019238D01*
X0026610Y0019108D01*
X0026536Y0018980D01*
X0026459Y0018854D01*
X0026378Y0018730D01*
X0026294Y0018608D01*
X0026207Y0018489D01*
X0026116Y0018372D01*
X0026022Y0018257D01*
X0025926Y0018145D01*
X0025826Y0018035D01*
X0025724Y0017929D01*
X0025618Y0017825D01*
X0025510Y0017724D01*
X0025399Y0017626D01*
X0025286Y0017530D01*
X0025170Y0017438D01*
X0025052Y0017349D01*
X0024931Y0017264D01*
X0024808Y0017181D01*
X0024683Y0017102D01*
X0024556Y0017026D01*
X0024427Y0016954D01*
X0024296Y0016885D01*
X0024163Y0016820D01*
X0024028Y0016759D01*
X0023892Y0016701D01*
X0023755Y0016646D01*
X0023616Y0016596D01*
X0023475Y0016549D01*
X0023334Y0016506D01*
X0023191Y0016466D01*
X0023047Y0016431D01*
X0022903Y0016399D01*
X0022757Y0016372D01*
X0022611Y0016348D01*
X0022464Y0016328D01*
X0022317Y0016312D01*
X0022170Y0016300D01*
X0022022Y0016292D01*
X0021874Y0016288D01*
X0021726Y0016288D01*
X0021578Y0016292D01*
X0021430Y0016300D01*
X0021283Y0016312D01*
X0021136Y0016328D01*
X0020989Y0016348D01*
X0020843Y0016372D01*
X0020697Y0016399D01*
X0020553Y0016431D01*
X0020409Y0016466D01*
X0020266Y0016506D01*
X0020125Y0016549D01*
X0019984Y0016596D01*
X0019845Y0016646D01*
X0019708Y0016701D01*
X0019572Y0016759D01*
X0019437Y0016820D01*
X0019304Y0016885D01*
X0019173Y0016954D01*
X0019044Y0017026D01*
X0018917Y0017102D01*
X0018792Y0017181D01*
X0018669Y0017264D01*
X0018548Y0017349D01*
X0018430Y0017438D01*
X0018314Y0017530D01*
X0018201Y0017626D01*
X0018090Y0017724D01*
X0017982Y0017825D01*
X0017876Y0017929D01*
X0017774Y0018035D01*
X0017674Y0018145D01*
X0017578Y0018257D01*
X0017484Y0018372D01*
X0017393Y0018489D01*
X0017306Y0018608D01*
X0017222Y0018730D01*
X0017141Y0018854D01*
X0017064Y0018980D01*
X0016990Y0019108D01*
X0016919Y0019238D01*
X0016852Y0019370D01*
X0016789Y0019504D01*
X0016729Y0019639D01*
X0016673Y0019776D01*
X0016620Y0019915D01*
X0016572Y0020055D01*
X0016527Y0020196D01*
X0016486Y0020338D01*
X0016448Y0020481D01*
X0016415Y0020625D01*
X0016385Y0020770D01*
X0016359Y0020916D01*
X0016338Y0021062D01*
X0016320Y0021209D01*
X0016306Y0021356D01*
X0016296Y0021504D01*
X0016290Y0021652D01*
X0016288Y0021800D01*
X0016288Y0171800D02*
X0016290Y0171948D01*
X0016296Y0172096D01*
X0016306Y0172244D01*
X0016320Y0172391D01*
X0016338Y0172538D01*
X0016359Y0172684D01*
X0016385Y0172830D01*
X0016415Y0172975D01*
X0016448Y0173119D01*
X0016486Y0173262D01*
X0016527Y0173404D01*
X0016572Y0173545D01*
X0016620Y0173685D01*
X0016673Y0173824D01*
X0016729Y0173961D01*
X0016789Y0174096D01*
X0016852Y0174230D01*
X0016919Y0174362D01*
X0016990Y0174492D01*
X0017064Y0174620D01*
X0017141Y0174746D01*
X0017222Y0174870D01*
X0017306Y0174992D01*
X0017393Y0175111D01*
X0017484Y0175228D01*
X0017578Y0175343D01*
X0017674Y0175455D01*
X0017774Y0175565D01*
X0017876Y0175671D01*
X0017982Y0175775D01*
X0018090Y0175876D01*
X0018201Y0175974D01*
X0018314Y0176070D01*
X0018430Y0176162D01*
X0018548Y0176251D01*
X0018669Y0176336D01*
X0018792Y0176419D01*
X0018917Y0176498D01*
X0019044Y0176574D01*
X0019173Y0176646D01*
X0019304Y0176715D01*
X0019437Y0176780D01*
X0019572Y0176841D01*
X0019708Y0176899D01*
X0019845Y0176954D01*
X0019984Y0177004D01*
X0020125Y0177051D01*
X0020266Y0177094D01*
X0020409Y0177134D01*
X0020553Y0177169D01*
X0020697Y0177201D01*
X0020843Y0177228D01*
X0020989Y0177252D01*
X0021136Y0177272D01*
X0021283Y0177288D01*
X0021430Y0177300D01*
X0021578Y0177308D01*
X0021726Y0177312D01*
X0021874Y0177312D01*
X0022022Y0177308D01*
X0022170Y0177300D01*
X0022317Y0177288D01*
X0022464Y0177272D01*
X0022611Y0177252D01*
X0022757Y0177228D01*
X0022903Y0177201D01*
X0023047Y0177169D01*
X0023191Y0177134D01*
X0023334Y0177094D01*
X0023475Y0177051D01*
X0023616Y0177004D01*
X0023755Y0176954D01*
X0023892Y0176899D01*
X0024028Y0176841D01*
X0024163Y0176780D01*
X0024296Y0176715D01*
X0024427Y0176646D01*
X0024556Y0176574D01*
X0024683Y0176498D01*
X0024808Y0176419D01*
X0024931Y0176336D01*
X0025052Y0176251D01*
X0025170Y0176162D01*
X0025286Y0176070D01*
X0025399Y0175974D01*
X0025510Y0175876D01*
X0025618Y0175775D01*
X0025724Y0175671D01*
X0025826Y0175565D01*
X0025926Y0175455D01*
X0026022Y0175343D01*
X0026116Y0175228D01*
X0026207Y0175111D01*
X0026294Y0174992D01*
X0026378Y0174870D01*
X0026459Y0174746D01*
X0026536Y0174620D01*
X0026610Y0174492D01*
X0026681Y0174362D01*
X0026748Y0174230D01*
X0026811Y0174096D01*
X0026871Y0173961D01*
X0026927Y0173824D01*
X0026980Y0173685D01*
X0027028Y0173545D01*
X0027073Y0173404D01*
X0027114Y0173262D01*
X0027152Y0173119D01*
X0027185Y0172975D01*
X0027215Y0172830D01*
X0027241Y0172684D01*
X0027262Y0172538D01*
X0027280Y0172391D01*
X0027294Y0172244D01*
X0027304Y0172096D01*
X0027310Y0171948D01*
X0027312Y0171800D01*
X0027310Y0171652D01*
X0027304Y0171504D01*
X0027294Y0171356D01*
X0027280Y0171209D01*
X0027262Y0171062D01*
X0027241Y0170916D01*
X0027215Y0170770D01*
X0027185Y0170625D01*
X0027152Y0170481D01*
X0027114Y0170338D01*
X0027073Y0170196D01*
X0027028Y0170055D01*
X0026980Y0169915D01*
X0026927Y0169776D01*
X0026871Y0169639D01*
X0026811Y0169504D01*
X0026748Y0169370D01*
X0026681Y0169238D01*
X0026610Y0169108D01*
X0026536Y0168980D01*
X0026459Y0168854D01*
X0026378Y0168730D01*
X0026294Y0168608D01*
X0026207Y0168489D01*
X0026116Y0168372D01*
X0026022Y0168257D01*
X0025926Y0168145D01*
X0025826Y0168035D01*
X0025724Y0167929D01*
X0025618Y0167825D01*
X0025510Y0167724D01*
X0025399Y0167626D01*
X0025286Y0167530D01*
X0025170Y0167438D01*
X0025052Y0167349D01*
X0024931Y0167264D01*
X0024808Y0167181D01*
X0024683Y0167102D01*
X0024556Y0167026D01*
X0024427Y0166954D01*
X0024296Y0166885D01*
X0024163Y0166820D01*
X0024028Y0166759D01*
X0023892Y0166701D01*
X0023755Y0166646D01*
X0023616Y0166596D01*
X0023475Y0166549D01*
X0023334Y0166506D01*
X0023191Y0166466D01*
X0023047Y0166431D01*
X0022903Y0166399D01*
X0022757Y0166372D01*
X0022611Y0166348D01*
X0022464Y0166328D01*
X0022317Y0166312D01*
X0022170Y0166300D01*
X0022022Y0166292D01*
X0021874Y0166288D01*
X0021726Y0166288D01*
X0021578Y0166292D01*
X0021430Y0166300D01*
X0021283Y0166312D01*
X0021136Y0166328D01*
X0020989Y0166348D01*
X0020843Y0166372D01*
X0020697Y0166399D01*
X0020553Y0166431D01*
X0020409Y0166466D01*
X0020266Y0166506D01*
X0020125Y0166549D01*
X0019984Y0166596D01*
X0019845Y0166646D01*
X0019708Y0166701D01*
X0019572Y0166759D01*
X0019437Y0166820D01*
X0019304Y0166885D01*
X0019173Y0166954D01*
X0019044Y0167026D01*
X0018917Y0167102D01*
X0018792Y0167181D01*
X0018669Y0167264D01*
X0018548Y0167349D01*
X0018430Y0167438D01*
X0018314Y0167530D01*
X0018201Y0167626D01*
X0018090Y0167724D01*
X0017982Y0167825D01*
X0017876Y0167929D01*
X0017774Y0168035D01*
X0017674Y0168145D01*
X0017578Y0168257D01*
X0017484Y0168372D01*
X0017393Y0168489D01*
X0017306Y0168608D01*
X0017222Y0168730D01*
X0017141Y0168854D01*
X0017064Y0168980D01*
X0016990Y0169108D01*
X0016919Y0169238D01*
X0016852Y0169370D01*
X0016789Y0169504D01*
X0016729Y0169639D01*
X0016673Y0169776D01*
X0016620Y0169915D01*
X0016572Y0170055D01*
X0016527Y0170196D01*
X0016486Y0170338D01*
X0016448Y0170481D01*
X0016415Y0170625D01*
X0016385Y0170770D01*
X0016359Y0170916D01*
X0016338Y0171062D01*
X0016320Y0171209D01*
X0016306Y0171356D01*
X0016296Y0171504D01*
X0016290Y0171652D01*
X0016288Y0171800D01*
X0166288Y0171800D02*
X0166290Y0171948D01*
X0166296Y0172096D01*
X0166306Y0172244D01*
X0166320Y0172391D01*
X0166338Y0172538D01*
X0166359Y0172684D01*
X0166385Y0172830D01*
X0166415Y0172975D01*
X0166448Y0173119D01*
X0166486Y0173262D01*
X0166527Y0173404D01*
X0166572Y0173545D01*
X0166620Y0173685D01*
X0166673Y0173824D01*
X0166729Y0173961D01*
X0166789Y0174096D01*
X0166852Y0174230D01*
X0166919Y0174362D01*
X0166990Y0174492D01*
X0167064Y0174620D01*
X0167141Y0174746D01*
X0167222Y0174870D01*
X0167306Y0174992D01*
X0167393Y0175111D01*
X0167484Y0175228D01*
X0167578Y0175343D01*
X0167674Y0175455D01*
X0167774Y0175565D01*
X0167876Y0175671D01*
X0167982Y0175775D01*
X0168090Y0175876D01*
X0168201Y0175974D01*
X0168314Y0176070D01*
X0168430Y0176162D01*
X0168548Y0176251D01*
X0168669Y0176336D01*
X0168792Y0176419D01*
X0168917Y0176498D01*
X0169044Y0176574D01*
X0169173Y0176646D01*
X0169304Y0176715D01*
X0169437Y0176780D01*
X0169572Y0176841D01*
X0169708Y0176899D01*
X0169845Y0176954D01*
X0169984Y0177004D01*
X0170125Y0177051D01*
X0170266Y0177094D01*
X0170409Y0177134D01*
X0170553Y0177169D01*
X0170697Y0177201D01*
X0170843Y0177228D01*
X0170989Y0177252D01*
X0171136Y0177272D01*
X0171283Y0177288D01*
X0171430Y0177300D01*
X0171578Y0177308D01*
X0171726Y0177312D01*
X0171874Y0177312D01*
X0172022Y0177308D01*
X0172170Y0177300D01*
X0172317Y0177288D01*
X0172464Y0177272D01*
X0172611Y0177252D01*
X0172757Y0177228D01*
X0172903Y0177201D01*
X0173047Y0177169D01*
X0173191Y0177134D01*
X0173334Y0177094D01*
X0173475Y0177051D01*
X0173616Y0177004D01*
X0173755Y0176954D01*
X0173892Y0176899D01*
X0174028Y0176841D01*
X0174163Y0176780D01*
X0174296Y0176715D01*
X0174427Y0176646D01*
X0174556Y0176574D01*
X0174683Y0176498D01*
X0174808Y0176419D01*
X0174931Y0176336D01*
X0175052Y0176251D01*
X0175170Y0176162D01*
X0175286Y0176070D01*
X0175399Y0175974D01*
X0175510Y0175876D01*
X0175618Y0175775D01*
X0175724Y0175671D01*
X0175826Y0175565D01*
X0175926Y0175455D01*
X0176022Y0175343D01*
X0176116Y0175228D01*
X0176207Y0175111D01*
X0176294Y0174992D01*
X0176378Y0174870D01*
X0176459Y0174746D01*
X0176536Y0174620D01*
X0176610Y0174492D01*
X0176681Y0174362D01*
X0176748Y0174230D01*
X0176811Y0174096D01*
X0176871Y0173961D01*
X0176927Y0173824D01*
X0176980Y0173685D01*
X0177028Y0173545D01*
X0177073Y0173404D01*
X0177114Y0173262D01*
X0177152Y0173119D01*
X0177185Y0172975D01*
X0177215Y0172830D01*
X0177241Y0172684D01*
X0177262Y0172538D01*
X0177280Y0172391D01*
X0177294Y0172244D01*
X0177304Y0172096D01*
X0177310Y0171948D01*
X0177312Y0171800D01*
X0177310Y0171652D01*
X0177304Y0171504D01*
X0177294Y0171356D01*
X0177280Y0171209D01*
X0177262Y0171062D01*
X0177241Y0170916D01*
X0177215Y0170770D01*
X0177185Y0170625D01*
X0177152Y0170481D01*
X0177114Y0170338D01*
X0177073Y0170196D01*
X0177028Y0170055D01*
X0176980Y0169915D01*
X0176927Y0169776D01*
X0176871Y0169639D01*
X0176811Y0169504D01*
X0176748Y0169370D01*
X0176681Y0169238D01*
X0176610Y0169108D01*
X0176536Y0168980D01*
X0176459Y0168854D01*
X0176378Y0168730D01*
X0176294Y0168608D01*
X0176207Y0168489D01*
X0176116Y0168372D01*
X0176022Y0168257D01*
X0175926Y0168145D01*
X0175826Y0168035D01*
X0175724Y0167929D01*
X0175618Y0167825D01*
X0175510Y0167724D01*
X0175399Y0167626D01*
X0175286Y0167530D01*
X0175170Y0167438D01*
X0175052Y0167349D01*
X0174931Y0167264D01*
X0174808Y0167181D01*
X0174683Y0167102D01*
X0174556Y0167026D01*
X0174427Y0166954D01*
X0174296Y0166885D01*
X0174163Y0166820D01*
X0174028Y0166759D01*
X0173892Y0166701D01*
X0173755Y0166646D01*
X0173616Y0166596D01*
X0173475Y0166549D01*
X0173334Y0166506D01*
X0173191Y0166466D01*
X0173047Y0166431D01*
X0172903Y0166399D01*
X0172757Y0166372D01*
X0172611Y0166348D01*
X0172464Y0166328D01*
X0172317Y0166312D01*
X0172170Y0166300D01*
X0172022Y0166292D01*
X0171874Y0166288D01*
X0171726Y0166288D01*
X0171578Y0166292D01*
X0171430Y0166300D01*
X0171283Y0166312D01*
X0171136Y0166328D01*
X0170989Y0166348D01*
X0170843Y0166372D01*
X0170697Y0166399D01*
X0170553Y0166431D01*
X0170409Y0166466D01*
X0170266Y0166506D01*
X0170125Y0166549D01*
X0169984Y0166596D01*
X0169845Y0166646D01*
X0169708Y0166701D01*
X0169572Y0166759D01*
X0169437Y0166820D01*
X0169304Y0166885D01*
X0169173Y0166954D01*
X0169044Y0167026D01*
X0168917Y0167102D01*
X0168792Y0167181D01*
X0168669Y0167264D01*
X0168548Y0167349D01*
X0168430Y0167438D01*
X0168314Y0167530D01*
X0168201Y0167626D01*
X0168090Y0167724D01*
X0167982Y0167825D01*
X0167876Y0167929D01*
X0167774Y0168035D01*
X0167674Y0168145D01*
X0167578Y0168257D01*
X0167484Y0168372D01*
X0167393Y0168489D01*
X0167306Y0168608D01*
X0167222Y0168730D01*
X0167141Y0168854D01*
X0167064Y0168980D01*
X0166990Y0169108D01*
X0166919Y0169238D01*
X0166852Y0169370D01*
X0166789Y0169504D01*
X0166729Y0169639D01*
X0166673Y0169776D01*
X0166620Y0169915D01*
X0166572Y0170055D01*
X0166527Y0170196D01*
X0166486Y0170338D01*
X0166448Y0170481D01*
X0166415Y0170625D01*
X0166385Y0170770D01*
X0166359Y0170916D01*
X0166338Y0171062D01*
X0166320Y0171209D01*
X0166306Y0171356D01*
X0166296Y0171504D01*
X0166290Y0171652D01*
X0166288Y0171800D01*
X0166288Y0021800D02*
X0166290Y0021948D01*
X0166296Y0022096D01*
X0166306Y0022244D01*
X0166320Y0022391D01*
X0166338Y0022538D01*
X0166359Y0022684D01*
X0166385Y0022830D01*
X0166415Y0022975D01*
X0166448Y0023119D01*
X0166486Y0023262D01*
X0166527Y0023404D01*
X0166572Y0023545D01*
X0166620Y0023685D01*
X0166673Y0023824D01*
X0166729Y0023961D01*
X0166789Y0024096D01*
X0166852Y0024230D01*
X0166919Y0024362D01*
X0166990Y0024492D01*
X0167064Y0024620D01*
X0167141Y0024746D01*
X0167222Y0024870D01*
X0167306Y0024992D01*
X0167393Y0025111D01*
X0167484Y0025228D01*
X0167578Y0025343D01*
X0167674Y0025455D01*
X0167774Y0025565D01*
X0167876Y0025671D01*
X0167982Y0025775D01*
X0168090Y0025876D01*
X0168201Y0025974D01*
X0168314Y0026070D01*
X0168430Y0026162D01*
X0168548Y0026251D01*
X0168669Y0026336D01*
X0168792Y0026419D01*
X0168917Y0026498D01*
X0169044Y0026574D01*
X0169173Y0026646D01*
X0169304Y0026715D01*
X0169437Y0026780D01*
X0169572Y0026841D01*
X0169708Y0026899D01*
X0169845Y0026954D01*
X0169984Y0027004D01*
X0170125Y0027051D01*
X0170266Y0027094D01*
X0170409Y0027134D01*
X0170553Y0027169D01*
X0170697Y0027201D01*
X0170843Y0027228D01*
X0170989Y0027252D01*
X0171136Y0027272D01*
X0171283Y0027288D01*
X0171430Y0027300D01*
X0171578Y0027308D01*
X0171726Y0027312D01*
X0171874Y0027312D01*
X0172022Y0027308D01*
X0172170Y0027300D01*
X0172317Y0027288D01*
X0172464Y0027272D01*
X0172611Y0027252D01*
X0172757Y0027228D01*
X0172903Y0027201D01*
X0173047Y0027169D01*
X0173191Y0027134D01*
X0173334Y0027094D01*
X0173475Y0027051D01*
X0173616Y0027004D01*
X0173755Y0026954D01*
X0173892Y0026899D01*
X0174028Y0026841D01*
X0174163Y0026780D01*
X0174296Y0026715D01*
X0174427Y0026646D01*
X0174556Y0026574D01*
X0174683Y0026498D01*
X0174808Y0026419D01*
X0174931Y0026336D01*
X0175052Y0026251D01*
X0175170Y0026162D01*
X0175286Y0026070D01*
X0175399Y0025974D01*
X0175510Y0025876D01*
X0175618Y0025775D01*
X0175724Y0025671D01*
X0175826Y0025565D01*
X0175926Y0025455D01*
X0176022Y0025343D01*
X0176116Y0025228D01*
X0176207Y0025111D01*
X0176294Y0024992D01*
X0176378Y0024870D01*
X0176459Y0024746D01*
X0176536Y0024620D01*
X0176610Y0024492D01*
X0176681Y0024362D01*
X0176748Y0024230D01*
X0176811Y0024096D01*
X0176871Y0023961D01*
X0176927Y0023824D01*
X0176980Y0023685D01*
X0177028Y0023545D01*
X0177073Y0023404D01*
X0177114Y0023262D01*
X0177152Y0023119D01*
X0177185Y0022975D01*
X0177215Y0022830D01*
X0177241Y0022684D01*
X0177262Y0022538D01*
X0177280Y0022391D01*
X0177294Y0022244D01*
X0177304Y0022096D01*
X0177310Y0021948D01*
X0177312Y0021800D01*
X0177310Y0021652D01*
X0177304Y0021504D01*
X0177294Y0021356D01*
X0177280Y0021209D01*
X0177262Y0021062D01*
X0177241Y0020916D01*
X0177215Y0020770D01*
X0177185Y0020625D01*
X0177152Y0020481D01*
X0177114Y0020338D01*
X0177073Y0020196D01*
X0177028Y0020055D01*
X0176980Y0019915D01*
X0176927Y0019776D01*
X0176871Y0019639D01*
X0176811Y0019504D01*
X0176748Y0019370D01*
X0176681Y0019238D01*
X0176610Y0019108D01*
X0176536Y0018980D01*
X0176459Y0018854D01*
X0176378Y0018730D01*
X0176294Y0018608D01*
X0176207Y0018489D01*
X0176116Y0018372D01*
X0176022Y0018257D01*
X0175926Y0018145D01*
X0175826Y0018035D01*
X0175724Y0017929D01*
X0175618Y0017825D01*
X0175510Y0017724D01*
X0175399Y0017626D01*
X0175286Y0017530D01*
X0175170Y0017438D01*
X0175052Y0017349D01*
X0174931Y0017264D01*
X0174808Y0017181D01*
X0174683Y0017102D01*
X0174556Y0017026D01*
X0174427Y0016954D01*
X0174296Y0016885D01*
X0174163Y0016820D01*
X0174028Y0016759D01*
X0173892Y0016701D01*
X0173755Y0016646D01*
X0173616Y0016596D01*
X0173475Y0016549D01*
X0173334Y0016506D01*
X0173191Y0016466D01*
X0173047Y0016431D01*
X0172903Y0016399D01*
X0172757Y0016372D01*
X0172611Y0016348D01*
X0172464Y0016328D01*
X0172317Y0016312D01*
X0172170Y0016300D01*
X0172022Y0016292D01*
X0171874Y0016288D01*
X0171726Y0016288D01*
X0171578Y0016292D01*
X0171430Y0016300D01*
X0171283Y0016312D01*
X0171136Y0016328D01*
X0170989Y0016348D01*
X0170843Y0016372D01*
X0170697Y0016399D01*
X0170553Y0016431D01*
X0170409Y0016466D01*
X0170266Y0016506D01*
X0170125Y0016549D01*
X0169984Y0016596D01*
X0169845Y0016646D01*
X0169708Y0016701D01*
X0169572Y0016759D01*
X0169437Y0016820D01*
X0169304Y0016885D01*
X0169173Y0016954D01*
X0169044Y0017026D01*
X0168917Y0017102D01*
X0168792Y0017181D01*
X0168669Y0017264D01*
X0168548Y0017349D01*
X0168430Y0017438D01*
X0168314Y0017530D01*
X0168201Y0017626D01*
X0168090Y0017724D01*
X0167982Y0017825D01*
X0167876Y0017929D01*
X0167774Y0018035D01*
X0167674Y0018145D01*
X0167578Y0018257D01*
X0167484Y0018372D01*
X0167393Y0018489D01*
X0167306Y0018608D01*
X0167222Y0018730D01*
X0167141Y0018854D01*
X0167064Y0018980D01*
X0166990Y0019108D01*
X0166919Y0019238D01*
X0166852Y0019370D01*
X0166789Y0019504D01*
X0166729Y0019639D01*
X0166673Y0019776D01*
X0166620Y0019915D01*
X0166572Y0020055D01*
X0166527Y0020196D01*
X0166486Y0020338D01*
X0166448Y0020481D01*
X0166415Y0020625D01*
X0166385Y0020770D01*
X0166359Y0020916D01*
X0166338Y0021062D01*
X0166320Y0021209D01*
X0166306Y0021356D01*
X0166296Y0021504D01*
X0166290Y0021652D01*
X0166288Y0021800D01*
D11*
X0019300Y0054300D03*
X0019300Y0074300D03*
X0019300Y0100300D03*
X0019300Y0129300D03*
X0019300Y0149300D03*
D12*
X0044300Y0144400D02*
X0044300Y0139200D01*
X0054300Y0139200D02*
X0054300Y0144400D01*
X0064300Y0144400D02*
X0064300Y0139200D01*
X0074300Y0139200D02*
X0074300Y0144400D01*
X0084300Y0144400D02*
X0084300Y0139200D01*
X0094300Y0139200D02*
X0094300Y0144400D01*
X0104300Y0144400D02*
X0104300Y0139200D01*
X0104300Y0114400D02*
X0104300Y0109200D01*
X0094300Y0109200D02*
X0094300Y0114400D01*
X0084300Y0114400D02*
X0084300Y0109200D01*
X0074300Y0109200D02*
X0074300Y0114400D01*
X0064300Y0114400D02*
X0064300Y0109200D01*
X0054300Y0109200D02*
X0054300Y0114400D01*
X0044300Y0114400D02*
X0044300Y0109200D01*
X0044300Y0089400D02*
X0044300Y0084200D01*
X0054300Y0084200D02*
X0054300Y0089400D01*
X0064300Y0089400D02*
X0064300Y0084200D01*
X0074300Y0084200D02*
X0074300Y0089400D01*
X0084300Y0089400D02*
X0084300Y0084200D01*
X0094300Y0084200D02*
X0094300Y0089400D01*
X0104300Y0089400D02*
X0104300Y0084200D01*
X0104300Y0059400D02*
X0104300Y0054200D01*
X0094300Y0054200D02*
X0094300Y0059400D01*
X0084300Y0059400D02*
X0084300Y0054200D01*
X0074300Y0054200D02*
X0074300Y0059400D01*
X0064300Y0059400D02*
X0064300Y0054200D01*
X0054300Y0054200D02*
X0054300Y0059400D01*
X0044300Y0059400D02*
X0044300Y0054200D01*
X0134200Y0074300D02*
X0139400Y0074300D01*
X0139400Y0084300D02*
X0134200Y0084300D01*
X0134200Y0094300D02*
X0139400Y0094300D01*
X0139400Y0104300D02*
X0134200Y0104300D01*
X0134200Y0114300D02*
X0139400Y0114300D01*
X0139400Y0124300D02*
X0134200Y0124300D01*
X0134200Y0134300D02*
X0139400Y0134300D01*
X0164200Y0134300D02*
X0169400Y0134300D01*
X0169400Y0124300D02*
X0164200Y0124300D01*
X0164200Y0114300D02*
X0169400Y0114300D01*
X0169400Y0104300D02*
X0164200Y0104300D01*
X0164200Y0094300D02*
X0169400Y0094300D01*
X0169400Y0084300D02*
X0164200Y0084300D01*
X0164200Y0074300D02*
X0169400Y0074300D01*
D13*
X0019300Y0108300D03*
D14*
X0071800Y0168831D02*
X0071800Y0174769D01*
X0081800Y0174769D02*
X0081800Y0168831D01*
X0091800Y0168831D02*
X0091800Y0174769D01*
X0101800Y0174769D02*
X0101800Y0168831D01*
X0111800Y0168831D02*
X0111800Y0174769D01*
X0121800Y0174769D02*
X0121800Y0168831D01*
X0121800Y0024769D02*
X0121800Y0018831D01*
X0111800Y0018831D02*
X0111800Y0024769D01*
X0101800Y0024769D02*
X0101800Y0018831D01*
X0091800Y0018831D02*
X0091800Y0024769D01*
X0081800Y0024769D02*
X0081800Y0018831D01*
X0071800Y0018831D02*
X0071800Y0024769D01*
D15*
X0070017Y0028975D02*
X0034550Y0028975D01*
X0033773Y0030499D02*
X0033773Y0030499D01*
X0030499Y0033773D01*
X0026373Y0035876D01*
X0021800Y0036600D01*
X0017227Y0035876D01*
X0017227Y0035876D01*
X0013101Y0033773D01*
X0009827Y0030499D01*
X0007724Y0026373D01*
X0007000Y0021800D01*
X0007724Y0017227D01*
X0009827Y0013101D01*
X0009827Y0013101D01*
X0013101Y0009827D01*
X0017227Y0007724D01*
X0021800Y0007000D01*
X0026373Y0007724D01*
X0026373Y0007724D01*
X0030499Y0009827D01*
X0033773Y0013101D01*
X0035876Y0017227D01*
X0036600Y0021800D01*
X0035876Y0026373D01*
X0035876Y0026373D01*
X0033773Y0030499D01*
X0033699Y0030573D02*
X0092462Y0030573D01*
X0091226Y0029337D02*
X0090891Y0029337D01*
X0089212Y0028641D01*
X0087927Y0027356D01*
X0087231Y0025677D01*
X0087231Y0017923D01*
X0087927Y0016244D01*
X0089212Y0014959D01*
X0090891Y0014263D01*
X0092709Y0014263D01*
X0094388Y0014959D01*
X0095673Y0016244D01*
X0096368Y0017923D01*
X0096368Y0025677D01*
X0095673Y0027356D01*
X0095570Y0027459D01*
X0112711Y0044600D01*
X0142711Y0044600D01*
X0147711Y0049600D01*
X0149000Y0050889D01*
X0149000Y0093389D01*
X0160000Y0104389D01*
X0160000Y0103465D01*
X0160639Y0101921D01*
X0160975Y0101586D01*
X0149600Y0090211D01*
X0149600Y0045211D01*
X0143389Y0039000D01*
X0110889Y0039000D01*
X0109600Y0037711D01*
X0101226Y0029337D01*
X0100891Y0029337D01*
X0099212Y0028641D01*
X0097927Y0027356D01*
X0097231Y0025677D01*
X0097231Y0017923D01*
X0097927Y0016244D01*
X0099212Y0014959D01*
X0100891Y0014263D01*
X0102709Y0014263D01*
X0104388Y0014959D01*
X0105673Y0016244D01*
X0106368Y0017923D01*
X0106368Y0025677D01*
X0105673Y0027356D01*
X0105570Y0027459D01*
X0112711Y0034600D01*
X0145211Y0034600D01*
X0152711Y0042100D01*
X0154000Y0043389D01*
X0154000Y0088389D01*
X0160000Y0094389D01*
X0160000Y0093465D01*
X0160639Y0091921D01*
X0160975Y0091586D01*
X0154600Y0085211D01*
X0154600Y0040211D01*
X0148389Y0034000D01*
X0118389Y0034000D01*
X0117100Y0032711D01*
X0113428Y0029039D01*
X0112709Y0029337D01*
X0110891Y0029337D01*
X0109212Y0028641D01*
X0107927Y0027356D01*
X0107231Y0025677D01*
X0107231Y0017923D01*
X0107927Y0016244D01*
X0109212Y0014959D01*
X0110891Y0014263D01*
X0112709Y0014263D01*
X0114388Y0014959D01*
X0115673Y0016244D01*
X0116368Y0017923D01*
X0116368Y0025677D01*
X0116345Y0025734D01*
X0117898Y0027287D01*
X0117231Y0025677D01*
X0117231Y0017923D01*
X0117927Y0016244D01*
X0119212Y0014959D01*
X0120891Y0014263D01*
X0122709Y0014263D01*
X0124388Y0014959D01*
X0125673Y0016244D01*
X0126368Y0017923D01*
X0126368Y0023257D01*
X0127711Y0024600D01*
X0153444Y0024600D01*
X0153485Y0024562D01*
X0154348Y0024600D01*
X0155211Y0024600D01*
X0155251Y0024639D01*
X0155306Y0024642D01*
X0155889Y0025278D01*
X0156500Y0025889D01*
X0156500Y0025944D01*
X0158764Y0028414D01*
X0157724Y0026373D01*
X0157000Y0021800D01*
X0157000Y0021800D01*
X0157724Y0017227D01*
X0159827Y0013101D01*
X0159827Y0013101D01*
X0163101Y0009827D01*
X0167227Y0007724D01*
X0171800Y0007000D01*
X0176373Y0007724D01*
X0176373Y0007724D01*
X0180499Y0009827D01*
X0183773Y0013101D01*
X0185701Y0016883D01*
X0185701Y0006600D01*
X0006600Y0006600D01*
X0006600Y0186961D01*
X0185701Y0186961D01*
X0185701Y0176717D01*
X0183773Y0180499D01*
X0180499Y0183773D01*
X0176373Y0185876D01*
X0171800Y0186600D01*
X0167227Y0185876D01*
X0167227Y0185876D01*
X0163101Y0183773D01*
X0163101Y0183773D01*
X0159827Y0180499D01*
X0157724Y0176373D01*
X0157000Y0171800D01*
X0157000Y0171800D01*
X0157724Y0167227D01*
X0159827Y0163101D01*
X0159827Y0163101D01*
X0163101Y0159827D01*
X0167227Y0157724D01*
X0171800Y0157000D01*
X0176373Y0157724D01*
X0176373Y0157724D01*
X0180499Y0159827D01*
X0183773Y0163101D01*
X0185701Y0166883D01*
X0185701Y0026717D01*
X0183773Y0030499D01*
X0180499Y0033773D01*
X0176373Y0035876D01*
X0171800Y0036600D01*
X0167227Y0035876D01*
X0167227Y0035876D01*
X0164182Y0034324D01*
X0183389Y0055278D01*
X0184000Y0055889D01*
X0184000Y0055944D01*
X0184037Y0055985D01*
X0184000Y0056848D01*
X0184000Y0080211D01*
X0179000Y0085211D01*
X0177711Y0086500D01*
X0173035Y0086500D01*
X0172961Y0086679D01*
X0171779Y0087861D01*
X0170235Y0088500D01*
X0164111Y0088500D01*
X0165711Y0090100D01*
X0170235Y0090100D01*
X0171779Y0090739D01*
X0172961Y0091921D01*
X0173600Y0093465D01*
X0173600Y0095135D01*
X0172961Y0096679D01*
X0171779Y0097861D01*
X0170235Y0098500D01*
X0164111Y0098500D01*
X0165711Y0100100D01*
X0170235Y0100100D01*
X0171779Y0100739D01*
X0172961Y0101921D01*
X0173600Y0103465D01*
X0173600Y0105135D01*
X0172961Y0106679D01*
X0171779Y0107861D01*
X0170235Y0108500D01*
X0164111Y0108500D01*
X0165711Y0110100D01*
X0170235Y0110100D01*
X0171779Y0110739D01*
X0172961Y0111921D01*
X0173600Y0113465D01*
X0173600Y0115135D01*
X0172961Y0116679D01*
X0171779Y0117861D01*
X0170235Y0118500D01*
X0163365Y0118500D01*
X0161821Y0117861D01*
X0160639Y0116679D01*
X0160000Y0115135D01*
X0160000Y0113465D01*
X0160639Y0111921D01*
X0160975Y0111586D01*
X0144600Y0095211D01*
X0144600Y0052711D01*
X0140889Y0049000D01*
X0110889Y0049000D01*
X0109600Y0047711D01*
X0091226Y0029337D01*
X0090017Y0028975D02*
X0083583Y0028975D01*
X0084388Y0028641D02*
X0082709Y0029337D01*
X0080891Y0029337D01*
X0079212Y0028641D01*
X0077927Y0027356D01*
X0077231Y0025677D01*
X0077231Y0017923D01*
X0077927Y0016244D01*
X0079212Y0014959D01*
X0080891Y0014263D01*
X0082709Y0014263D01*
X0084388Y0014959D01*
X0085673Y0016244D01*
X0086368Y0017923D01*
X0086368Y0025677D01*
X0085673Y0027356D01*
X0084388Y0028641D01*
X0085653Y0027376D02*
X0087947Y0027376D01*
X0087273Y0025778D02*
X0086327Y0025778D01*
X0086368Y0024179D02*
X0087231Y0024179D01*
X0087231Y0022581D02*
X0086368Y0022581D01*
X0086368Y0020982D02*
X0087231Y0020982D01*
X0087231Y0019384D02*
X0086368Y0019384D01*
X0086311Y0017785D02*
X0087288Y0017785D01*
X0087984Y0016187D02*
X0085616Y0016187D01*
X0083494Y0014588D02*
X0090106Y0014588D01*
X0093494Y0014588D02*
X0100106Y0014588D01*
X0097984Y0016187D02*
X0095616Y0016187D01*
X0096311Y0017785D02*
X0097288Y0017785D01*
X0097231Y0019384D02*
X0096368Y0019384D01*
X0096368Y0020982D02*
X0097231Y0020982D01*
X0097231Y0022581D02*
X0096368Y0022581D01*
X0096368Y0024179D02*
X0097231Y0024179D01*
X0097273Y0025778D02*
X0096327Y0025778D01*
X0095653Y0027376D02*
X0097947Y0027376D01*
X0097086Y0028975D02*
X0100017Y0028975D01*
X0098684Y0030573D02*
X0102462Y0030573D01*
X0104060Y0032172D02*
X0100283Y0032172D01*
X0101881Y0033770D02*
X0105659Y0033770D01*
X0107257Y0035369D02*
X0103480Y0035369D01*
X0105079Y0036967D02*
X0108856Y0036967D01*
X0110454Y0038566D02*
X0106677Y0038566D01*
X0108276Y0040164D02*
X0144553Y0040164D01*
X0146152Y0041763D02*
X0109874Y0041763D01*
X0111473Y0043361D02*
X0147750Y0043361D01*
X0149349Y0044960D02*
X0143071Y0044960D01*
X0144670Y0046558D02*
X0149600Y0046558D01*
X0149600Y0048157D02*
X0146268Y0048157D01*
X0147867Y0049755D02*
X0149600Y0049755D01*
X0149600Y0051354D02*
X0149000Y0051354D01*
X0149000Y0052952D02*
X0149600Y0052952D01*
X0149600Y0054551D02*
X0149000Y0054551D01*
X0149000Y0056149D02*
X0149600Y0056149D01*
X0149600Y0057748D02*
X0149000Y0057748D01*
X0149000Y0059346D02*
X0149600Y0059346D01*
X0149600Y0060945D02*
X0149000Y0060945D01*
X0149000Y0062543D02*
X0149600Y0062543D01*
X0149600Y0064142D02*
X0149000Y0064142D01*
X0149000Y0065740D02*
X0149600Y0065740D01*
X0149600Y0067339D02*
X0149000Y0067339D01*
X0149000Y0068937D02*
X0149600Y0068937D01*
X0149600Y0070536D02*
X0149000Y0070536D01*
X0149000Y0072134D02*
X0149600Y0072134D01*
X0149600Y0073733D02*
X0149000Y0073733D01*
X0149000Y0075332D02*
X0149600Y0075332D01*
X0149600Y0076930D02*
X0149000Y0076930D01*
X0149000Y0078529D02*
X0149600Y0078529D01*
X0149600Y0080127D02*
X0149000Y0080127D01*
X0149000Y0081726D02*
X0149600Y0081726D01*
X0149600Y0083324D02*
X0149000Y0083324D01*
X0149000Y0084923D02*
X0149600Y0084923D01*
X0149600Y0086521D02*
X0149000Y0086521D01*
X0149000Y0088120D02*
X0149600Y0088120D01*
X0149600Y0089718D02*
X0149000Y0089718D01*
X0149000Y0091317D02*
X0150705Y0091317D01*
X0152304Y0092915D02*
X0149000Y0092915D01*
X0150125Y0094514D02*
X0153902Y0094514D01*
X0155501Y0096112D02*
X0151723Y0096112D01*
X0153322Y0097711D02*
X0157099Y0097711D01*
X0158698Y0099309D02*
X0154920Y0099309D01*
X0156519Y0100908D02*
X0160296Y0100908D01*
X0160397Y0102506D02*
X0158117Y0102506D01*
X0159716Y0104105D02*
X0160000Y0104105D01*
X0156690Y0107302D02*
X0142338Y0107302D01*
X0141779Y0107861D02*
X0140235Y0108500D01*
X0133365Y0108500D01*
X0131821Y0107861D01*
X0130639Y0106679D01*
X0130000Y0105135D01*
X0130000Y0103465D01*
X0130639Y0101921D01*
X0131821Y0100739D01*
X0133365Y0100100D01*
X0140235Y0100100D01*
X0141779Y0100739D01*
X0142961Y0101921D01*
X0143600Y0103465D01*
X0143600Y0105135D01*
X0142961Y0106679D01*
X0141779Y0107861D01*
X0143365Y0105703D02*
X0155092Y0105703D01*
X0153493Y0104105D02*
X0143600Y0104105D01*
X0143203Y0102506D02*
X0151895Y0102506D01*
X0150296Y0100908D02*
X0141947Y0100908D01*
X0140235Y0098500D02*
X0141779Y0097861D01*
X0142961Y0096679D01*
X0143600Y0095135D01*
X0143600Y0093465D01*
X0142961Y0091921D01*
X0141779Y0090739D01*
X0140235Y0090100D01*
X0133365Y0090100D01*
X0131821Y0090739D01*
X0130639Y0091921D01*
X0130000Y0093465D01*
X0130000Y0095135D01*
X0130639Y0096679D01*
X0131821Y0097861D01*
X0133365Y0098500D01*
X0140235Y0098500D01*
X0141929Y0097711D02*
X0147099Y0097711D01*
X0145501Y0096112D02*
X0143195Y0096112D01*
X0143600Y0094514D02*
X0144600Y0094514D01*
X0144600Y0092915D02*
X0143372Y0092915D01*
X0142356Y0091317D02*
X0144600Y0091317D01*
X0144600Y0089718D02*
X0129000Y0089718D01*
X0129000Y0088120D02*
X0132446Y0088120D01*
X0131821Y0087861D02*
X0130639Y0086679D01*
X0130000Y0085135D01*
X0130000Y0083465D01*
X0130639Y0081921D01*
X0131821Y0080739D01*
X0133365Y0080100D01*
X0140235Y0080100D01*
X0141779Y0080739D01*
X0142961Y0081921D01*
X0143600Y0083465D01*
X0143600Y0085135D01*
X0142961Y0086679D01*
X0141779Y0087861D01*
X0140235Y0088500D01*
X0133365Y0088500D01*
X0131821Y0087861D01*
X0130574Y0086521D02*
X0129000Y0086521D01*
X0129000Y0084923D02*
X0130000Y0084923D01*
X0130058Y0083324D02*
X0129000Y0083324D01*
X0129000Y0081726D02*
X0130835Y0081726D01*
X0129000Y0080127D02*
X0133299Y0080127D01*
X0133365Y0078500D02*
X0131821Y0077861D01*
X0130639Y0076679D01*
X0130000Y0075135D01*
X0130000Y0073465D01*
X0130639Y0071921D01*
X0131821Y0070739D01*
X0133365Y0070100D01*
X0140235Y0070100D01*
X0141779Y0070739D01*
X0142961Y0071921D01*
X0143600Y0073465D01*
X0143600Y0075135D01*
X0142961Y0076679D01*
X0141779Y0077861D01*
X0140235Y0078500D01*
X0133365Y0078500D01*
X0130890Y0076930D02*
X0129000Y0076930D01*
X0129000Y0075332D02*
X0130081Y0075332D01*
X0130000Y0073733D02*
X0129000Y0073733D01*
X0129000Y0072134D02*
X0130551Y0072134D01*
X0129000Y0070889D02*
X0129000Y0108389D01*
X0131586Y0110975D01*
X0131821Y0110739D01*
X0133365Y0110100D01*
X0140235Y0110100D01*
X0141779Y0110739D01*
X0142961Y0111921D01*
X0143600Y0113465D01*
X0143600Y0115135D01*
X0142961Y0116679D01*
X0141779Y0117861D01*
X0140235Y0118500D01*
X0133365Y0118500D01*
X0131821Y0117861D01*
X0130639Y0116679D01*
X0130336Y0115948D01*
X0129600Y0115211D01*
X0124600Y0110211D01*
X0124600Y0072711D01*
X0120889Y0069000D01*
X0100889Y0069000D01*
X0099600Y0067711D01*
X0095385Y0063497D01*
X0095135Y0063600D01*
X0093465Y0063600D01*
X0091921Y0062961D01*
X0090739Y0061779D01*
X0090100Y0060235D01*
X0090100Y0053365D01*
X0090739Y0051821D01*
X0091921Y0050639D01*
X0093465Y0050000D01*
X0095135Y0050000D01*
X0096679Y0050639D01*
X0097861Y0051821D01*
X0098500Y0053365D01*
X0098500Y0060235D01*
X0098455Y0060344D01*
X0102711Y0064600D01*
X0122711Y0064600D01*
X0127711Y0069600D01*
X0129000Y0070889D01*
X0128647Y0070536D02*
X0132312Y0070536D01*
X0127049Y0068937D02*
X0144600Y0068937D01*
X0144600Y0067339D02*
X0125450Y0067339D01*
X0123852Y0065740D02*
X0144600Y0065740D01*
X0144600Y0064142D02*
X0102253Y0064142D01*
X0101921Y0062961D02*
X0100739Y0061779D01*
X0100100Y0060235D01*
X0100100Y0053365D01*
X0100739Y0051821D01*
X0101921Y0050639D01*
X0103465Y0050000D01*
X0105135Y0050000D01*
X0106679Y0050639D01*
X0107861Y0051821D01*
X0108500Y0053365D01*
X0108500Y0060235D01*
X0107861Y0061779D01*
X0106679Y0062961D01*
X0105135Y0063600D01*
X0103465Y0063600D01*
X0101921Y0062961D01*
X0101504Y0062543D02*
X0100655Y0062543D01*
X0100394Y0060945D02*
X0099056Y0060945D01*
X0098500Y0059346D02*
X0100100Y0059346D01*
X0100100Y0057748D02*
X0098500Y0057748D01*
X0098500Y0056149D02*
X0100100Y0056149D01*
X0100100Y0054551D02*
X0098500Y0054551D01*
X0098329Y0052952D02*
X0100271Y0052952D01*
X0101206Y0051354D02*
X0097394Y0051354D01*
X0091206Y0051354D02*
X0087394Y0051354D01*
X0087861Y0051821D02*
X0088500Y0053365D01*
X0088500Y0060235D01*
X0087861Y0061779D01*
X0086679Y0062961D01*
X0085135Y0063600D01*
X0083465Y0063600D01*
X0081921Y0062961D01*
X0080739Y0061779D01*
X0080100Y0060235D01*
X0080100Y0053365D01*
X0080739Y0051821D01*
X0081921Y0050639D01*
X0083465Y0050000D01*
X0085135Y0050000D01*
X0086679Y0050639D01*
X0087861Y0051821D01*
X0088329Y0052952D02*
X0090271Y0052952D01*
X0090100Y0054551D02*
X0088500Y0054551D01*
X0088500Y0056149D02*
X0090100Y0056149D01*
X0090100Y0057748D02*
X0088500Y0057748D01*
X0088500Y0059346D02*
X0090100Y0059346D01*
X0090394Y0060945D02*
X0088206Y0060945D01*
X0087096Y0062543D02*
X0091504Y0062543D01*
X0096031Y0064142D02*
X0082253Y0064142D01*
X0081504Y0062543D02*
X0080655Y0062543D01*
X0080394Y0060945D02*
X0079056Y0060945D01*
X0078455Y0060344D02*
X0087711Y0069600D01*
X0120211Y0069600D01*
X0122711Y0072100D01*
X0124000Y0073389D01*
X0124000Y0118389D01*
X0127711Y0122100D01*
X0130565Y0122100D01*
X0130639Y0121921D01*
X0131821Y0120739D01*
X0133365Y0120100D01*
X0140235Y0120100D01*
X0141779Y0120739D01*
X0142961Y0121921D01*
X0143600Y0123465D01*
X0143600Y0125135D01*
X0142961Y0126679D01*
X0141779Y0127861D01*
X0140235Y0128500D01*
X0133365Y0128500D01*
X0131821Y0127861D01*
X0130639Y0126679D01*
X0130565Y0126500D01*
X0125889Y0126500D01*
X0124600Y0125211D01*
X0119600Y0120211D01*
X0119600Y0075211D01*
X0118389Y0074000D01*
X0094940Y0074000D01*
X0095540Y0074600D01*
X0115211Y0074600D01*
X0116500Y0075889D01*
X0117711Y0077100D01*
X0119000Y0078389D01*
X0119000Y0125889D01*
X0125211Y0132100D01*
X0130565Y0132100D01*
X0130639Y0131921D01*
X0131821Y0130739D01*
X0133365Y0130100D01*
X0140235Y0130100D01*
X0141779Y0130739D01*
X0142961Y0131921D01*
X0143600Y0133465D01*
X0143600Y0135135D01*
X0142961Y0136679D01*
X0141779Y0137861D01*
X0140235Y0138500D01*
X0133365Y0138500D01*
X0131821Y0137861D01*
X0130639Y0136679D01*
X0130565Y0136500D01*
X0123389Y0136500D01*
X0115889Y0129000D01*
X0114600Y0127711D01*
X0114600Y0080211D01*
X0113389Y0079000D01*
X0093717Y0079000D01*
X0092428Y0077711D01*
X0091717Y0077000D01*
X0090111Y0077000D01*
X0090211Y0077100D01*
X0091500Y0078389D01*
X0091500Y0081060D01*
X0091921Y0080639D01*
X0093465Y0080000D01*
X0095135Y0080000D01*
X0096679Y0080639D01*
X0097861Y0081821D01*
X0098500Y0083365D01*
X0098500Y0090235D01*
X0098455Y0090344D01*
X0100211Y0092100D01*
X0101500Y0093389D01*
X0101500Y0106060D01*
X0101921Y0105639D01*
X0103465Y0105000D01*
X0105135Y0105000D01*
X0106679Y0105639D01*
X0107861Y0106821D01*
X0108500Y0108365D01*
X0108500Y0115235D01*
X0107861Y0116779D01*
X0106679Y0117961D01*
X0105135Y0118600D01*
X0103465Y0118600D01*
X0101921Y0117961D01*
X0101500Y0117540D01*
X0101500Y0120603D01*
X0101712Y0120691D01*
X0102909Y0121888D01*
X0103557Y0123453D01*
X0103557Y0125147D01*
X0102909Y0126712D01*
X0101712Y0127909D01*
X0100147Y0128557D01*
X0099169Y0128557D01*
X0105211Y0134600D01*
X0105948Y0135336D01*
X0106679Y0135639D01*
X0107861Y0136821D01*
X0108500Y0138365D01*
X0108500Y0145235D01*
X0107861Y0146779D01*
X0106679Y0147961D01*
X0105135Y0148600D01*
X0103465Y0148600D01*
X0101921Y0147961D01*
X0100739Y0146779D01*
X0100100Y0145235D01*
X0100100Y0138365D01*
X0100739Y0136821D01*
X0100975Y0136586D01*
X0087100Y0122711D01*
X0087100Y0117540D01*
X0086679Y0117961D01*
X0085948Y0118264D01*
X0085211Y0119000D01*
X0080211Y0124000D01*
X0060889Y0124000D01*
X0055385Y0118497D01*
X0055135Y0118600D01*
X0053465Y0118600D01*
X0051921Y0117961D01*
X0050739Y0116779D01*
X0050100Y0115235D01*
X0050100Y0108365D01*
X0050739Y0106821D01*
X0051921Y0105639D01*
X0053465Y0105000D01*
X0054389Y0105000D01*
X0053389Y0104000D01*
X0030889Y0104000D01*
X0029600Y0102711D01*
X0027100Y0100211D01*
X0027100Y0060889D01*
X0028389Y0059600D01*
X0033389Y0054600D01*
X0040100Y0054600D01*
X0040100Y0053365D01*
X0040739Y0051821D01*
X0041921Y0050639D01*
X0043465Y0050000D01*
X0045135Y0050000D01*
X0046679Y0050639D01*
X0047861Y0051821D01*
X0048500Y0053365D01*
X0048500Y0060235D01*
X0047861Y0061779D01*
X0046679Y0062961D01*
X0045135Y0063600D01*
X0043465Y0063600D01*
X0041921Y0062961D01*
X0040739Y0061779D01*
X0040100Y0060235D01*
X0040100Y0059000D01*
X0035211Y0059000D01*
X0031500Y0062711D01*
X0031500Y0098389D01*
X0032711Y0099600D01*
X0055211Y0099600D01*
X0061586Y0105975D01*
X0061921Y0105639D01*
X0063465Y0105000D01*
X0065135Y0105000D01*
X0066679Y0105639D01*
X0067861Y0106821D01*
X0068500Y0108365D01*
X0068500Y0109600D01*
X0070100Y0109600D01*
X0070100Y0108365D01*
X0070739Y0106821D01*
X0071921Y0105639D01*
X0073465Y0105000D01*
X0075135Y0105000D01*
X0076679Y0105639D01*
X0077100Y0106060D01*
X0077100Y0102997D01*
X0076888Y0102909D01*
X0075691Y0101712D01*
X0075043Y0100147D01*
X0075043Y0098453D01*
X0075691Y0096888D01*
X0076888Y0095691D01*
X0078453Y0095043D01*
X0079431Y0095043D01*
X0077014Y0092625D01*
X0076679Y0092961D01*
X0075135Y0093600D01*
X0073465Y0093600D01*
X0071921Y0092961D01*
X0070739Y0091779D01*
X0070100Y0090235D01*
X0070100Y0083365D01*
X0070739Y0081821D01*
X0071921Y0080639D01*
X0073465Y0080000D01*
X0075135Y0080000D01*
X0076679Y0080639D01*
X0077861Y0081821D01*
X0078500Y0083365D01*
X0078500Y0087889D01*
X0080100Y0089489D01*
X0080100Y0083365D01*
X0080739Y0081821D01*
X0081921Y0080639D01*
X0083465Y0080000D01*
X0085135Y0080000D01*
X0086679Y0080639D01*
X0087100Y0081060D01*
X0087100Y0080211D01*
X0085889Y0079000D01*
X0080889Y0079000D01*
X0079600Y0077711D01*
X0065385Y0063497D01*
X0065135Y0063600D01*
X0063465Y0063600D01*
X0061921Y0062961D01*
X0060739Y0061779D01*
X0060100Y0060235D01*
X0060100Y0053365D01*
X0060739Y0051821D01*
X0061921Y0050639D01*
X0063465Y0050000D01*
X0065135Y0050000D01*
X0066679Y0050639D01*
X0066850Y0050810D01*
X0066850Y0049961D01*
X0063389Y0046500D01*
X0060211Y0046500D01*
X0056500Y0050211D01*
X0056500Y0050565D01*
X0056679Y0050639D01*
X0057861Y0051821D01*
X0058500Y0053365D01*
X0058500Y0060235D01*
X0057861Y0061779D01*
X0056679Y0062961D01*
X0055135Y0063600D01*
X0053465Y0063600D01*
X0051921Y0062961D01*
X0050739Y0061779D01*
X0050100Y0060235D01*
X0050100Y0053365D01*
X0050739Y0051821D01*
X0051921Y0050639D01*
X0052100Y0050565D01*
X0052100Y0048389D01*
X0058389Y0042100D01*
X0065211Y0042100D01*
X0066500Y0043389D01*
X0069961Y0046850D01*
X0071250Y0048139D01*
X0071250Y0051310D01*
X0071921Y0050639D01*
X0073465Y0050000D01*
X0075135Y0050000D01*
X0076679Y0050639D01*
X0077861Y0051821D01*
X0078500Y0053365D01*
X0078500Y0060235D01*
X0078455Y0060344D01*
X0078500Y0059346D02*
X0080100Y0059346D01*
X0080100Y0057748D02*
X0078500Y0057748D01*
X0078500Y0056149D02*
X0080100Y0056149D01*
X0080100Y0054551D02*
X0078500Y0054551D01*
X0078329Y0052952D02*
X0080271Y0052952D01*
X0081206Y0051354D02*
X0077394Y0051354D01*
X0071250Y0049755D02*
X0141644Y0049755D01*
X0143243Y0051354D02*
X0107394Y0051354D01*
X0108329Y0052952D02*
X0144600Y0052952D01*
X0144600Y0054551D02*
X0108500Y0054551D01*
X0108500Y0056149D02*
X0144600Y0056149D01*
X0144600Y0057748D02*
X0108500Y0057748D01*
X0108500Y0059346D02*
X0144600Y0059346D01*
X0144600Y0060945D02*
X0108206Y0060945D01*
X0107096Y0062543D02*
X0144600Y0062543D01*
X0144600Y0070536D02*
X0141288Y0070536D01*
X0143049Y0072134D02*
X0144600Y0072134D01*
X0144600Y0073733D02*
X0143600Y0073733D01*
X0143519Y0075332D02*
X0144600Y0075332D01*
X0144600Y0076930D02*
X0142710Y0076930D01*
X0144600Y0078529D02*
X0129000Y0078529D01*
X0124600Y0078529D02*
X0124000Y0078529D01*
X0124000Y0080127D02*
X0124600Y0080127D01*
X0124600Y0081726D02*
X0124000Y0081726D01*
X0124000Y0083324D02*
X0124600Y0083324D01*
X0124600Y0084923D02*
X0124000Y0084923D01*
X0124000Y0086521D02*
X0124600Y0086521D01*
X0124600Y0088120D02*
X0124000Y0088120D01*
X0124000Y0089718D02*
X0124600Y0089718D01*
X0124600Y0091317D02*
X0124000Y0091317D01*
X0124000Y0092915D02*
X0124600Y0092915D01*
X0124600Y0094514D02*
X0124000Y0094514D01*
X0124000Y0096112D02*
X0124600Y0096112D01*
X0124600Y0097711D02*
X0124000Y0097711D01*
X0124000Y0099309D02*
X0124600Y0099309D01*
X0124600Y0100908D02*
X0124000Y0100908D01*
X0124000Y0102506D02*
X0124600Y0102506D01*
X0124600Y0104105D02*
X0124000Y0104105D01*
X0124000Y0105703D02*
X0124600Y0105703D01*
X0124600Y0107302D02*
X0124000Y0107302D01*
X0124000Y0108900D02*
X0124600Y0108900D01*
X0124887Y0110499D02*
X0124000Y0110499D01*
X0124000Y0112097D02*
X0126486Y0112097D01*
X0128085Y0113696D02*
X0124000Y0113696D01*
X0124000Y0115294D02*
X0129683Y0115294D01*
X0130853Y0116893D02*
X0124000Y0116893D01*
X0124103Y0118491D02*
X0133344Y0118491D01*
X0130872Y0121688D02*
X0127300Y0121688D01*
X0125701Y0120090D02*
X0185701Y0120090D01*
X0185701Y0121688D02*
X0172728Y0121688D01*
X0172961Y0121921D02*
X0173600Y0123465D01*
X0173600Y0125135D01*
X0172961Y0126679D01*
X0171779Y0127861D01*
X0170235Y0128500D01*
X0163365Y0128500D01*
X0161821Y0127861D01*
X0160639Y0126679D01*
X0160000Y0125135D01*
X0160000Y0123465D01*
X0160639Y0121921D01*
X0161821Y0120739D01*
X0163365Y0120100D01*
X0170235Y0120100D01*
X0171779Y0120739D01*
X0172961Y0121921D01*
X0173526Y0123287D02*
X0185701Y0123287D01*
X0185701Y0124885D02*
X0173600Y0124885D01*
X0173041Y0126484D02*
X0185701Y0126484D01*
X0185701Y0128082D02*
X0171244Y0128082D01*
X0170235Y0130100D02*
X0171779Y0130739D01*
X0172961Y0131921D01*
X0173600Y0133465D01*
X0173600Y0135135D01*
X0172961Y0136679D01*
X0171779Y0137861D01*
X0170235Y0138500D01*
X0163365Y0138500D01*
X0161821Y0137861D01*
X0160639Y0136679D01*
X0160000Y0135135D01*
X0160000Y0133465D01*
X0160639Y0131921D01*
X0161821Y0130739D01*
X0163365Y0130100D01*
X0170235Y0130100D01*
X0172319Y0131279D02*
X0185701Y0131279D01*
X0185701Y0129681D02*
X0122792Y0129681D01*
X0121194Y0128082D02*
X0132356Y0128082D01*
X0131281Y0131279D02*
X0124391Y0131279D01*
X0121365Y0134476D02*
X0105088Y0134476D01*
X0103489Y0132878D02*
X0119767Y0132878D01*
X0118168Y0131279D02*
X0101891Y0131279D01*
X0100292Y0129681D02*
X0116570Y0129681D01*
X0114971Y0128082D02*
X0101294Y0128082D01*
X0103004Y0126484D02*
X0114600Y0126484D01*
X0114600Y0124885D02*
X0103557Y0124885D01*
X0103489Y0123287D02*
X0114600Y0123287D01*
X0114600Y0121688D02*
X0102709Y0121688D01*
X0101500Y0120090D02*
X0114600Y0120090D01*
X0114600Y0118491D02*
X0105398Y0118491D01*
X0103202Y0118491D02*
X0101500Y0118491D01*
X0107747Y0116893D02*
X0114600Y0116893D01*
X0114600Y0115294D02*
X0108476Y0115294D01*
X0108500Y0113696D02*
X0114600Y0113696D01*
X0114600Y0112097D02*
X0108500Y0112097D01*
X0108500Y0110499D02*
X0114600Y0110499D01*
X0114600Y0108900D02*
X0108500Y0108900D01*
X0108060Y0107302D02*
X0114600Y0107302D01*
X0114600Y0105703D02*
X0106743Y0105703D01*
X0101857Y0105703D02*
X0101500Y0105703D01*
X0101500Y0104105D02*
X0114600Y0104105D01*
X0114600Y0102506D02*
X0101500Y0102506D01*
X0101500Y0100908D02*
X0114600Y0100908D01*
X0114600Y0099309D02*
X0101500Y0099309D01*
X0101500Y0097711D02*
X0114600Y0097711D01*
X0114600Y0096112D02*
X0101500Y0096112D01*
X0101500Y0094514D02*
X0114600Y0094514D01*
X0114600Y0092915D02*
X0106725Y0092915D01*
X0106679Y0092961D02*
X0107861Y0091779D01*
X0108500Y0090235D01*
X0108500Y0083365D01*
X0107861Y0081821D01*
X0106679Y0080639D01*
X0105135Y0080000D01*
X0103465Y0080000D01*
X0101921Y0080639D01*
X0100739Y0081821D01*
X0100100Y0083365D01*
X0100100Y0090235D01*
X0100739Y0091779D01*
X0101921Y0092961D01*
X0103465Y0093600D01*
X0105135Y0093600D01*
X0106679Y0092961D01*
X0108052Y0091317D02*
X0114600Y0091317D01*
X0114600Y0089718D02*
X0108500Y0089718D01*
X0108500Y0088120D02*
X0114600Y0088120D01*
X0114600Y0086521D02*
X0108500Y0086521D01*
X0108500Y0084923D02*
X0114600Y0084923D01*
X0114600Y0083324D02*
X0108483Y0083324D01*
X0107765Y0081726D02*
X0114600Y0081726D01*
X0114516Y0080127D02*
X0105442Y0080127D01*
X0103158Y0080127D02*
X0095442Y0080127D01*
X0093158Y0080127D02*
X0091500Y0080127D01*
X0091500Y0078529D02*
X0093246Y0078529D01*
X0097765Y0081726D02*
X0100835Y0081726D01*
X0100117Y0083324D02*
X0098483Y0083324D01*
X0098500Y0084923D02*
X0100100Y0084923D01*
X0100100Y0086521D02*
X0098500Y0086521D01*
X0098500Y0088120D02*
X0100100Y0088120D01*
X0100100Y0089718D02*
X0098500Y0089718D01*
X0099428Y0091317D02*
X0100548Y0091317D01*
X0101026Y0092915D02*
X0101875Y0092915D01*
X0087016Y0080127D02*
X0085442Y0080127D01*
X0083158Y0080127D02*
X0075442Y0080127D01*
X0073158Y0080127D02*
X0065442Y0080127D01*
X0065135Y0080000D02*
X0066679Y0080639D01*
X0067861Y0081821D01*
X0068500Y0083365D01*
X0068500Y0090235D01*
X0067861Y0091779D01*
X0066679Y0092961D01*
X0065135Y0093600D01*
X0063465Y0093600D01*
X0061921Y0092961D01*
X0060739Y0091779D01*
X0060100Y0090235D01*
X0060100Y0083365D01*
X0060739Y0081821D01*
X0061921Y0080639D01*
X0063465Y0080000D01*
X0065135Y0080000D01*
X0063158Y0080127D02*
X0055442Y0080127D01*
X0055135Y0080000D02*
X0056679Y0080639D01*
X0057861Y0081821D01*
X0058500Y0083365D01*
X0058500Y0090235D01*
X0057861Y0091779D01*
X0056679Y0092961D01*
X0055135Y0093600D01*
X0053465Y0093600D01*
X0051921Y0092961D01*
X0050739Y0091779D01*
X0050100Y0090235D01*
X0050100Y0083365D01*
X0050739Y0081821D01*
X0051921Y0080639D01*
X0053465Y0080000D01*
X0055135Y0080000D01*
X0053158Y0080127D02*
X0045998Y0080127D01*
X0045989Y0080122D02*
X0046606Y0080437D01*
X0047166Y0080844D01*
X0047656Y0081334D01*
X0048063Y0081894D01*
X0048378Y0082511D01*
X0048592Y0083170D01*
X0048700Y0083854D01*
X0048700Y0086800D01*
X0048700Y0089746D01*
X0048592Y0090430D01*
X0048378Y0091089D01*
X0048063Y0091706D01*
X0047656Y0092266D01*
X0047166Y0092756D01*
X0046606Y0093163D01*
X0045989Y0093478D01*
X0045330Y0093692D01*
X0044646Y0093800D01*
X0044300Y0093800D01*
X0044300Y0086800D01*
X0048700Y0086800D01*
X0044300Y0086800D01*
X0044300Y0086800D01*
X0044300Y0086800D01*
X0044300Y0079800D01*
X0044646Y0079800D01*
X0045330Y0079908D01*
X0045989Y0080122D01*
X0044300Y0080127D02*
X0044300Y0080127D01*
X0044300Y0079800D02*
X0044300Y0086800D01*
X0044300Y0086800D01*
X0044300Y0086800D01*
X0039900Y0086800D01*
X0039900Y0089746D01*
X0040008Y0090430D01*
X0040222Y0091089D01*
X0040537Y0091706D01*
X0040944Y0092266D01*
X0041434Y0092756D01*
X0041994Y0093163D01*
X0042611Y0093478D01*
X0043270Y0093692D01*
X0043954Y0093800D01*
X0044300Y0093800D01*
X0044300Y0086800D01*
X0039900Y0086800D01*
X0039900Y0083854D01*
X0040008Y0083170D01*
X0040222Y0082511D01*
X0040537Y0081894D01*
X0040944Y0081334D01*
X0041434Y0080844D01*
X0041994Y0080437D01*
X0042611Y0080122D01*
X0043270Y0079908D01*
X0043954Y0079800D01*
X0044300Y0079800D01*
X0042602Y0080127D02*
X0031500Y0080127D01*
X0031500Y0078529D02*
X0080417Y0078529D01*
X0078819Y0076930D02*
X0031500Y0076930D01*
X0031500Y0075332D02*
X0077220Y0075332D01*
X0075622Y0073733D02*
X0031500Y0073733D01*
X0031500Y0072134D02*
X0074023Y0072134D01*
X0072425Y0070536D02*
X0031500Y0070536D01*
X0031500Y0068937D02*
X0070826Y0068937D01*
X0069228Y0067339D02*
X0031500Y0067339D01*
X0031500Y0065740D02*
X0067629Y0065740D01*
X0066031Y0064142D02*
X0031500Y0064142D01*
X0031668Y0062543D02*
X0041504Y0062543D01*
X0040394Y0060945D02*
X0033266Y0060945D01*
X0034865Y0059346D02*
X0040100Y0059346D01*
X0040100Y0054551D02*
X0023500Y0054551D01*
X0023500Y0056040D02*
X0021040Y0058500D01*
X0017560Y0058500D01*
X0015100Y0056040D01*
X0015100Y0052560D01*
X0017560Y0050100D01*
X0021040Y0050100D01*
X0023500Y0052560D01*
X0023500Y0056040D01*
X0023390Y0056149D02*
X0031839Y0056149D01*
X0030241Y0057748D02*
X0021792Y0057748D01*
X0023500Y0052952D02*
X0040271Y0052952D01*
X0041206Y0051354D02*
X0022294Y0051354D01*
X0016306Y0051354D02*
X0006600Y0051354D01*
X0006600Y0052952D02*
X0015100Y0052952D01*
X0015100Y0054551D02*
X0006600Y0054551D01*
X0006600Y0056149D02*
X0015210Y0056149D01*
X0016808Y0057748D02*
X0006600Y0057748D01*
X0006600Y0059346D02*
X0028642Y0059346D01*
X0027100Y0060945D02*
X0006600Y0060945D01*
X0006600Y0062543D02*
X0027100Y0062543D01*
X0027100Y0064142D02*
X0006600Y0064142D01*
X0006600Y0065740D02*
X0027100Y0065740D01*
X0027100Y0067339D02*
X0006600Y0067339D01*
X0006600Y0068937D02*
X0027100Y0068937D01*
X0027100Y0070536D02*
X0021759Y0070536D01*
X0021123Y0069900D02*
X0023700Y0072477D01*
X0023700Y0074300D01*
X0023700Y0076123D01*
X0021123Y0078700D01*
X0019300Y0078700D01*
X0019300Y0074300D01*
X0019300Y0074300D01*
X0023700Y0074300D01*
X0019300Y0074300D01*
X0019300Y0074300D01*
X0019300Y0074300D01*
X0014900Y0074300D01*
X0014900Y0076123D01*
X0017477Y0078700D01*
X0019300Y0078700D01*
X0019300Y0074300D01*
X0019300Y0069900D01*
X0021123Y0069900D01*
X0019300Y0069900D02*
X0019300Y0074300D01*
X0019300Y0074300D01*
X0014900Y0074300D01*
X0014900Y0072477D01*
X0017477Y0069900D01*
X0019300Y0069900D01*
X0019300Y0070536D02*
X0019300Y0070536D01*
X0019300Y0072134D02*
X0019300Y0072134D01*
X0019300Y0073733D02*
X0019300Y0073733D01*
X0019300Y0075332D02*
X0019300Y0075332D01*
X0019300Y0076930D02*
X0019300Y0076930D01*
X0019300Y0078529D02*
X0019300Y0078529D01*
X0021294Y0078529D02*
X0027100Y0078529D01*
X0027100Y0080127D02*
X0006600Y0080127D01*
X0006600Y0078529D02*
X0017306Y0078529D01*
X0015708Y0076930D02*
X0006600Y0076930D01*
X0006600Y0075332D02*
X0014900Y0075332D01*
X0014900Y0073733D02*
X0006600Y0073733D01*
X0006600Y0072134D02*
X0015243Y0072134D01*
X0016841Y0070536D02*
X0006600Y0070536D01*
X0006600Y0081726D02*
X0027100Y0081726D01*
X0027100Y0083324D02*
X0006600Y0083324D01*
X0006600Y0084923D02*
X0027100Y0084923D01*
X0027100Y0086521D02*
X0006600Y0086521D01*
X0006600Y0088120D02*
X0027100Y0088120D01*
X0027100Y0089718D02*
X0006600Y0089718D01*
X0006600Y0091317D02*
X0027100Y0091317D01*
X0027100Y0092915D02*
X0006600Y0092915D01*
X0006600Y0094514D02*
X0027100Y0094514D01*
X0027100Y0096112D02*
X0021052Y0096112D01*
X0021040Y0096100D02*
X0023500Y0098560D01*
X0023500Y0102040D01*
X0021206Y0104333D01*
X0021606Y0104537D01*
X0022166Y0104944D01*
X0022656Y0105434D01*
X0023063Y0105994D01*
X0023378Y0106611D01*
X0023592Y0107270D01*
X0023700Y0107954D01*
X0023700Y0108300D01*
X0023700Y0108646D01*
X0023592Y0109330D01*
X0023378Y0109989D01*
X0023063Y0110606D01*
X0022656Y0111166D01*
X0022166Y0111656D01*
X0021606Y0112063D01*
X0020989Y0112378D01*
X0020330Y0112592D01*
X0019646Y0112700D01*
X0019300Y0112700D01*
X0019300Y0108300D01*
X0023700Y0108300D01*
X0019300Y0108300D01*
X0019300Y0108300D01*
X0019300Y0108300D01*
X0019300Y0108300D01*
X0014900Y0108300D01*
X0014900Y0108646D01*
X0015008Y0109330D01*
X0015222Y0109989D01*
X0015537Y0110606D01*
X0015944Y0111166D01*
X0016434Y0111656D01*
X0016994Y0112063D01*
X0017611Y0112378D01*
X0018270Y0112592D01*
X0018954Y0112700D01*
X0019300Y0112700D01*
X0019300Y0108300D01*
X0014900Y0108300D01*
X0014900Y0107954D01*
X0015008Y0107270D01*
X0015222Y0106611D01*
X0015537Y0105994D01*
X0015944Y0105434D01*
X0016434Y0104944D01*
X0016994Y0104537D01*
X0017393Y0104333D01*
X0015100Y0102040D01*
X0015100Y0098560D01*
X0017560Y0096100D01*
X0021040Y0096100D01*
X0022650Y0097711D02*
X0027100Y0097711D01*
X0027100Y0099309D02*
X0023500Y0099309D01*
X0023500Y0100908D02*
X0027796Y0100908D01*
X0029395Y0102506D02*
X0023033Y0102506D01*
X0021435Y0104105D02*
X0053493Y0104105D01*
X0051857Y0105703D02*
X0046743Y0105703D01*
X0046679Y0105639D02*
X0047861Y0106821D01*
X0048500Y0108365D01*
X0048500Y0115235D01*
X0047861Y0116779D01*
X0046679Y0117961D01*
X0045135Y0118600D01*
X0043465Y0118600D01*
X0041921Y0117961D01*
X0040739Y0116779D01*
X0040100Y0115235D01*
X0040100Y0114111D01*
X0034000Y0120211D01*
X0034000Y0155889D01*
X0060211Y0182100D01*
X0073389Y0182100D01*
X0078030Y0177459D01*
X0077927Y0177356D01*
X0077231Y0175677D01*
X0077231Y0167923D01*
X0077927Y0166244D01*
X0079212Y0164959D01*
X0080891Y0164263D01*
X0082709Y0164263D01*
X0084388Y0164959D01*
X0085673Y0166244D01*
X0086368Y0167923D01*
X0086368Y0175677D01*
X0085673Y0177356D01*
X0084388Y0178641D01*
X0082709Y0179337D01*
X0082374Y0179337D01*
X0075211Y0186500D01*
X0058389Y0186500D01*
X0057100Y0185211D01*
X0029600Y0157711D01*
X0029600Y0118389D01*
X0030889Y0117100D01*
X0038389Y0109600D01*
X0040100Y0109600D01*
X0040100Y0108365D01*
X0040739Y0106821D01*
X0041921Y0105639D01*
X0043465Y0105000D01*
X0045135Y0105000D01*
X0046679Y0105639D01*
X0048060Y0107302D02*
X0050540Y0107302D01*
X0050100Y0108900D02*
X0048500Y0108900D01*
X0048500Y0110499D02*
X0050100Y0110499D01*
X0050100Y0112097D02*
X0048500Y0112097D01*
X0048500Y0113696D02*
X0050100Y0113696D01*
X0050124Y0115294D02*
X0048476Y0115294D01*
X0047747Y0116893D02*
X0050853Y0116893D01*
X0053202Y0118491D02*
X0045398Y0118491D01*
X0043202Y0118491D02*
X0035720Y0118491D01*
X0037318Y0116893D02*
X0040853Y0116893D01*
X0040124Y0115294D02*
X0038917Y0115294D01*
X0035891Y0112097D02*
X0021539Y0112097D01*
X0023118Y0110499D02*
X0037490Y0110499D01*
X0040100Y0108900D02*
X0023660Y0108900D01*
X0023597Y0107302D02*
X0040540Y0107302D01*
X0041857Y0105703D02*
X0022852Y0105703D01*
X0019300Y0108900D02*
X0019300Y0108900D01*
X0019300Y0110499D02*
X0019300Y0110499D01*
X0019300Y0112097D02*
X0019300Y0112097D01*
X0017061Y0112097D02*
X0006600Y0112097D01*
X0006600Y0110499D02*
X0015482Y0110499D01*
X0014940Y0108900D02*
X0006600Y0108900D01*
X0006600Y0107302D02*
X0015003Y0107302D01*
X0015748Y0105703D02*
X0006600Y0105703D01*
X0006600Y0104105D02*
X0017165Y0104105D01*
X0015567Y0102506D02*
X0006600Y0102506D01*
X0006600Y0100908D02*
X0015100Y0100908D01*
X0015100Y0099309D02*
X0006600Y0099309D01*
X0006600Y0097711D02*
X0015950Y0097711D01*
X0017548Y0096112D02*
X0006600Y0096112D01*
X0006600Y0113696D02*
X0034293Y0113696D01*
X0032694Y0115294D02*
X0006600Y0115294D01*
X0006600Y0116893D02*
X0031096Y0116893D01*
X0029600Y0118491D02*
X0006600Y0118491D01*
X0006600Y0120090D02*
X0029600Y0120090D01*
X0029600Y0121688D02*
X0006600Y0121688D01*
X0006600Y0123287D02*
X0029600Y0123287D01*
X0029600Y0124885D02*
X0006600Y0124885D01*
X0006600Y0126484D02*
X0015894Y0126484D01*
X0014900Y0127477D02*
X0014900Y0129300D01*
X0019300Y0129300D01*
X0019300Y0129300D01*
X0019300Y0133700D01*
X0021123Y0133700D01*
X0023700Y0131123D01*
X0023700Y0129300D01*
X0019300Y0129300D01*
X0019300Y0129300D01*
X0019300Y0129300D01*
X0019300Y0133700D01*
X0017477Y0133700D01*
X0014900Y0131123D01*
X0014900Y0129300D01*
X0019300Y0129300D01*
X0023700Y0129300D01*
X0023700Y0127477D01*
X0021123Y0124900D01*
X0019300Y0124900D01*
X0019300Y0129300D01*
X0019300Y0129300D01*
X0019300Y0124900D01*
X0017477Y0124900D01*
X0014900Y0127477D01*
X0014900Y0128082D02*
X0006600Y0128082D01*
X0006600Y0129681D02*
X0014900Y0129681D01*
X0015057Y0131279D02*
X0006600Y0131279D01*
X0006600Y0132878D02*
X0016655Y0132878D01*
X0019300Y0132878D02*
X0019300Y0132878D01*
X0019300Y0131279D02*
X0019300Y0131279D01*
X0019300Y0129681D02*
X0019300Y0129681D01*
X0019300Y0128082D02*
X0019300Y0128082D01*
X0019300Y0126484D02*
X0019300Y0126484D01*
X0022706Y0126484D02*
X0029600Y0126484D01*
X0029600Y0128082D02*
X0023700Y0128082D01*
X0023700Y0129681D02*
X0029600Y0129681D01*
X0029600Y0131279D02*
X0023543Y0131279D01*
X0021945Y0132878D02*
X0029600Y0132878D01*
X0029600Y0134476D02*
X0006600Y0134476D01*
X0006600Y0136075D02*
X0029600Y0136075D01*
X0029600Y0137673D02*
X0006600Y0137673D01*
X0006600Y0139272D02*
X0029600Y0139272D01*
X0029600Y0140870D02*
X0006600Y0140870D01*
X0006600Y0142469D02*
X0029600Y0142469D01*
X0029600Y0144068D02*
X0006600Y0144068D01*
X0006600Y0145666D02*
X0016994Y0145666D01*
X0017560Y0145100D02*
X0015100Y0147560D01*
X0015100Y0151040D01*
X0017560Y0153500D01*
X0021040Y0153500D01*
X0023500Y0151040D01*
X0023500Y0147560D01*
X0021040Y0145100D01*
X0017560Y0145100D01*
X0015396Y0147265D02*
X0006600Y0147265D01*
X0006600Y0148863D02*
X0015100Y0148863D01*
X0015100Y0150462D02*
X0006600Y0150462D01*
X0006600Y0152060D02*
X0016120Y0152060D01*
X0017227Y0157724D02*
X0021800Y0157000D01*
X0026373Y0157724D01*
X0026373Y0157724D01*
X0030499Y0159827D01*
X0033773Y0163101D01*
X0035876Y0167227D01*
X0036600Y0171800D01*
X0035876Y0176373D01*
X0035876Y0176373D01*
X0033773Y0180499D01*
X0030499Y0183773D01*
X0026373Y0185876D01*
X0021800Y0186600D01*
X0017227Y0185876D01*
X0017227Y0185876D01*
X0013101Y0183773D01*
X0013101Y0183773D01*
X0009827Y0180499D01*
X0007724Y0176373D01*
X0007000Y0171800D01*
X0007000Y0171800D01*
X0007724Y0167227D01*
X0009827Y0163101D01*
X0009827Y0163101D01*
X0013101Y0159827D01*
X0017227Y0157724D01*
X0017227Y0157724D01*
X0015794Y0158454D02*
X0006600Y0158454D01*
X0006600Y0156856D02*
X0029600Y0156856D01*
X0029600Y0155257D02*
X0006600Y0155257D01*
X0006600Y0153659D02*
X0029600Y0153659D01*
X0029600Y0152060D02*
X0022480Y0152060D01*
X0023500Y0150462D02*
X0029600Y0150462D01*
X0029600Y0148863D02*
X0023500Y0148863D01*
X0023204Y0147265D02*
X0029600Y0147265D01*
X0029600Y0145666D02*
X0021606Y0145666D01*
X0021800Y0157000D02*
X0021800Y0157000D01*
X0027806Y0158454D02*
X0030343Y0158454D01*
X0030499Y0159827D02*
X0030499Y0159827D01*
X0030725Y0160053D02*
X0031941Y0160053D01*
X0032324Y0161651D02*
X0033540Y0161651D01*
X0033773Y0163101D02*
X0033773Y0163101D01*
X0033849Y0163250D02*
X0035138Y0163250D01*
X0034664Y0164848D02*
X0036737Y0164848D01*
X0035478Y0166447D02*
X0038335Y0166447D01*
X0039934Y0168045D02*
X0036005Y0168045D01*
X0035876Y0167227D02*
X0035876Y0167227D01*
X0036258Y0169644D02*
X0041532Y0169644D01*
X0043131Y0171242D02*
X0036512Y0171242D01*
X0036435Y0172841D02*
X0044729Y0172841D01*
X0046328Y0174439D02*
X0036182Y0174439D01*
X0035929Y0176038D02*
X0047926Y0176038D01*
X0049525Y0177636D02*
X0035232Y0177636D01*
X0034418Y0179235D02*
X0051123Y0179235D01*
X0052722Y0180833D02*
X0033439Y0180833D01*
X0033773Y0180499D02*
X0033773Y0180499D01*
X0031841Y0182432D02*
X0054321Y0182432D01*
X0055919Y0184030D02*
X0029995Y0184030D01*
X0026858Y0185629D02*
X0057518Y0185629D01*
X0058945Y0180833D02*
X0074655Y0180833D01*
X0073630Y0179188D02*
X0072917Y0179420D01*
X0072175Y0179537D01*
X0071984Y0179537D01*
X0071984Y0171984D01*
X0076568Y0171984D01*
X0076568Y0175144D01*
X0076451Y0175885D01*
X0076219Y0176599D01*
X0075878Y0177268D01*
X0075437Y0177875D01*
X0074906Y0178406D01*
X0074299Y0178847D01*
X0073630Y0179188D01*
X0073485Y0179235D02*
X0076254Y0179235D01*
X0075611Y0177636D02*
X0077852Y0177636D01*
X0077381Y0176038D02*
X0076401Y0176038D01*
X0076568Y0174439D02*
X0077231Y0174439D01*
X0077231Y0172841D02*
X0076568Y0172841D01*
X0076568Y0171616D02*
X0071984Y0171616D01*
X0071984Y0164063D01*
X0072175Y0164063D01*
X0072917Y0164180D01*
X0073630Y0164412D01*
X0074299Y0164753D01*
X0074906Y0165194D01*
X0075437Y0165725D01*
X0075878Y0166332D01*
X0076219Y0167001D01*
X0076451Y0167715D01*
X0076568Y0168456D01*
X0076568Y0171616D01*
X0076568Y0171242D02*
X0077231Y0171242D01*
X0077231Y0169644D02*
X0076568Y0169644D01*
X0076503Y0168045D02*
X0077231Y0168045D01*
X0077843Y0166447D02*
X0075937Y0166447D01*
X0074430Y0164848D02*
X0079479Y0164848D01*
X0084121Y0164848D02*
X0089479Y0164848D01*
X0089212Y0164959D02*
X0090891Y0164263D01*
X0092709Y0164263D01*
X0094388Y0164959D01*
X0095673Y0166244D01*
X0096368Y0167923D01*
X0096368Y0175677D01*
X0095673Y0177356D01*
X0094388Y0178641D01*
X0092709Y0179337D01*
X0090891Y0179337D01*
X0089212Y0178641D01*
X0087927Y0177356D01*
X0087231Y0175677D01*
X0087231Y0167923D01*
X0087927Y0166244D01*
X0089212Y0164959D01*
X0087843Y0166447D02*
X0085757Y0166447D01*
X0086368Y0168045D02*
X0087231Y0168045D01*
X0087231Y0169644D02*
X0086368Y0169644D01*
X0086368Y0171242D02*
X0087231Y0171242D01*
X0087231Y0172841D02*
X0086368Y0172841D01*
X0086368Y0174439D02*
X0087231Y0174439D01*
X0087381Y0176038D02*
X0086219Y0176038D01*
X0085393Y0177636D02*
X0088207Y0177636D01*
X0090644Y0179235D02*
X0082956Y0179235D01*
X0080878Y0180833D02*
X0160161Y0180833D01*
X0159827Y0180499D02*
X0159827Y0180499D01*
X0159182Y0179235D02*
X0122956Y0179235D01*
X0122709Y0179337D02*
X0120891Y0179337D01*
X0119212Y0178641D01*
X0117927Y0177356D01*
X0117231Y0175677D01*
X0117231Y0167923D01*
X0117927Y0166244D01*
X0119212Y0164959D01*
X0120891Y0164263D01*
X0122709Y0164263D01*
X0124388Y0164959D01*
X0125673Y0166244D01*
X0126368Y0167923D01*
X0126368Y0175677D01*
X0125673Y0177356D01*
X0124388Y0178641D01*
X0122709Y0179337D01*
X0120644Y0179235D02*
X0112956Y0179235D01*
X0112709Y0179337D02*
X0110891Y0179337D01*
X0109212Y0178641D01*
X0107927Y0177356D01*
X0107231Y0175677D01*
X0107231Y0167923D01*
X0107927Y0166244D01*
X0109212Y0164959D01*
X0109600Y0164798D01*
X0109600Y0157711D01*
X0108389Y0156500D01*
X0095889Y0156500D01*
X0093389Y0154000D01*
X0092100Y0152711D01*
X0092100Y0148035D01*
X0091921Y0147961D01*
X0090739Y0146779D01*
X0090100Y0145235D01*
X0090100Y0140711D01*
X0088500Y0139111D01*
X0088500Y0145235D01*
X0087861Y0146779D01*
X0086679Y0147961D01*
X0085135Y0148600D01*
X0083465Y0148600D01*
X0081921Y0147961D01*
X0080739Y0146779D01*
X0080100Y0145235D01*
X0080100Y0144000D01*
X0078500Y0144000D01*
X0078500Y0145235D01*
X0077861Y0146779D01*
X0076679Y0147961D01*
X0075135Y0148600D01*
X0073465Y0148600D01*
X0071921Y0147961D01*
X0070739Y0146779D01*
X0070100Y0145235D01*
X0070100Y0138365D01*
X0070739Y0136821D01*
X0071060Y0136500D01*
X0067540Y0136500D01*
X0067861Y0136821D01*
X0068500Y0138365D01*
X0068500Y0145235D01*
X0067861Y0146779D01*
X0066679Y0147961D01*
X0066500Y0148035D01*
X0066500Y0148389D01*
X0070211Y0152100D01*
X0090211Y0152100D01*
X0102374Y0164263D01*
X0102709Y0164263D01*
X0104388Y0164959D01*
X0105673Y0166244D01*
X0106368Y0167923D01*
X0106368Y0175677D01*
X0105673Y0177356D01*
X0104388Y0178641D01*
X0102709Y0179337D01*
X0100891Y0179337D01*
X0099212Y0178641D01*
X0097927Y0177356D01*
X0097231Y0175677D01*
X0097231Y0167923D01*
X0097927Y0166244D01*
X0098030Y0166141D01*
X0088389Y0156500D01*
X0068389Y0156500D01*
X0063389Y0151500D01*
X0063389Y0151500D01*
X0062100Y0150211D01*
X0062100Y0148035D01*
X0061921Y0147961D01*
X0060739Y0146779D01*
X0060100Y0145235D01*
X0060100Y0138365D01*
X0060739Y0136821D01*
X0061060Y0136500D01*
X0060211Y0136500D01*
X0058455Y0138256D01*
X0058500Y0138365D01*
X0058500Y0145235D01*
X0057861Y0146779D01*
X0056679Y0147961D01*
X0055135Y0148600D01*
X0053465Y0148600D01*
X0051921Y0147961D01*
X0050739Y0146779D01*
X0050100Y0145235D01*
X0050100Y0138365D01*
X0050739Y0136821D01*
X0051921Y0135639D01*
X0053465Y0135000D01*
X0055135Y0135000D01*
X0055385Y0135103D01*
X0057100Y0133389D01*
X0058389Y0132100D01*
X0087711Y0132100D01*
X0091586Y0135975D01*
X0091921Y0135639D01*
X0093465Y0135000D01*
X0095135Y0135000D01*
X0096679Y0135639D01*
X0097861Y0136821D01*
X0098500Y0138365D01*
X0098500Y0145235D01*
X0097861Y0146779D01*
X0096679Y0147961D01*
X0096500Y0148035D01*
X0096500Y0150889D01*
X0097711Y0152100D01*
X0110211Y0152100D01*
X0111500Y0153389D01*
X0114000Y0155889D01*
X0114000Y0164798D01*
X0114388Y0164959D01*
X0115673Y0166244D01*
X0116368Y0167923D01*
X0116368Y0175677D01*
X0115673Y0177356D01*
X0114388Y0178641D01*
X0112709Y0179337D01*
X0110644Y0179235D02*
X0102956Y0179235D01*
X0105393Y0177636D02*
X0108207Y0177636D01*
X0107381Y0176038D02*
X0106219Y0176038D01*
X0106368Y0174439D02*
X0107231Y0174439D01*
X0107231Y0172841D02*
X0106368Y0172841D01*
X0106368Y0171242D02*
X0107231Y0171242D01*
X0107231Y0169644D02*
X0106368Y0169644D01*
X0106368Y0168045D02*
X0107231Y0168045D01*
X0107843Y0166447D02*
X0105757Y0166447D01*
X0104121Y0164848D02*
X0109479Y0164848D01*
X0109600Y0163250D02*
X0101361Y0163250D01*
X0099762Y0161651D02*
X0109600Y0161651D01*
X0109600Y0160053D02*
X0098164Y0160053D01*
X0096565Y0158454D02*
X0109600Y0158454D01*
X0108744Y0156856D02*
X0094967Y0156856D01*
X0094646Y0155257D02*
X0093368Y0155257D01*
X0093047Y0153659D02*
X0091770Y0153659D01*
X0092100Y0152060D02*
X0070171Y0152060D01*
X0068573Y0150462D02*
X0092100Y0150462D01*
X0092100Y0148863D02*
X0066974Y0148863D01*
X0067375Y0147265D02*
X0071225Y0147265D01*
X0070278Y0145666D02*
X0068322Y0145666D01*
X0068500Y0144068D02*
X0070100Y0144068D01*
X0070100Y0142469D02*
X0068500Y0142469D01*
X0068500Y0140870D02*
X0070100Y0140870D01*
X0070100Y0139272D02*
X0068500Y0139272D01*
X0068214Y0137673D02*
X0070386Y0137673D01*
X0078500Y0144068D02*
X0080100Y0144068D01*
X0080278Y0145666D02*
X0078322Y0145666D01*
X0077375Y0147265D02*
X0081225Y0147265D01*
X0087375Y0147265D02*
X0091225Y0147265D01*
X0090278Y0145666D02*
X0088322Y0145666D01*
X0088500Y0144068D02*
X0090100Y0144068D01*
X0090100Y0142469D02*
X0088500Y0142469D01*
X0088500Y0140870D02*
X0090100Y0140870D01*
X0088661Y0139272D02*
X0088500Y0139272D01*
X0090088Y0134476D02*
X0098865Y0134476D01*
X0097267Y0132878D02*
X0088489Y0132878D01*
X0092471Y0128082D02*
X0034000Y0128082D01*
X0034000Y0126484D02*
X0090873Y0126484D01*
X0089274Y0124885D02*
X0034000Y0124885D01*
X0034000Y0123287D02*
X0060176Y0123287D01*
X0058577Y0121688D02*
X0034000Y0121688D01*
X0034121Y0120090D02*
X0056979Y0120090D01*
X0057611Y0132878D02*
X0034000Y0132878D01*
X0034000Y0134476D02*
X0056012Y0134476D01*
X0059038Y0137673D02*
X0060386Y0137673D01*
X0060100Y0139272D02*
X0058500Y0139272D01*
X0058500Y0140870D02*
X0060100Y0140870D01*
X0060100Y0142469D02*
X0058500Y0142469D01*
X0058500Y0144068D02*
X0060100Y0144068D01*
X0060278Y0145666D02*
X0058322Y0145666D01*
X0057375Y0147265D02*
X0061225Y0147265D01*
X0062100Y0148863D02*
X0034000Y0148863D01*
X0034000Y0147265D02*
X0040943Y0147265D01*
X0040944Y0147266D02*
X0040537Y0146706D01*
X0040222Y0146089D01*
X0040008Y0145430D01*
X0039900Y0144746D01*
X0039900Y0141800D01*
X0044300Y0141800D01*
X0048700Y0141800D01*
X0048700Y0144746D01*
X0048592Y0145430D01*
X0048378Y0146089D01*
X0048063Y0146706D01*
X0047656Y0147266D01*
X0047166Y0147756D01*
X0046606Y0148163D01*
X0045989Y0148478D01*
X0045330Y0148692D01*
X0044646Y0148800D01*
X0044300Y0148800D01*
X0044300Y0141800D01*
X0044300Y0141800D01*
X0044300Y0141800D01*
X0048700Y0141800D01*
X0048700Y0138854D01*
X0048592Y0138170D01*
X0048378Y0137511D01*
X0048063Y0136894D01*
X0047656Y0136334D01*
X0047166Y0135844D01*
X0046606Y0135437D01*
X0045989Y0135122D01*
X0045330Y0134908D01*
X0044646Y0134800D01*
X0044300Y0134800D01*
X0044300Y0141800D01*
X0044300Y0141800D01*
X0044300Y0141800D01*
X0044300Y0148800D01*
X0043954Y0148800D01*
X0043270Y0148692D01*
X0042611Y0148478D01*
X0041994Y0148163D01*
X0041434Y0147756D01*
X0040944Y0147266D01*
X0040085Y0145666D02*
X0034000Y0145666D01*
X0034000Y0144068D02*
X0039900Y0144068D01*
X0039900Y0142469D02*
X0034000Y0142469D01*
X0034000Y0140870D02*
X0039900Y0140870D01*
X0039900Y0141800D02*
X0039900Y0138854D01*
X0040008Y0138170D01*
X0040222Y0137511D01*
X0040537Y0136894D01*
X0040944Y0136334D01*
X0041434Y0135844D01*
X0041994Y0135437D01*
X0042611Y0135122D01*
X0043270Y0134908D01*
X0043954Y0134800D01*
X0044300Y0134800D01*
X0044300Y0141800D01*
X0039900Y0141800D01*
X0039900Y0139272D02*
X0034000Y0139272D01*
X0034000Y0137673D02*
X0040170Y0137673D01*
X0041202Y0136075D02*
X0034000Y0136075D01*
X0034000Y0131279D02*
X0095668Y0131279D01*
X0094070Y0129681D02*
X0034000Y0129681D01*
X0044300Y0136075D02*
X0044300Y0136075D01*
X0044300Y0137673D02*
X0044300Y0137673D01*
X0044300Y0139272D02*
X0044300Y0139272D01*
X0044300Y0140870D02*
X0044300Y0140870D01*
X0044300Y0142469D02*
X0044300Y0142469D01*
X0044300Y0144068D02*
X0044300Y0144068D01*
X0044300Y0145666D02*
X0044300Y0145666D01*
X0044300Y0147265D02*
X0044300Y0147265D01*
X0047657Y0147265D02*
X0051225Y0147265D01*
X0050278Y0145666D02*
X0048515Y0145666D01*
X0048700Y0144068D02*
X0050100Y0144068D01*
X0050100Y0142469D02*
X0048700Y0142469D01*
X0048700Y0140870D02*
X0050100Y0140870D01*
X0050100Y0139272D02*
X0048700Y0139272D01*
X0048430Y0137673D02*
X0050386Y0137673D01*
X0051485Y0136075D02*
X0047397Y0136075D01*
X0034000Y0150462D02*
X0062350Y0150462D01*
X0063949Y0152060D02*
X0034000Y0152060D01*
X0034000Y0153659D02*
X0065547Y0153659D01*
X0067146Y0155257D02*
X0034000Y0155257D01*
X0034967Y0156856D02*
X0088744Y0156856D01*
X0090343Y0158454D02*
X0036565Y0158454D01*
X0038164Y0160053D02*
X0091941Y0160053D01*
X0093540Y0161651D02*
X0039762Y0161651D01*
X0041361Y0163250D02*
X0095138Y0163250D01*
X0094121Y0164848D02*
X0096737Y0164848D01*
X0095757Y0166447D02*
X0097843Y0166447D01*
X0097231Y0168045D02*
X0096368Y0168045D01*
X0096368Y0169644D02*
X0097231Y0169644D01*
X0097231Y0171242D02*
X0096368Y0171242D01*
X0096368Y0172841D02*
X0097231Y0172841D01*
X0097231Y0174439D02*
X0096368Y0174439D01*
X0096219Y0176038D02*
X0097381Y0176038D01*
X0098207Y0177636D02*
X0095393Y0177636D01*
X0092956Y0179235D02*
X0100644Y0179235D01*
X0114121Y0164848D02*
X0119479Y0164848D01*
X0117843Y0166447D02*
X0115757Y0166447D01*
X0116368Y0168045D02*
X0117231Y0168045D01*
X0117231Y0169644D02*
X0116368Y0169644D01*
X0116368Y0171242D02*
X0117231Y0171242D01*
X0117231Y0172841D02*
X0116368Y0172841D01*
X0116368Y0174439D02*
X0117231Y0174439D01*
X0117381Y0176038D02*
X0116219Y0176038D01*
X0115393Y0177636D02*
X0118207Y0177636D01*
X0125393Y0177636D02*
X0158368Y0177636D01*
X0157724Y0176373D02*
X0157724Y0176373D01*
X0157671Y0176038D02*
X0126219Y0176038D01*
X0126368Y0174439D02*
X0157418Y0174439D01*
X0157165Y0172841D02*
X0126368Y0172841D01*
X0126368Y0171242D02*
X0157088Y0171242D01*
X0157342Y0169644D02*
X0126368Y0169644D01*
X0126368Y0168045D02*
X0157595Y0168045D01*
X0157724Y0167227D02*
X0157724Y0167227D01*
X0158122Y0166447D02*
X0125757Y0166447D01*
X0124121Y0164848D02*
X0158936Y0164848D01*
X0159751Y0163250D02*
X0114000Y0163250D01*
X0114000Y0161651D02*
X0161276Y0161651D01*
X0162875Y0160053D02*
X0114000Y0160053D01*
X0114000Y0158454D02*
X0165794Y0158454D01*
X0167227Y0157724D02*
X0167227Y0157724D01*
X0171800Y0157000D02*
X0171800Y0157000D01*
X0177806Y0158454D02*
X0185701Y0158454D01*
X0185701Y0156856D02*
X0114000Y0156856D01*
X0113368Y0155257D02*
X0185701Y0155257D01*
X0185701Y0153659D02*
X0111770Y0153659D01*
X0107375Y0147265D02*
X0185701Y0147265D01*
X0185701Y0148863D02*
X0096500Y0148863D01*
X0096500Y0150462D02*
X0185701Y0150462D01*
X0185701Y0152060D02*
X0097671Y0152060D01*
X0097375Y0147265D02*
X0101225Y0147265D01*
X0100278Y0145666D02*
X0098322Y0145666D01*
X0098500Y0144068D02*
X0100100Y0144068D01*
X0100100Y0142469D02*
X0098500Y0142469D01*
X0098500Y0140870D02*
X0100100Y0140870D01*
X0100100Y0139272D02*
X0098500Y0139272D01*
X0098214Y0137673D02*
X0100386Y0137673D01*
X0100464Y0136075D02*
X0097115Y0136075D01*
X0107115Y0136075D02*
X0122964Y0136075D01*
X0131634Y0137673D02*
X0108214Y0137673D01*
X0108500Y0139272D02*
X0185701Y0139272D01*
X0185701Y0140870D02*
X0108500Y0140870D01*
X0108500Y0142469D02*
X0185701Y0142469D01*
X0185701Y0144068D02*
X0108500Y0144068D01*
X0108322Y0145666D02*
X0185701Y0145666D01*
X0185701Y0137673D02*
X0171966Y0137673D01*
X0173211Y0136075D02*
X0185701Y0136075D01*
X0185701Y0134476D02*
X0173600Y0134476D01*
X0173357Y0132878D02*
X0185701Y0132878D01*
X0185701Y0118491D02*
X0170256Y0118491D01*
X0172747Y0116893D02*
X0185701Y0116893D01*
X0185701Y0115294D02*
X0173534Y0115294D01*
X0173600Y0113696D02*
X0185701Y0113696D01*
X0185701Y0112097D02*
X0173034Y0112097D01*
X0171198Y0110499D02*
X0185701Y0110499D01*
X0185701Y0108900D02*
X0164512Y0108900D01*
X0159888Y0110499D02*
X0141198Y0110499D01*
X0143034Y0112097D02*
X0160566Y0112097D01*
X0160000Y0113696D02*
X0143600Y0113696D01*
X0143534Y0115294D02*
X0160066Y0115294D01*
X0160853Y0116893D02*
X0142747Y0116893D01*
X0140256Y0118491D02*
X0163344Y0118491D01*
X0160872Y0121688D02*
X0142728Y0121688D01*
X0143526Y0123287D02*
X0160074Y0123287D01*
X0160000Y0124885D02*
X0143600Y0124885D01*
X0143041Y0126484D02*
X0160559Y0126484D01*
X0162356Y0128082D02*
X0141244Y0128082D01*
X0142319Y0131279D02*
X0161281Y0131279D01*
X0160243Y0132878D02*
X0143357Y0132878D01*
X0143600Y0134476D02*
X0160000Y0134476D01*
X0160389Y0136075D02*
X0143211Y0136075D01*
X0141966Y0137673D02*
X0161634Y0137673D01*
X0163101Y0159827D02*
X0163101Y0159827D01*
X0180499Y0159827D02*
X0180499Y0159827D01*
X0180725Y0160053D02*
X0185701Y0160053D01*
X0185701Y0161651D02*
X0182324Y0161651D01*
X0183773Y0163101D02*
X0183773Y0163101D01*
X0183849Y0163250D02*
X0185701Y0163250D01*
X0185701Y0164848D02*
X0184664Y0164848D01*
X0185478Y0166447D02*
X0185701Y0166447D01*
X0185701Y0177636D02*
X0185232Y0177636D01*
X0185701Y0179235D02*
X0184418Y0179235D01*
X0183773Y0180499D02*
X0183773Y0180499D01*
X0183439Y0180833D02*
X0185701Y0180833D01*
X0185701Y0182432D02*
X0181841Y0182432D01*
X0180499Y0183773D02*
X0180499Y0183773D01*
X0179995Y0184030D02*
X0185701Y0184030D01*
X0185701Y0185629D02*
X0176858Y0185629D01*
X0176373Y0185876D02*
X0176373Y0185876D01*
X0171800Y0186600D02*
X0171800Y0186600D01*
X0166742Y0185629D02*
X0076082Y0185629D01*
X0077681Y0184030D02*
X0163605Y0184030D01*
X0161759Y0182432D02*
X0079279Y0182432D01*
X0071984Y0179235D02*
X0071616Y0179235D01*
X0071616Y0179537D02*
X0071425Y0179537D01*
X0070683Y0179420D01*
X0069970Y0179188D01*
X0069301Y0178847D01*
X0068694Y0178406D01*
X0068163Y0177875D01*
X0067722Y0177268D01*
X0067381Y0176599D01*
X0067149Y0175885D01*
X0067031Y0175144D01*
X0067031Y0171984D01*
X0071616Y0171984D01*
X0071616Y0171616D01*
X0071984Y0171616D01*
X0071984Y0171984D01*
X0071616Y0171984D01*
X0071616Y0179537D01*
X0070115Y0179235D02*
X0057346Y0179235D01*
X0055748Y0177636D02*
X0067989Y0177636D01*
X0067199Y0176038D02*
X0054149Y0176038D01*
X0052550Y0174439D02*
X0067031Y0174439D01*
X0067031Y0172841D02*
X0050952Y0172841D01*
X0049353Y0171242D02*
X0067031Y0171242D01*
X0067031Y0171616D02*
X0067031Y0168456D01*
X0067149Y0167715D01*
X0067381Y0167001D01*
X0067722Y0166332D01*
X0068163Y0165725D01*
X0068694Y0165194D01*
X0069301Y0164753D01*
X0069970Y0164412D01*
X0070683Y0164180D01*
X0071425Y0164063D01*
X0071616Y0164063D01*
X0071616Y0171616D01*
X0067031Y0171616D01*
X0067031Y0169644D02*
X0047755Y0169644D01*
X0046156Y0168045D02*
X0067097Y0168045D01*
X0067663Y0166447D02*
X0044558Y0166447D01*
X0042959Y0164848D02*
X0069170Y0164848D01*
X0071616Y0164848D02*
X0071984Y0164848D01*
X0071984Y0166447D02*
X0071616Y0166447D01*
X0071616Y0168045D02*
X0071984Y0168045D01*
X0071984Y0169644D02*
X0071616Y0169644D01*
X0071616Y0171242D02*
X0071984Y0171242D01*
X0071984Y0172841D02*
X0071616Y0172841D01*
X0071616Y0174439D02*
X0071984Y0174439D01*
X0071984Y0176038D02*
X0071616Y0176038D01*
X0071616Y0177636D02*
X0071984Y0177636D01*
X0021800Y0186600D02*
X0021800Y0186600D01*
X0016742Y0185629D02*
X0006600Y0185629D01*
X0006600Y0184030D02*
X0013605Y0184030D01*
X0011759Y0182432D02*
X0006600Y0182432D01*
X0006600Y0180833D02*
X0010161Y0180833D01*
X0009827Y0180499D02*
X0009827Y0180499D01*
X0009182Y0179235D02*
X0006600Y0179235D01*
X0006600Y0177636D02*
X0008368Y0177636D01*
X0007724Y0176373D02*
X0007724Y0176373D01*
X0007671Y0176038D02*
X0006600Y0176038D01*
X0006600Y0174439D02*
X0007418Y0174439D01*
X0007165Y0172841D02*
X0006600Y0172841D01*
X0006600Y0171242D02*
X0007088Y0171242D01*
X0007342Y0169644D02*
X0006600Y0169644D01*
X0006600Y0168045D02*
X0007595Y0168045D01*
X0007724Y0167227D02*
X0007724Y0167227D01*
X0008122Y0166447D02*
X0006600Y0166447D01*
X0006600Y0164848D02*
X0008936Y0164848D01*
X0009751Y0163250D02*
X0006600Y0163250D01*
X0006600Y0161651D02*
X0011276Y0161651D01*
X0012875Y0160053D02*
X0006600Y0160053D01*
X0013101Y0159827D02*
X0013101Y0159827D01*
X0061314Y0105703D02*
X0061857Y0105703D01*
X0059716Y0104105D02*
X0077100Y0104105D01*
X0077100Y0105703D02*
X0076743Y0105703D01*
X0076485Y0102506D02*
X0058117Y0102506D01*
X0056519Y0100908D02*
X0075358Y0100908D01*
X0075043Y0099309D02*
X0032420Y0099309D01*
X0031500Y0097711D02*
X0075350Y0097711D01*
X0076467Y0096112D02*
X0031500Y0096112D01*
X0031500Y0094514D02*
X0078902Y0094514D01*
X0077304Y0092915D02*
X0076725Y0092915D01*
X0071875Y0092915D02*
X0066725Y0092915D01*
X0068052Y0091317D02*
X0070548Y0091317D01*
X0070100Y0089718D02*
X0068500Y0089718D01*
X0068500Y0088120D02*
X0070100Y0088120D01*
X0070100Y0086521D02*
X0068500Y0086521D01*
X0068500Y0084923D02*
X0070100Y0084923D01*
X0070117Y0083324D02*
X0068483Y0083324D01*
X0067765Y0081726D02*
X0070835Y0081726D01*
X0077765Y0081726D02*
X0080835Y0081726D01*
X0080117Y0083324D02*
X0078483Y0083324D01*
X0078500Y0084923D02*
X0080100Y0084923D01*
X0080100Y0086521D02*
X0078500Y0086521D01*
X0078731Y0088120D02*
X0080100Y0088120D01*
X0071857Y0105703D02*
X0066743Y0105703D01*
X0068060Y0107302D02*
X0070540Y0107302D01*
X0070100Y0108900D02*
X0068500Y0108900D01*
X0082523Y0121688D02*
X0087100Y0121688D01*
X0087100Y0120090D02*
X0084121Y0120090D01*
X0085211Y0119000D02*
X0085211Y0119000D01*
X0085720Y0118491D02*
X0087100Y0118491D01*
X0087676Y0123287D02*
X0080924Y0123287D01*
X0061875Y0092915D02*
X0056725Y0092915D01*
X0058052Y0091317D02*
X0060548Y0091317D01*
X0060100Y0089718D02*
X0058500Y0089718D01*
X0058500Y0088120D02*
X0060100Y0088120D01*
X0060100Y0086521D02*
X0058500Y0086521D01*
X0058500Y0084923D02*
X0060100Y0084923D01*
X0060117Y0083324D02*
X0058483Y0083324D01*
X0057765Y0081726D02*
X0060835Y0081726D01*
X0050835Y0081726D02*
X0047941Y0081726D01*
X0048616Y0083324D02*
X0050117Y0083324D01*
X0050100Y0084923D02*
X0048700Y0084923D01*
X0048700Y0086521D02*
X0050100Y0086521D01*
X0050100Y0088120D02*
X0048700Y0088120D01*
X0048700Y0089718D02*
X0050100Y0089718D01*
X0050548Y0091317D02*
X0048262Y0091317D01*
X0046948Y0092915D02*
X0051875Y0092915D01*
X0044300Y0092915D02*
X0044300Y0092915D01*
X0044300Y0091317D02*
X0044300Y0091317D01*
X0044300Y0089718D02*
X0044300Y0089718D01*
X0044300Y0088120D02*
X0044300Y0088120D01*
X0044300Y0086521D02*
X0044300Y0086521D01*
X0044300Y0084923D02*
X0044300Y0084923D01*
X0044300Y0083324D02*
X0044300Y0083324D01*
X0044300Y0081726D02*
X0044300Y0081726D01*
X0040659Y0081726D02*
X0031500Y0081726D01*
X0031500Y0083324D02*
X0039984Y0083324D01*
X0039900Y0084923D02*
X0031500Y0084923D01*
X0031500Y0086521D02*
X0039900Y0086521D01*
X0039900Y0088120D02*
X0031500Y0088120D01*
X0031500Y0089718D02*
X0039900Y0089718D01*
X0040338Y0091317D02*
X0031500Y0091317D01*
X0031500Y0092915D02*
X0041652Y0092915D01*
X0027100Y0076930D02*
X0022892Y0076930D01*
X0023700Y0075332D02*
X0027100Y0075332D01*
X0027100Y0073733D02*
X0023700Y0073733D01*
X0023357Y0072134D02*
X0027100Y0072134D01*
X0047096Y0062543D02*
X0051504Y0062543D01*
X0050394Y0060945D02*
X0048206Y0060945D01*
X0048500Y0059346D02*
X0050100Y0059346D01*
X0050100Y0057748D02*
X0048500Y0057748D01*
X0048500Y0056149D02*
X0050100Y0056149D01*
X0050100Y0054551D02*
X0048500Y0054551D01*
X0048329Y0052952D02*
X0050271Y0052952D01*
X0051206Y0051354D02*
X0047394Y0051354D01*
X0052100Y0049755D02*
X0006600Y0049755D01*
X0006600Y0048157D02*
X0052332Y0048157D01*
X0053930Y0046558D02*
X0006600Y0046558D01*
X0006600Y0044960D02*
X0055529Y0044960D01*
X0057127Y0043361D02*
X0006600Y0043361D01*
X0006600Y0041763D02*
X0103652Y0041763D01*
X0105250Y0043361D02*
X0066473Y0043361D01*
X0068071Y0044960D02*
X0106849Y0044960D01*
X0108447Y0046558D02*
X0069670Y0046558D01*
X0071250Y0048157D02*
X0110046Y0048157D01*
X0102053Y0040164D02*
X0006600Y0040164D01*
X0006600Y0038566D02*
X0100454Y0038566D01*
X0098856Y0036967D02*
X0006600Y0036967D01*
X0006600Y0035369D02*
X0016232Y0035369D01*
X0013101Y0033773D02*
X0013101Y0033773D01*
X0013101Y0033773D01*
X0013098Y0033770D02*
X0006600Y0033770D01*
X0006600Y0032172D02*
X0011499Y0032172D01*
X0009901Y0030573D02*
X0006600Y0030573D01*
X0006600Y0028975D02*
X0009050Y0028975D01*
X0008235Y0027376D02*
X0006600Y0027376D01*
X0006600Y0025778D02*
X0007630Y0025778D01*
X0007377Y0024179D02*
X0006600Y0024179D01*
X0006600Y0022581D02*
X0007124Y0022581D01*
X0007130Y0020982D02*
X0006600Y0020982D01*
X0006600Y0019384D02*
X0007383Y0019384D01*
X0007636Y0017785D02*
X0006600Y0017785D01*
X0006600Y0016187D02*
X0008254Y0016187D01*
X0009069Y0014588D02*
X0006600Y0014588D01*
X0006600Y0012990D02*
X0009938Y0012990D01*
X0011536Y0011391D02*
X0006600Y0011391D01*
X0006600Y0009793D02*
X0013167Y0009793D01*
X0013101Y0009827D02*
X0013101Y0009827D01*
X0016305Y0008194D02*
X0006600Y0008194D01*
X0017227Y0007724D02*
X0017227Y0007724D01*
X0021800Y0007000D02*
X0021800Y0007000D01*
X0027295Y0008194D02*
X0166305Y0008194D01*
X0167227Y0007724D02*
X0167227Y0007724D01*
X0163167Y0009793D02*
X0030432Y0009793D01*
X0030499Y0009827D02*
X0030499Y0009827D01*
X0032064Y0011391D02*
X0161536Y0011391D01*
X0163101Y0009827D02*
X0163101Y0009827D01*
X0159938Y0012990D02*
X0033662Y0012990D01*
X0033773Y0013101D02*
X0033773Y0013101D01*
X0034531Y0014588D02*
X0070106Y0014588D01*
X0070891Y0014263D02*
X0072709Y0014263D01*
X0074388Y0014959D01*
X0075673Y0016244D01*
X0076368Y0017923D01*
X0076368Y0025677D01*
X0075673Y0027356D01*
X0074388Y0028641D01*
X0072709Y0029337D01*
X0070891Y0029337D01*
X0069212Y0028641D01*
X0067927Y0027356D01*
X0067231Y0025677D01*
X0067231Y0017923D01*
X0067927Y0016244D01*
X0069212Y0014959D01*
X0070891Y0014263D01*
X0073494Y0014588D02*
X0080106Y0014588D01*
X0077984Y0016187D02*
X0075616Y0016187D01*
X0076311Y0017785D02*
X0077288Y0017785D01*
X0077231Y0019384D02*
X0076368Y0019384D01*
X0076368Y0020982D02*
X0077231Y0020982D01*
X0077231Y0022581D02*
X0076368Y0022581D01*
X0076368Y0024179D02*
X0077231Y0024179D01*
X0077273Y0025778D02*
X0076327Y0025778D01*
X0075653Y0027376D02*
X0077947Y0027376D01*
X0080017Y0028975D02*
X0073583Y0028975D01*
X0067947Y0027376D02*
X0035365Y0027376D01*
X0035970Y0025778D02*
X0067273Y0025778D01*
X0067231Y0024179D02*
X0036223Y0024179D01*
X0036476Y0022581D02*
X0067231Y0022581D01*
X0067231Y0020982D02*
X0036470Y0020982D01*
X0036217Y0019384D02*
X0067231Y0019384D01*
X0067288Y0017785D02*
X0035964Y0017785D01*
X0035876Y0017227D02*
X0035876Y0017227D01*
X0035346Y0016187D02*
X0067984Y0016187D01*
X0094060Y0032172D02*
X0032101Y0032172D01*
X0030502Y0033770D02*
X0095659Y0033770D01*
X0097257Y0035369D02*
X0027368Y0035369D01*
X0026373Y0035876D02*
X0026373Y0035876D01*
X0021800Y0036600D02*
X0021800Y0036600D01*
X0030499Y0033773D02*
X0030499Y0033773D01*
X0056956Y0049755D02*
X0066644Y0049755D01*
X0065046Y0048157D02*
X0058554Y0048157D01*
X0060153Y0046558D02*
X0063447Y0046558D01*
X0061206Y0051354D02*
X0057394Y0051354D01*
X0058329Y0052952D02*
X0060271Y0052952D01*
X0060100Y0054551D02*
X0058500Y0054551D01*
X0058500Y0056149D02*
X0060100Y0056149D01*
X0060100Y0057748D02*
X0058500Y0057748D01*
X0058500Y0059346D02*
X0060100Y0059346D01*
X0060394Y0060945D02*
X0058206Y0060945D01*
X0057096Y0062543D02*
X0061504Y0062543D01*
X0083852Y0065740D02*
X0097629Y0065740D01*
X0099228Y0067339D02*
X0085450Y0067339D01*
X0087049Y0068937D02*
X0100826Y0068937D01*
X0115943Y0075332D02*
X0119600Y0075332D01*
X0119600Y0076930D02*
X0117541Y0076930D01*
X0119000Y0078529D02*
X0119600Y0078529D01*
X0119600Y0080127D02*
X0119000Y0080127D01*
X0119000Y0081726D02*
X0119600Y0081726D01*
X0119600Y0083324D02*
X0119000Y0083324D01*
X0119000Y0084923D02*
X0119600Y0084923D01*
X0119600Y0086521D02*
X0119000Y0086521D01*
X0119000Y0088120D02*
X0119600Y0088120D01*
X0119600Y0089718D02*
X0119000Y0089718D01*
X0119000Y0091317D02*
X0119600Y0091317D01*
X0119600Y0092915D02*
X0119000Y0092915D01*
X0119000Y0094514D02*
X0119600Y0094514D01*
X0119600Y0096112D02*
X0119000Y0096112D01*
X0119000Y0097711D02*
X0119600Y0097711D01*
X0119600Y0099309D02*
X0119000Y0099309D01*
X0119000Y0100908D02*
X0119600Y0100908D01*
X0119600Y0102506D02*
X0119000Y0102506D01*
X0119000Y0104105D02*
X0119600Y0104105D01*
X0119600Y0105703D02*
X0119000Y0105703D01*
X0119000Y0107302D02*
X0119600Y0107302D01*
X0119600Y0108900D02*
X0119000Y0108900D01*
X0119000Y0110499D02*
X0119600Y0110499D01*
X0119600Y0112097D02*
X0119000Y0112097D01*
X0119000Y0113696D02*
X0119600Y0113696D01*
X0119600Y0115294D02*
X0119000Y0115294D01*
X0119000Y0116893D02*
X0119600Y0116893D01*
X0119600Y0118491D02*
X0119000Y0118491D01*
X0119000Y0120090D02*
X0119600Y0120090D01*
X0119000Y0121688D02*
X0121077Y0121688D01*
X0122676Y0123287D02*
X0119000Y0123287D01*
X0119000Y0124885D02*
X0124274Y0124885D01*
X0125873Y0126484D02*
X0119595Y0126484D01*
X0131110Y0110499D02*
X0132402Y0110499D01*
X0129512Y0108900D02*
X0158289Y0108900D01*
X0164920Y0099309D02*
X0185701Y0099309D01*
X0185701Y0097711D02*
X0171929Y0097711D01*
X0173195Y0096112D02*
X0185701Y0096112D01*
X0185701Y0094514D02*
X0173600Y0094514D01*
X0173372Y0092915D02*
X0185701Y0092915D01*
X0185701Y0091317D02*
X0172356Y0091317D01*
X0171154Y0088120D02*
X0185701Y0088120D01*
X0185701Y0089718D02*
X0165329Y0089718D01*
X0160705Y0091317D02*
X0156928Y0091317D01*
X0158526Y0092915D02*
X0160228Y0092915D01*
X0159107Y0089718D02*
X0155329Y0089718D01*
X0154000Y0088120D02*
X0157508Y0088120D01*
X0155910Y0086521D02*
X0154000Y0086521D01*
X0154000Y0084923D02*
X0154600Y0084923D01*
X0154600Y0083324D02*
X0154000Y0083324D01*
X0154000Y0081726D02*
X0154600Y0081726D01*
X0154600Y0080127D02*
X0154000Y0080127D01*
X0154000Y0078529D02*
X0154600Y0078529D01*
X0154600Y0076930D02*
X0154000Y0076930D01*
X0154000Y0075332D02*
X0154600Y0075332D01*
X0154600Y0073733D02*
X0154000Y0073733D01*
X0154000Y0072134D02*
X0154600Y0072134D01*
X0154600Y0070536D02*
X0154000Y0070536D01*
X0154000Y0068937D02*
X0154600Y0068937D01*
X0154600Y0067339D02*
X0154000Y0067339D01*
X0154000Y0065740D02*
X0154600Y0065740D01*
X0154600Y0064142D02*
X0154000Y0064142D01*
X0154000Y0062543D02*
X0154600Y0062543D01*
X0154600Y0060945D02*
X0154000Y0060945D01*
X0154000Y0059346D02*
X0154600Y0059346D01*
X0154600Y0057748D02*
X0154000Y0057748D01*
X0154000Y0056149D02*
X0154600Y0056149D01*
X0154600Y0054551D02*
X0154000Y0054551D01*
X0154000Y0052952D02*
X0154600Y0052952D01*
X0154600Y0051354D02*
X0154000Y0051354D01*
X0154000Y0049755D02*
X0154600Y0049755D01*
X0154600Y0048157D02*
X0154000Y0048157D01*
X0154000Y0046558D02*
X0154600Y0046558D01*
X0154600Y0044960D02*
X0154000Y0044960D01*
X0153973Y0043361D02*
X0154600Y0043361D01*
X0154600Y0041763D02*
X0152374Y0041763D01*
X0150776Y0040164D02*
X0154553Y0040164D01*
X0152954Y0038566D02*
X0149177Y0038566D01*
X0147579Y0036967D02*
X0151356Y0036967D01*
X0149757Y0035369D02*
X0145980Y0035369D01*
X0156389Y0025778D02*
X0157630Y0025778D01*
X0157724Y0026373D02*
X0157724Y0026373D01*
X0157813Y0027376D02*
X0158235Y0027376D01*
X0157377Y0024179D02*
X0127290Y0024179D01*
X0126368Y0022581D02*
X0157124Y0022581D01*
X0157130Y0020982D02*
X0126368Y0020982D01*
X0126368Y0019384D02*
X0157383Y0019384D01*
X0157636Y0017785D02*
X0126311Y0017785D01*
X0125616Y0016187D02*
X0158254Y0016187D01*
X0157724Y0017227D02*
X0157724Y0017227D01*
X0159069Y0014588D02*
X0123494Y0014588D01*
X0120106Y0014588D02*
X0113494Y0014588D01*
X0115616Y0016187D02*
X0117984Y0016187D01*
X0117288Y0017785D02*
X0116311Y0017785D01*
X0116368Y0019384D02*
X0117231Y0019384D01*
X0117231Y0020982D02*
X0116368Y0020982D01*
X0116368Y0022581D02*
X0117231Y0022581D01*
X0117231Y0024179D02*
X0116368Y0024179D01*
X0116389Y0025778D02*
X0117273Y0025778D01*
X0114962Y0030573D02*
X0108684Y0030573D01*
X0110017Y0028975D02*
X0107086Y0028975D01*
X0107947Y0027376D02*
X0105653Y0027376D01*
X0106327Y0025778D02*
X0107273Y0025778D01*
X0107231Y0024179D02*
X0106368Y0024179D01*
X0106368Y0022581D02*
X0107231Y0022581D01*
X0107231Y0020982D02*
X0106368Y0020982D01*
X0106368Y0019384D02*
X0107231Y0019384D01*
X0107288Y0017785D02*
X0106311Y0017785D01*
X0105616Y0016187D02*
X0107984Y0016187D01*
X0110106Y0014588D02*
X0103494Y0014588D01*
X0110283Y0032172D02*
X0116560Y0032172D01*
X0117100Y0032711D02*
X0117100Y0032711D01*
X0118159Y0033770D02*
X0111881Y0033770D01*
X0121147Y0070536D02*
X0122425Y0070536D01*
X0122746Y0072134D02*
X0124023Y0072134D01*
X0124000Y0073733D02*
X0124600Y0073733D01*
X0124600Y0075332D02*
X0124000Y0075332D01*
X0124000Y0076930D02*
X0124600Y0076930D01*
X0129000Y0091317D02*
X0131244Y0091317D01*
X0130228Y0092915D02*
X0129000Y0092915D01*
X0129000Y0094514D02*
X0130000Y0094514D01*
X0130405Y0096112D02*
X0129000Y0096112D01*
X0129000Y0097711D02*
X0131671Y0097711D01*
X0129000Y0099309D02*
X0148698Y0099309D01*
X0144600Y0088120D02*
X0141154Y0088120D01*
X0143026Y0086521D02*
X0144600Y0086521D01*
X0144600Y0084923D02*
X0143600Y0084923D01*
X0143542Y0083324D02*
X0144600Y0083324D01*
X0144600Y0081726D02*
X0142765Y0081726D01*
X0144600Y0080127D02*
X0140301Y0080127D01*
X0131653Y0100908D02*
X0129000Y0100908D01*
X0129000Y0102506D02*
X0130397Y0102506D01*
X0130000Y0104105D02*
X0129000Y0104105D01*
X0129000Y0105703D02*
X0130235Y0105703D01*
X0131262Y0107302D02*
X0129000Y0107302D01*
X0171947Y0100908D02*
X0185701Y0100908D01*
X0185701Y0102506D02*
X0173203Y0102506D01*
X0173600Y0104105D02*
X0185701Y0104105D01*
X0185701Y0105703D02*
X0173365Y0105703D01*
X0172338Y0107302D02*
X0185701Y0107302D01*
X0185701Y0086521D02*
X0173026Y0086521D01*
X0179289Y0084923D02*
X0185701Y0084923D01*
X0185701Y0083324D02*
X0180887Y0083324D01*
X0182486Y0081726D02*
X0185701Y0081726D01*
X0185701Y0080127D02*
X0184000Y0080127D01*
X0184000Y0078529D02*
X0185701Y0078529D01*
X0185701Y0076930D02*
X0184000Y0076930D01*
X0184000Y0075332D02*
X0185701Y0075332D01*
X0185701Y0073733D02*
X0184000Y0073733D01*
X0184000Y0072134D02*
X0185701Y0072134D01*
X0185701Y0070536D02*
X0184000Y0070536D01*
X0184000Y0068937D02*
X0185701Y0068937D01*
X0185701Y0067339D02*
X0184000Y0067339D01*
X0184000Y0065740D02*
X0185701Y0065740D01*
X0185701Y0064142D02*
X0184000Y0064142D01*
X0184000Y0062543D02*
X0185701Y0062543D01*
X0185701Y0060945D02*
X0184000Y0060945D01*
X0184000Y0059346D02*
X0185701Y0059346D01*
X0185701Y0057748D02*
X0184000Y0057748D01*
X0184030Y0056149D02*
X0185701Y0056149D01*
X0185701Y0054551D02*
X0182723Y0054551D01*
X0181257Y0052952D02*
X0185701Y0052952D01*
X0185701Y0051354D02*
X0179792Y0051354D01*
X0178327Y0049755D02*
X0185701Y0049755D01*
X0185701Y0048157D02*
X0176862Y0048157D01*
X0175396Y0046558D02*
X0185701Y0046558D01*
X0185701Y0044960D02*
X0173931Y0044960D01*
X0172466Y0043361D02*
X0185701Y0043361D01*
X0185701Y0041763D02*
X0171000Y0041763D01*
X0169535Y0040164D02*
X0185701Y0040164D01*
X0185701Y0038566D02*
X0168070Y0038566D01*
X0166604Y0036967D02*
X0185701Y0036967D01*
X0185701Y0035369D02*
X0177368Y0035369D01*
X0176373Y0035876D02*
X0176373Y0035876D01*
X0180499Y0033773D02*
X0180499Y0033773D01*
X0180502Y0033770D02*
X0185701Y0033770D01*
X0185701Y0032172D02*
X0182101Y0032172D01*
X0183699Y0030573D02*
X0185701Y0030573D01*
X0185701Y0028975D02*
X0184550Y0028975D01*
X0183773Y0030499D02*
X0183773Y0030499D01*
X0185365Y0027376D02*
X0185701Y0027376D01*
X0185701Y0016187D02*
X0185346Y0016187D01*
X0185701Y0014588D02*
X0184531Y0014588D01*
X0183773Y0013101D02*
X0183773Y0013101D01*
X0183662Y0012990D02*
X0185701Y0012990D01*
X0185701Y0011391D02*
X0182064Y0011391D01*
X0180499Y0009827D02*
X0180499Y0009827D01*
X0180432Y0009793D02*
X0185701Y0009793D01*
X0185701Y0008194D02*
X0177295Y0008194D01*
X0171800Y0007000D02*
X0171800Y0007000D01*
X0166232Y0035369D02*
X0165139Y0035369D01*
X0171800Y0036600D02*
X0171800Y0036600D01*
D16*
X0156800Y0039300D02*
X0156800Y0084300D01*
X0166800Y0094300D01*
X0166800Y0084300D02*
X0176800Y0084300D01*
X0181800Y0079300D01*
X0181800Y0056800D01*
X0154300Y0026800D01*
X0126800Y0026800D01*
X0121800Y0021800D01*
X0111800Y0021800D02*
X0111800Y0024300D01*
X0119300Y0031800D01*
X0149300Y0031800D01*
X0156800Y0039300D01*
X0151800Y0044300D02*
X0151800Y0089300D01*
X0166800Y0104300D01*
X0166800Y0114300D02*
X0146800Y0094300D01*
X0146800Y0051800D01*
X0141800Y0046800D01*
X0111800Y0046800D01*
X0091800Y0026800D01*
X0091800Y0021800D01*
X0101800Y0021800D02*
X0101800Y0026800D01*
X0111800Y0036800D01*
X0144300Y0036800D01*
X0151800Y0044300D01*
X0126800Y0071800D02*
X0126800Y0109300D01*
X0131800Y0114300D01*
X0136800Y0114300D01*
X0136800Y0124300D02*
X0126800Y0124300D01*
X0121800Y0119300D01*
X0121800Y0074300D01*
X0119300Y0071800D01*
X0086800Y0071800D01*
X0074300Y0059300D01*
X0074300Y0056800D01*
X0069050Y0060307D02*
X0069050Y0049050D01*
X0064300Y0044300D01*
X0059300Y0044300D01*
X0054300Y0049300D01*
X0054300Y0056800D01*
X0064300Y0056800D02*
X0064300Y0059300D01*
X0081800Y0076800D01*
X0086800Y0076800D01*
X0089300Y0079300D01*
X0089300Y0099300D01*
X0094300Y0104300D01*
X0094300Y0111800D01*
X0089300Y0104300D02*
X0086800Y0101800D01*
X0086800Y0099300D01*
X0074300Y0086800D01*
X0083543Y0074800D02*
X0069050Y0060307D01*
X0083543Y0074800D02*
X0092628Y0074800D01*
X0094628Y0076800D01*
X0114300Y0076800D01*
X0116800Y0079300D01*
X0116800Y0126800D01*
X0124300Y0134300D01*
X0136800Y0134300D01*
X0111800Y0156800D02*
X0109300Y0154300D01*
X0096800Y0154300D01*
X0094300Y0151800D01*
X0094300Y0141800D01*
X0086800Y0134300D01*
X0059300Y0134300D01*
X0054300Y0139300D01*
X0054300Y0141800D01*
X0064300Y0141800D02*
X0064300Y0149300D01*
X0069300Y0154300D01*
X0089300Y0154300D01*
X0101800Y0166800D01*
X0101800Y0171800D01*
X0111800Y0171800D02*
X0111800Y0156800D01*
X0104300Y0141800D02*
X0104300Y0136800D01*
X0089300Y0121800D01*
X0089300Y0104300D01*
X0084300Y0111800D02*
X0079300Y0106800D01*
X0079300Y0099300D01*
X0074300Y0111800D02*
X0064300Y0111800D01*
X0054300Y0101800D01*
X0031800Y0101800D01*
X0029300Y0099300D01*
X0029300Y0061800D01*
X0034300Y0056800D01*
X0044300Y0056800D01*
X0094300Y0056800D02*
X0094300Y0059300D01*
X0101800Y0066800D01*
X0121800Y0066800D01*
X0126800Y0071800D01*
X0099300Y0094300D02*
X0099300Y0124300D01*
X0084300Y0116800D02*
X0084300Y0111800D01*
X0084300Y0116800D02*
X0079300Y0121800D01*
X0061800Y0121800D01*
X0054300Y0114300D01*
X0054300Y0111800D01*
X0044300Y0111800D02*
X0039300Y0111800D01*
X0031800Y0119300D01*
X0031800Y0156800D01*
X0059300Y0184300D01*
X0074300Y0184300D01*
X0081800Y0176800D01*
X0081800Y0171800D01*
X0084300Y0141800D02*
X0074300Y0141800D01*
X0099300Y0094300D02*
X0094300Y0089300D01*
X0094300Y0086800D01*
D17*
X0079300Y0099300D03*
X0099300Y0124300D03*
M02*
