G75*
%MOIN*%
%OFA0B0*%
%FSLAX25Y25*%
%IPPOS*%
%LPD*%
%AMOC8*
5,1,8,0,0,1.08239X$1,22.5*
%
%ADD10C,0.00000*%
%ADD11C,0.00200*%
D10*
X0001800Y0001800D02*
X0001800Y0191761D01*
X0190501Y0191761D01*
X0190501Y0001800D01*
X0001800Y0001800D01*
X0016288Y0021800D02*
X0016290Y0021948D01*
X0016296Y0022096D01*
X0016306Y0022244D01*
X0016320Y0022391D01*
X0016338Y0022538D01*
X0016359Y0022684D01*
X0016385Y0022830D01*
X0016415Y0022975D01*
X0016448Y0023119D01*
X0016486Y0023262D01*
X0016527Y0023404D01*
X0016572Y0023545D01*
X0016620Y0023685D01*
X0016673Y0023824D01*
X0016729Y0023961D01*
X0016789Y0024096D01*
X0016852Y0024230D01*
X0016919Y0024362D01*
X0016990Y0024492D01*
X0017064Y0024620D01*
X0017141Y0024746D01*
X0017222Y0024870D01*
X0017306Y0024992D01*
X0017393Y0025111D01*
X0017484Y0025228D01*
X0017578Y0025343D01*
X0017674Y0025455D01*
X0017774Y0025565D01*
X0017876Y0025671D01*
X0017982Y0025775D01*
X0018090Y0025876D01*
X0018201Y0025974D01*
X0018314Y0026070D01*
X0018430Y0026162D01*
X0018548Y0026251D01*
X0018669Y0026336D01*
X0018792Y0026419D01*
X0018917Y0026498D01*
X0019044Y0026574D01*
X0019173Y0026646D01*
X0019304Y0026715D01*
X0019437Y0026780D01*
X0019572Y0026841D01*
X0019708Y0026899D01*
X0019845Y0026954D01*
X0019984Y0027004D01*
X0020125Y0027051D01*
X0020266Y0027094D01*
X0020409Y0027134D01*
X0020553Y0027169D01*
X0020697Y0027201D01*
X0020843Y0027228D01*
X0020989Y0027252D01*
X0021136Y0027272D01*
X0021283Y0027288D01*
X0021430Y0027300D01*
X0021578Y0027308D01*
X0021726Y0027312D01*
X0021874Y0027312D01*
X0022022Y0027308D01*
X0022170Y0027300D01*
X0022317Y0027288D01*
X0022464Y0027272D01*
X0022611Y0027252D01*
X0022757Y0027228D01*
X0022903Y0027201D01*
X0023047Y0027169D01*
X0023191Y0027134D01*
X0023334Y0027094D01*
X0023475Y0027051D01*
X0023616Y0027004D01*
X0023755Y0026954D01*
X0023892Y0026899D01*
X0024028Y0026841D01*
X0024163Y0026780D01*
X0024296Y0026715D01*
X0024427Y0026646D01*
X0024556Y0026574D01*
X0024683Y0026498D01*
X0024808Y0026419D01*
X0024931Y0026336D01*
X0025052Y0026251D01*
X0025170Y0026162D01*
X0025286Y0026070D01*
X0025399Y0025974D01*
X0025510Y0025876D01*
X0025618Y0025775D01*
X0025724Y0025671D01*
X0025826Y0025565D01*
X0025926Y0025455D01*
X0026022Y0025343D01*
X0026116Y0025228D01*
X0026207Y0025111D01*
X0026294Y0024992D01*
X0026378Y0024870D01*
X0026459Y0024746D01*
X0026536Y0024620D01*
X0026610Y0024492D01*
X0026681Y0024362D01*
X0026748Y0024230D01*
X0026811Y0024096D01*
X0026871Y0023961D01*
X0026927Y0023824D01*
X0026980Y0023685D01*
X0027028Y0023545D01*
X0027073Y0023404D01*
X0027114Y0023262D01*
X0027152Y0023119D01*
X0027185Y0022975D01*
X0027215Y0022830D01*
X0027241Y0022684D01*
X0027262Y0022538D01*
X0027280Y0022391D01*
X0027294Y0022244D01*
X0027304Y0022096D01*
X0027310Y0021948D01*
X0027312Y0021800D01*
X0027310Y0021652D01*
X0027304Y0021504D01*
X0027294Y0021356D01*
X0027280Y0021209D01*
X0027262Y0021062D01*
X0027241Y0020916D01*
X0027215Y0020770D01*
X0027185Y0020625D01*
X0027152Y0020481D01*
X0027114Y0020338D01*
X0027073Y0020196D01*
X0027028Y0020055D01*
X0026980Y0019915D01*
X0026927Y0019776D01*
X0026871Y0019639D01*
X0026811Y0019504D01*
X0026748Y0019370D01*
X0026681Y0019238D01*
X0026610Y0019108D01*
X0026536Y0018980D01*
X0026459Y0018854D01*
X0026378Y0018730D01*
X0026294Y0018608D01*
X0026207Y0018489D01*
X0026116Y0018372D01*
X0026022Y0018257D01*
X0025926Y0018145D01*
X0025826Y0018035D01*
X0025724Y0017929D01*
X0025618Y0017825D01*
X0025510Y0017724D01*
X0025399Y0017626D01*
X0025286Y0017530D01*
X0025170Y0017438D01*
X0025052Y0017349D01*
X0024931Y0017264D01*
X0024808Y0017181D01*
X0024683Y0017102D01*
X0024556Y0017026D01*
X0024427Y0016954D01*
X0024296Y0016885D01*
X0024163Y0016820D01*
X0024028Y0016759D01*
X0023892Y0016701D01*
X0023755Y0016646D01*
X0023616Y0016596D01*
X0023475Y0016549D01*
X0023334Y0016506D01*
X0023191Y0016466D01*
X0023047Y0016431D01*
X0022903Y0016399D01*
X0022757Y0016372D01*
X0022611Y0016348D01*
X0022464Y0016328D01*
X0022317Y0016312D01*
X0022170Y0016300D01*
X0022022Y0016292D01*
X0021874Y0016288D01*
X0021726Y0016288D01*
X0021578Y0016292D01*
X0021430Y0016300D01*
X0021283Y0016312D01*
X0021136Y0016328D01*
X0020989Y0016348D01*
X0020843Y0016372D01*
X0020697Y0016399D01*
X0020553Y0016431D01*
X0020409Y0016466D01*
X0020266Y0016506D01*
X0020125Y0016549D01*
X0019984Y0016596D01*
X0019845Y0016646D01*
X0019708Y0016701D01*
X0019572Y0016759D01*
X0019437Y0016820D01*
X0019304Y0016885D01*
X0019173Y0016954D01*
X0019044Y0017026D01*
X0018917Y0017102D01*
X0018792Y0017181D01*
X0018669Y0017264D01*
X0018548Y0017349D01*
X0018430Y0017438D01*
X0018314Y0017530D01*
X0018201Y0017626D01*
X0018090Y0017724D01*
X0017982Y0017825D01*
X0017876Y0017929D01*
X0017774Y0018035D01*
X0017674Y0018145D01*
X0017578Y0018257D01*
X0017484Y0018372D01*
X0017393Y0018489D01*
X0017306Y0018608D01*
X0017222Y0018730D01*
X0017141Y0018854D01*
X0017064Y0018980D01*
X0016990Y0019108D01*
X0016919Y0019238D01*
X0016852Y0019370D01*
X0016789Y0019504D01*
X0016729Y0019639D01*
X0016673Y0019776D01*
X0016620Y0019915D01*
X0016572Y0020055D01*
X0016527Y0020196D01*
X0016486Y0020338D01*
X0016448Y0020481D01*
X0016415Y0020625D01*
X0016385Y0020770D01*
X0016359Y0020916D01*
X0016338Y0021062D01*
X0016320Y0021209D01*
X0016306Y0021356D01*
X0016296Y0021504D01*
X0016290Y0021652D01*
X0016288Y0021800D01*
X0016288Y0171800D02*
X0016290Y0171948D01*
X0016296Y0172096D01*
X0016306Y0172244D01*
X0016320Y0172391D01*
X0016338Y0172538D01*
X0016359Y0172684D01*
X0016385Y0172830D01*
X0016415Y0172975D01*
X0016448Y0173119D01*
X0016486Y0173262D01*
X0016527Y0173404D01*
X0016572Y0173545D01*
X0016620Y0173685D01*
X0016673Y0173824D01*
X0016729Y0173961D01*
X0016789Y0174096D01*
X0016852Y0174230D01*
X0016919Y0174362D01*
X0016990Y0174492D01*
X0017064Y0174620D01*
X0017141Y0174746D01*
X0017222Y0174870D01*
X0017306Y0174992D01*
X0017393Y0175111D01*
X0017484Y0175228D01*
X0017578Y0175343D01*
X0017674Y0175455D01*
X0017774Y0175565D01*
X0017876Y0175671D01*
X0017982Y0175775D01*
X0018090Y0175876D01*
X0018201Y0175974D01*
X0018314Y0176070D01*
X0018430Y0176162D01*
X0018548Y0176251D01*
X0018669Y0176336D01*
X0018792Y0176419D01*
X0018917Y0176498D01*
X0019044Y0176574D01*
X0019173Y0176646D01*
X0019304Y0176715D01*
X0019437Y0176780D01*
X0019572Y0176841D01*
X0019708Y0176899D01*
X0019845Y0176954D01*
X0019984Y0177004D01*
X0020125Y0177051D01*
X0020266Y0177094D01*
X0020409Y0177134D01*
X0020553Y0177169D01*
X0020697Y0177201D01*
X0020843Y0177228D01*
X0020989Y0177252D01*
X0021136Y0177272D01*
X0021283Y0177288D01*
X0021430Y0177300D01*
X0021578Y0177308D01*
X0021726Y0177312D01*
X0021874Y0177312D01*
X0022022Y0177308D01*
X0022170Y0177300D01*
X0022317Y0177288D01*
X0022464Y0177272D01*
X0022611Y0177252D01*
X0022757Y0177228D01*
X0022903Y0177201D01*
X0023047Y0177169D01*
X0023191Y0177134D01*
X0023334Y0177094D01*
X0023475Y0177051D01*
X0023616Y0177004D01*
X0023755Y0176954D01*
X0023892Y0176899D01*
X0024028Y0176841D01*
X0024163Y0176780D01*
X0024296Y0176715D01*
X0024427Y0176646D01*
X0024556Y0176574D01*
X0024683Y0176498D01*
X0024808Y0176419D01*
X0024931Y0176336D01*
X0025052Y0176251D01*
X0025170Y0176162D01*
X0025286Y0176070D01*
X0025399Y0175974D01*
X0025510Y0175876D01*
X0025618Y0175775D01*
X0025724Y0175671D01*
X0025826Y0175565D01*
X0025926Y0175455D01*
X0026022Y0175343D01*
X0026116Y0175228D01*
X0026207Y0175111D01*
X0026294Y0174992D01*
X0026378Y0174870D01*
X0026459Y0174746D01*
X0026536Y0174620D01*
X0026610Y0174492D01*
X0026681Y0174362D01*
X0026748Y0174230D01*
X0026811Y0174096D01*
X0026871Y0173961D01*
X0026927Y0173824D01*
X0026980Y0173685D01*
X0027028Y0173545D01*
X0027073Y0173404D01*
X0027114Y0173262D01*
X0027152Y0173119D01*
X0027185Y0172975D01*
X0027215Y0172830D01*
X0027241Y0172684D01*
X0027262Y0172538D01*
X0027280Y0172391D01*
X0027294Y0172244D01*
X0027304Y0172096D01*
X0027310Y0171948D01*
X0027312Y0171800D01*
X0027310Y0171652D01*
X0027304Y0171504D01*
X0027294Y0171356D01*
X0027280Y0171209D01*
X0027262Y0171062D01*
X0027241Y0170916D01*
X0027215Y0170770D01*
X0027185Y0170625D01*
X0027152Y0170481D01*
X0027114Y0170338D01*
X0027073Y0170196D01*
X0027028Y0170055D01*
X0026980Y0169915D01*
X0026927Y0169776D01*
X0026871Y0169639D01*
X0026811Y0169504D01*
X0026748Y0169370D01*
X0026681Y0169238D01*
X0026610Y0169108D01*
X0026536Y0168980D01*
X0026459Y0168854D01*
X0026378Y0168730D01*
X0026294Y0168608D01*
X0026207Y0168489D01*
X0026116Y0168372D01*
X0026022Y0168257D01*
X0025926Y0168145D01*
X0025826Y0168035D01*
X0025724Y0167929D01*
X0025618Y0167825D01*
X0025510Y0167724D01*
X0025399Y0167626D01*
X0025286Y0167530D01*
X0025170Y0167438D01*
X0025052Y0167349D01*
X0024931Y0167264D01*
X0024808Y0167181D01*
X0024683Y0167102D01*
X0024556Y0167026D01*
X0024427Y0166954D01*
X0024296Y0166885D01*
X0024163Y0166820D01*
X0024028Y0166759D01*
X0023892Y0166701D01*
X0023755Y0166646D01*
X0023616Y0166596D01*
X0023475Y0166549D01*
X0023334Y0166506D01*
X0023191Y0166466D01*
X0023047Y0166431D01*
X0022903Y0166399D01*
X0022757Y0166372D01*
X0022611Y0166348D01*
X0022464Y0166328D01*
X0022317Y0166312D01*
X0022170Y0166300D01*
X0022022Y0166292D01*
X0021874Y0166288D01*
X0021726Y0166288D01*
X0021578Y0166292D01*
X0021430Y0166300D01*
X0021283Y0166312D01*
X0021136Y0166328D01*
X0020989Y0166348D01*
X0020843Y0166372D01*
X0020697Y0166399D01*
X0020553Y0166431D01*
X0020409Y0166466D01*
X0020266Y0166506D01*
X0020125Y0166549D01*
X0019984Y0166596D01*
X0019845Y0166646D01*
X0019708Y0166701D01*
X0019572Y0166759D01*
X0019437Y0166820D01*
X0019304Y0166885D01*
X0019173Y0166954D01*
X0019044Y0167026D01*
X0018917Y0167102D01*
X0018792Y0167181D01*
X0018669Y0167264D01*
X0018548Y0167349D01*
X0018430Y0167438D01*
X0018314Y0167530D01*
X0018201Y0167626D01*
X0018090Y0167724D01*
X0017982Y0167825D01*
X0017876Y0167929D01*
X0017774Y0168035D01*
X0017674Y0168145D01*
X0017578Y0168257D01*
X0017484Y0168372D01*
X0017393Y0168489D01*
X0017306Y0168608D01*
X0017222Y0168730D01*
X0017141Y0168854D01*
X0017064Y0168980D01*
X0016990Y0169108D01*
X0016919Y0169238D01*
X0016852Y0169370D01*
X0016789Y0169504D01*
X0016729Y0169639D01*
X0016673Y0169776D01*
X0016620Y0169915D01*
X0016572Y0170055D01*
X0016527Y0170196D01*
X0016486Y0170338D01*
X0016448Y0170481D01*
X0016415Y0170625D01*
X0016385Y0170770D01*
X0016359Y0170916D01*
X0016338Y0171062D01*
X0016320Y0171209D01*
X0016306Y0171356D01*
X0016296Y0171504D01*
X0016290Y0171652D01*
X0016288Y0171800D01*
X0166288Y0171800D02*
X0166290Y0171948D01*
X0166296Y0172096D01*
X0166306Y0172244D01*
X0166320Y0172391D01*
X0166338Y0172538D01*
X0166359Y0172684D01*
X0166385Y0172830D01*
X0166415Y0172975D01*
X0166448Y0173119D01*
X0166486Y0173262D01*
X0166527Y0173404D01*
X0166572Y0173545D01*
X0166620Y0173685D01*
X0166673Y0173824D01*
X0166729Y0173961D01*
X0166789Y0174096D01*
X0166852Y0174230D01*
X0166919Y0174362D01*
X0166990Y0174492D01*
X0167064Y0174620D01*
X0167141Y0174746D01*
X0167222Y0174870D01*
X0167306Y0174992D01*
X0167393Y0175111D01*
X0167484Y0175228D01*
X0167578Y0175343D01*
X0167674Y0175455D01*
X0167774Y0175565D01*
X0167876Y0175671D01*
X0167982Y0175775D01*
X0168090Y0175876D01*
X0168201Y0175974D01*
X0168314Y0176070D01*
X0168430Y0176162D01*
X0168548Y0176251D01*
X0168669Y0176336D01*
X0168792Y0176419D01*
X0168917Y0176498D01*
X0169044Y0176574D01*
X0169173Y0176646D01*
X0169304Y0176715D01*
X0169437Y0176780D01*
X0169572Y0176841D01*
X0169708Y0176899D01*
X0169845Y0176954D01*
X0169984Y0177004D01*
X0170125Y0177051D01*
X0170266Y0177094D01*
X0170409Y0177134D01*
X0170553Y0177169D01*
X0170697Y0177201D01*
X0170843Y0177228D01*
X0170989Y0177252D01*
X0171136Y0177272D01*
X0171283Y0177288D01*
X0171430Y0177300D01*
X0171578Y0177308D01*
X0171726Y0177312D01*
X0171874Y0177312D01*
X0172022Y0177308D01*
X0172170Y0177300D01*
X0172317Y0177288D01*
X0172464Y0177272D01*
X0172611Y0177252D01*
X0172757Y0177228D01*
X0172903Y0177201D01*
X0173047Y0177169D01*
X0173191Y0177134D01*
X0173334Y0177094D01*
X0173475Y0177051D01*
X0173616Y0177004D01*
X0173755Y0176954D01*
X0173892Y0176899D01*
X0174028Y0176841D01*
X0174163Y0176780D01*
X0174296Y0176715D01*
X0174427Y0176646D01*
X0174556Y0176574D01*
X0174683Y0176498D01*
X0174808Y0176419D01*
X0174931Y0176336D01*
X0175052Y0176251D01*
X0175170Y0176162D01*
X0175286Y0176070D01*
X0175399Y0175974D01*
X0175510Y0175876D01*
X0175618Y0175775D01*
X0175724Y0175671D01*
X0175826Y0175565D01*
X0175926Y0175455D01*
X0176022Y0175343D01*
X0176116Y0175228D01*
X0176207Y0175111D01*
X0176294Y0174992D01*
X0176378Y0174870D01*
X0176459Y0174746D01*
X0176536Y0174620D01*
X0176610Y0174492D01*
X0176681Y0174362D01*
X0176748Y0174230D01*
X0176811Y0174096D01*
X0176871Y0173961D01*
X0176927Y0173824D01*
X0176980Y0173685D01*
X0177028Y0173545D01*
X0177073Y0173404D01*
X0177114Y0173262D01*
X0177152Y0173119D01*
X0177185Y0172975D01*
X0177215Y0172830D01*
X0177241Y0172684D01*
X0177262Y0172538D01*
X0177280Y0172391D01*
X0177294Y0172244D01*
X0177304Y0172096D01*
X0177310Y0171948D01*
X0177312Y0171800D01*
X0177310Y0171652D01*
X0177304Y0171504D01*
X0177294Y0171356D01*
X0177280Y0171209D01*
X0177262Y0171062D01*
X0177241Y0170916D01*
X0177215Y0170770D01*
X0177185Y0170625D01*
X0177152Y0170481D01*
X0177114Y0170338D01*
X0177073Y0170196D01*
X0177028Y0170055D01*
X0176980Y0169915D01*
X0176927Y0169776D01*
X0176871Y0169639D01*
X0176811Y0169504D01*
X0176748Y0169370D01*
X0176681Y0169238D01*
X0176610Y0169108D01*
X0176536Y0168980D01*
X0176459Y0168854D01*
X0176378Y0168730D01*
X0176294Y0168608D01*
X0176207Y0168489D01*
X0176116Y0168372D01*
X0176022Y0168257D01*
X0175926Y0168145D01*
X0175826Y0168035D01*
X0175724Y0167929D01*
X0175618Y0167825D01*
X0175510Y0167724D01*
X0175399Y0167626D01*
X0175286Y0167530D01*
X0175170Y0167438D01*
X0175052Y0167349D01*
X0174931Y0167264D01*
X0174808Y0167181D01*
X0174683Y0167102D01*
X0174556Y0167026D01*
X0174427Y0166954D01*
X0174296Y0166885D01*
X0174163Y0166820D01*
X0174028Y0166759D01*
X0173892Y0166701D01*
X0173755Y0166646D01*
X0173616Y0166596D01*
X0173475Y0166549D01*
X0173334Y0166506D01*
X0173191Y0166466D01*
X0173047Y0166431D01*
X0172903Y0166399D01*
X0172757Y0166372D01*
X0172611Y0166348D01*
X0172464Y0166328D01*
X0172317Y0166312D01*
X0172170Y0166300D01*
X0172022Y0166292D01*
X0171874Y0166288D01*
X0171726Y0166288D01*
X0171578Y0166292D01*
X0171430Y0166300D01*
X0171283Y0166312D01*
X0171136Y0166328D01*
X0170989Y0166348D01*
X0170843Y0166372D01*
X0170697Y0166399D01*
X0170553Y0166431D01*
X0170409Y0166466D01*
X0170266Y0166506D01*
X0170125Y0166549D01*
X0169984Y0166596D01*
X0169845Y0166646D01*
X0169708Y0166701D01*
X0169572Y0166759D01*
X0169437Y0166820D01*
X0169304Y0166885D01*
X0169173Y0166954D01*
X0169044Y0167026D01*
X0168917Y0167102D01*
X0168792Y0167181D01*
X0168669Y0167264D01*
X0168548Y0167349D01*
X0168430Y0167438D01*
X0168314Y0167530D01*
X0168201Y0167626D01*
X0168090Y0167724D01*
X0167982Y0167825D01*
X0167876Y0167929D01*
X0167774Y0168035D01*
X0167674Y0168145D01*
X0167578Y0168257D01*
X0167484Y0168372D01*
X0167393Y0168489D01*
X0167306Y0168608D01*
X0167222Y0168730D01*
X0167141Y0168854D01*
X0167064Y0168980D01*
X0166990Y0169108D01*
X0166919Y0169238D01*
X0166852Y0169370D01*
X0166789Y0169504D01*
X0166729Y0169639D01*
X0166673Y0169776D01*
X0166620Y0169915D01*
X0166572Y0170055D01*
X0166527Y0170196D01*
X0166486Y0170338D01*
X0166448Y0170481D01*
X0166415Y0170625D01*
X0166385Y0170770D01*
X0166359Y0170916D01*
X0166338Y0171062D01*
X0166320Y0171209D01*
X0166306Y0171356D01*
X0166296Y0171504D01*
X0166290Y0171652D01*
X0166288Y0171800D01*
X0166288Y0021800D02*
X0166290Y0021948D01*
X0166296Y0022096D01*
X0166306Y0022244D01*
X0166320Y0022391D01*
X0166338Y0022538D01*
X0166359Y0022684D01*
X0166385Y0022830D01*
X0166415Y0022975D01*
X0166448Y0023119D01*
X0166486Y0023262D01*
X0166527Y0023404D01*
X0166572Y0023545D01*
X0166620Y0023685D01*
X0166673Y0023824D01*
X0166729Y0023961D01*
X0166789Y0024096D01*
X0166852Y0024230D01*
X0166919Y0024362D01*
X0166990Y0024492D01*
X0167064Y0024620D01*
X0167141Y0024746D01*
X0167222Y0024870D01*
X0167306Y0024992D01*
X0167393Y0025111D01*
X0167484Y0025228D01*
X0167578Y0025343D01*
X0167674Y0025455D01*
X0167774Y0025565D01*
X0167876Y0025671D01*
X0167982Y0025775D01*
X0168090Y0025876D01*
X0168201Y0025974D01*
X0168314Y0026070D01*
X0168430Y0026162D01*
X0168548Y0026251D01*
X0168669Y0026336D01*
X0168792Y0026419D01*
X0168917Y0026498D01*
X0169044Y0026574D01*
X0169173Y0026646D01*
X0169304Y0026715D01*
X0169437Y0026780D01*
X0169572Y0026841D01*
X0169708Y0026899D01*
X0169845Y0026954D01*
X0169984Y0027004D01*
X0170125Y0027051D01*
X0170266Y0027094D01*
X0170409Y0027134D01*
X0170553Y0027169D01*
X0170697Y0027201D01*
X0170843Y0027228D01*
X0170989Y0027252D01*
X0171136Y0027272D01*
X0171283Y0027288D01*
X0171430Y0027300D01*
X0171578Y0027308D01*
X0171726Y0027312D01*
X0171874Y0027312D01*
X0172022Y0027308D01*
X0172170Y0027300D01*
X0172317Y0027288D01*
X0172464Y0027272D01*
X0172611Y0027252D01*
X0172757Y0027228D01*
X0172903Y0027201D01*
X0173047Y0027169D01*
X0173191Y0027134D01*
X0173334Y0027094D01*
X0173475Y0027051D01*
X0173616Y0027004D01*
X0173755Y0026954D01*
X0173892Y0026899D01*
X0174028Y0026841D01*
X0174163Y0026780D01*
X0174296Y0026715D01*
X0174427Y0026646D01*
X0174556Y0026574D01*
X0174683Y0026498D01*
X0174808Y0026419D01*
X0174931Y0026336D01*
X0175052Y0026251D01*
X0175170Y0026162D01*
X0175286Y0026070D01*
X0175399Y0025974D01*
X0175510Y0025876D01*
X0175618Y0025775D01*
X0175724Y0025671D01*
X0175826Y0025565D01*
X0175926Y0025455D01*
X0176022Y0025343D01*
X0176116Y0025228D01*
X0176207Y0025111D01*
X0176294Y0024992D01*
X0176378Y0024870D01*
X0176459Y0024746D01*
X0176536Y0024620D01*
X0176610Y0024492D01*
X0176681Y0024362D01*
X0176748Y0024230D01*
X0176811Y0024096D01*
X0176871Y0023961D01*
X0176927Y0023824D01*
X0176980Y0023685D01*
X0177028Y0023545D01*
X0177073Y0023404D01*
X0177114Y0023262D01*
X0177152Y0023119D01*
X0177185Y0022975D01*
X0177215Y0022830D01*
X0177241Y0022684D01*
X0177262Y0022538D01*
X0177280Y0022391D01*
X0177294Y0022244D01*
X0177304Y0022096D01*
X0177310Y0021948D01*
X0177312Y0021800D01*
X0177310Y0021652D01*
X0177304Y0021504D01*
X0177294Y0021356D01*
X0177280Y0021209D01*
X0177262Y0021062D01*
X0177241Y0020916D01*
X0177215Y0020770D01*
X0177185Y0020625D01*
X0177152Y0020481D01*
X0177114Y0020338D01*
X0177073Y0020196D01*
X0177028Y0020055D01*
X0176980Y0019915D01*
X0176927Y0019776D01*
X0176871Y0019639D01*
X0176811Y0019504D01*
X0176748Y0019370D01*
X0176681Y0019238D01*
X0176610Y0019108D01*
X0176536Y0018980D01*
X0176459Y0018854D01*
X0176378Y0018730D01*
X0176294Y0018608D01*
X0176207Y0018489D01*
X0176116Y0018372D01*
X0176022Y0018257D01*
X0175926Y0018145D01*
X0175826Y0018035D01*
X0175724Y0017929D01*
X0175618Y0017825D01*
X0175510Y0017724D01*
X0175399Y0017626D01*
X0175286Y0017530D01*
X0175170Y0017438D01*
X0175052Y0017349D01*
X0174931Y0017264D01*
X0174808Y0017181D01*
X0174683Y0017102D01*
X0174556Y0017026D01*
X0174427Y0016954D01*
X0174296Y0016885D01*
X0174163Y0016820D01*
X0174028Y0016759D01*
X0173892Y0016701D01*
X0173755Y0016646D01*
X0173616Y0016596D01*
X0173475Y0016549D01*
X0173334Y0016506D01*
X0173191Y0016466D01*
X0173047Y0016431D01*
X0172903Y0016399D01*
X0172757Y0016372D01*
X0172611Y0016348D01*
X0172464Y0016328D01*
X0172317Y0016312D01*
X0172170Y0016300D01*
X0172022Y0016292D01*
X0171874Y0016288D01*
X0171726Y0016288D01*
X0171578Y0016292D01*
X0171430Y0016300D01*
X0171283Y0016312D01*
X0171136Y0016328D01*
X0170989Y0016348D01*
X0170843Y0016372D01*
X0170697Y0016399D01*
X0170553Y0016431D01*
X0170409Y0016466D01*
X0170266Y0016506D01*
X0170125Y0016549D01*
X0169984Y0016596D01*
X0169845Y0016646D01*
X0169708Y0016701D01*
X0169572Y0016759D01*
X0169437Y0016820D01*
X0169304Y0016885D01*
X0169173Y0016954D01*
X0169044Y0017026D01*
X0168917Y0017102D01*
X0168792Y0017181D01*
X0168669Y0017264D01*
X0168548Y0017349D01*
X0168430Y0017438D01*
X0168314Y0017530D01*
X0168201Y0017626D01*
X0168090Y0017724D01*
X0167982Y0017825D01*
X0167876Y0017929D01*
X0167774Y0018035D01*
X0167674Y0018145D01*
X0167578Y0018257D01*
X0167484Y0018372D01*
X0167393Y0018489D01*
X0167306Y0018608D01*
X0167222Y0018730D01*
X0167141Y0018854D01*
X0167064Y0018980D01*
X0166990Y0019108D01*
X0166919Y0019238D01*
X0166852Y0019370D01*
X0166789Y0019504D01*
X0166729Y0019639D01*
X0166673Y0019776D01*
X0166620Y0019915D01*
X0166572Y0020055D01*
X0166527Y0020196D01*
X0166486Y0020338D01*
X0166448Y0020481D01*
X0166415Y0020625D01*
X0166385Y0020770D01*
X0166359Y0020916D01*
X0166338Y0021062D01*
X0166320Y0021209D01*
X0166306Y0021356D01*
X0166296Y0021504D01*
X0166290Y0021652D01*
X0166288Y0021800D01*
D11*
X0141700Y0032067D02*
X0141333Y0031700D01*
X0140232Y0031700D01*
X0141333Y0031700D01*
X0141700Y0032067D01*
X0141700Y0032801D01*
X0141333Y0033168D01*
X0140232Y0033168D01*
X0140232Y0031333D01*
X0140599Y0030966D01*
X0140966Y0030966D01*
X0140599Y0030966D01*
X0140232Y0031333D01*
X0140232Y0033168D01*
X0141333Y0033168D01*
X0141700Y0032801D01*
X0141700Y0032067D01*
X0139490Y0031700D02*
X0138756Y0031700D01*
X0139490Y0031700D01*
X0139123Y0031700D02*
X0139123Y0033168D01*
X0139490Y0033168D01*
X0139123Y0033168D01*
X0139123Y0031700D01*
X0138017Y0033168D02*
X0137283Y0031700D01*
X0136549Y0033168D01*
X0137283Y0031700D01*
X0138017Y0033168D01*
X0139123Y0033902D02*
X0139123Y0034269D01*
X0139123Y0033902D01*
X0139123Y0035300D02*
X0139490Y0035667D01*
X0139123Y0036034D01*
X0138022Y0036034D01*
X0139123Y0036034D01*
X0139490Y0035667D01*
X0139123Y0035300D01*
X0138022Y0035300D01*
X0138022Y0036401D01*
X0138389Y0036768D01*
X0139123Y0036768D01*
X0138389Y0036768D01*
X0138022Y0036401D01*
X0138022Y0035300D01*
X0139123Y0035300D01*
X0140232Y0035667D02*
X0140599Y0035300D01*
X0141333Y0035300D01*
X0141700Y0035667D01*
X0141700Y0037135D01*
X0141333Y0037502D01*
X0140599Y0037502D01*
X0140232Y0037135D01*
X0140599Y0037502D01*
X0141333Y0037502D01*
X0141700Y0037135D01*
X0141700Y0035667D01*
X0141333Y0035300D01*
X0140599Y0035300D01*
X0140232Y0035667D01*
X0137280Y0035300D02*
X0136546Y0035300D01*
X0137280Y0035300D01*
X0136913Y0035300D02*
X0136913Y0037502D01*
X0137280Y0037502D01*
X0136913Y0037502D01*
X0136913Y0035300D01*
X0135807Y0035300D02*
X0135073Y0035300D01*
X0135807Y0035300D01*
X0135440Y0035300D02*
X0135440Y0036768D01*
X0135807Y0036768D01*
X0135440Y0036768D01*
X0135440Y0035300D01*
X0133967Y0035300D02*
X0133967Y0037135D01*
X0133600Y0037502D01*
X0133967Y0037135D01*
X0133967Y0035300D01*
X0134334Y0036401D02*
X0133600Y0036401D01*
X0134334Y0036401D01*
X0132860Y0036401D02*
X0132860Y0035667D01*
X0132494Y0035300D01*
X0131760Y0035300D01*
X0131393Y0035667D01*
X0131393Y0036401D01*
X0131760Y0036768D01*
X0132494Y0036768D01*
X0132860Y0036401D01*
X0132860Y0035667D01*
X0132494Y0035300D01*
X0131760Y0035300D01*
X0131393Y0035667D01*
X0131393Y0036401D01*
X0131760Y0036768D01*
X0132494Y0036768D01*
X0132860Y0036401D01*
X0130651Y0036768D02*
X0130651Y0035300D01*
X0130651Y0036768D01*
X0130651Y0036034D02*
X0129917Y0036768D01*
X0129550Y0036768D01*
X0129917Y0036768D01*
X0130651Y0036034D01*
X0128809Y0036768D02*
X0127708Y0036768D01*
X0127341Y0036401D01*
X0127341Y0035300D01*
X0127341Y0036401D01*
X0127708Y0036768D01*
X0128809Y0036768D01*
X0128809Y0035300D01*
X0128809Y0036768D01*
X0126599Y0036768D02*
X0126232Y0036768D01*
X0126232Y0035300D01*
X0126232Y0036768D01*
X0126599Y0036768D01*
X0126232Y0037502D02*
X0126232Y0037869D01*
X0126232Y0037502D01*
X0125863Y0038900D02*
X0125863Y0041102D01*
X0125863Y0038900D01*
X0126602Y0038900D02*
X0126969Y0039267D01*
X0126969Y0040735D01*
X0126969Y0039267D01*
X0126602Y0038900D01*
X0125863Y0040001D02*
X0125496Y0040368D01*
X0124762Y0040368D01*
X0124395Y0040001D01*
X0124395Y0038900D01*
X0124395Y0040001D01*
X0124762Y0040368D01*
X0125496Y0040368D01*
X0125863Y0040001D01*
X0126602Y0040368D02*
X0127336Y0040368D01*
X0126602Y0040368D01*
X0128076Y0040368D02*
X0128443Y0040368D01*
X0129177Y0039634D01*
X0128443Y0040368D01*
X0128076Y0040368D01*
X0129177Y0040368D02*
X0129177Y0038900D01*
X0129177Y0040368D01*
X0130284Y0040368D02*
X0130284Y0038900D01*
X0130284Y0040368D01*
X0130651Y0040368D01*
X0130284Y0040368D01*
X0130284Y0041102D02*
X0130284Y0041469D01*
X0130284Y0041102D01*
X0131393Y0040001D02*
X0131760Y0040368D01*
X0132860Y0040368D01*
X0131760Y0040368D01*
X0131393Y0040001D01*
X0131393Y0039267D01*
X0131760Y0038900D01*
X0132860Y0038900D01*
X0132860Y0041102D01*
X0132860Y0038900D01*
X0131760Y0038900D01*
X0131393Y0039267D01*
X0131393Y0040001D01*
X0130651Y0038900D02*
X0129917Y0038900D01*
X0130651Y0038900D01*
X0131761Y0042500D02*
X0131761Y0043601D01*
X0132128Y0043968D01*
X0133229Y0043968D01*
X0133229Y0042500D01*
X0133229Y0043968D01*
X0132128Y0043968D01*
X0131761Y0043601D01*
X0131761Y0042500D01*
X0133971Y0042867D02*
X0133971Y0043968D01*
X0133971Y0042867D01*
X0134338Y0042500D01*
X0134705Y0042867D01*
X0135072Y0042500D01*
X0135439Y0042867D01*
X0135439Y0043968D01*
X0135439Y0042867D01*
X0135072Y0042500D01*
X0134705Y0042867D01*
X0134338Y0042500D01*
X0133971Y0042867D01*
X0136181Y0042867D02*
X0136548Y0042500D01*
X0137282Y0042500D01*
X0137649Y0042867D01*
X0137649Y0043601D01*
X0137282Y0043968D01*
X0136548Y0043968D01*
X0136181Y0043601D01*
X0136181Y0042867D01*
X0136181Y0043601D01*
X0136548Y0043968D01*
X0137282Y0043968D01*
X0137649Y0043601D01*
X0137649Y0042867D01*
X0137282Y0042500D01*
X0136548Y0042500D01*
X0136181Y0042867D01*
X0135812Y0041102D02*
X0135812Y0038900D01*
X0136913Y0038900D01*
X0137280Y0039267D01*
X0137280Y0040001D01*
X0136913Y0040368D01*
X0135812Y0040368D01*
X0136913Y0040368D01*
X0137280Y0040001D01*
X0137280Y0039267D01*
X0136913Y0038900D01*
X0135812Y0038900D01*
X0135812Y0041102D01*
X0138022Y0040001D02*
X0138022Y0038900D01*
X0138022Y0040001D01*
X0138389Y0040368D01*
X0139490Y0040368D01*
X0139490Y0038900D01*
X0139490Y0040368D01*
X0138389Y0040368D01*
X0138022Y0040001D01*
X0140232Y0040001D02*
X0140232Y0038900D01*
X0141333Y0038900D01*
X0141700Y0039267D01*
X0141333Y0039634D01*
X0140232Y0039634D01*
X0141333Y0039634D01*
X0141700Y0039267D01*
X0141333Y0038900D01*
X0140232Y0038900D01*
X0140232Y0040001D01*
X0140599Y0040368D01*
X0141333Y0040368D01*
X0140599Y0040368D01*
X0140232Y0040001D01*
X0140599Y0042500D02*
X0141700Y0043234D01*
X0140599Y0043968D01*
X0141700Y0043234D01*
X0140599Y0042500D01*
X0139858Y0042500D02*
X0139858Y0043968D01*
X0138757Y0043968D01*
X0138391Y0043601D01*
X0138391Y0042500D01*
X0138391Y0043601D01*
X0138757Y0043968D01*
X0139858Y0043968D01*
X0139858Y0042500D01*
X0141700Y0042500D02*
X0141700Y0044702D01*
X0141700Y0042500D01*
X0141700Y0046100D02*
X0140966Y0046834D01*
X0140232Y0046100D01*
X0140232Y0048302D01*
X0140232Y0046100D01*
X0140966Y0046834D01*
X0141700Y0046100D01*
X0141700Y0048302D01*
X0141700Y0046100D01*
X0139490Y0046100D02*
X0139490Y0047568D01*
X0138756Y0048302D01*
X0138022Y0047568D01*
X0138022Y0046100D01*
X0138022Y0047568D01*
X0138756Y0048302D01*
X0139490Y0047568D01*
X0139490Y0046100D01*
X0139490Y0047201D02*
X0138022Y0047201D01*
X0139490Y0047201D01*
X0137280Y0046834D02*
X0136179Y0046834D01*
X0135812Y0047201D01*
X0135812Y0047935D01*
X0136179Y0048302D01*
X0137280Y0048302D01*
X0137280Y0046100D01*
X0137280Y0048302D01*
X0136179Y0048302D01*
X0135812Y0047935D01*
X0135812Y0047201D01*
X0136179Y0046834D01*
X0137280Y0046834D01*
X0136546Y0046834D02*
X0135812Y0046100D01*
X0136546Y0046834D01*
X0135070Y0046100D02*
X0135070Y0048302D01*
X0133602Y0046100D01*
X0133602Y0048302D01*
X0133602Y0046100D01*
X0135070Y0048302D01*
X0135070Y0046100D01*
X0132860Y0046100D02*
X0132127Y0046100D01*
X0132860Y0046100D01*
X0132494Y0046100D02*
X0132494Y0048302D01*
X0132494Y0046100D01*
X0131387Y0046100D02*
X0131387Y0048302D01*
X0129919Y0046100D01*
X0129919Y0048302D01*
X0129919Y0046100D01*
X0131387Y0048302D01*
X0131387Y0046100D01*
X0129177Y0046467D02*
X0128810Y0046100D01*
X0128076Y0046100D01*
X0127709Y0046467D01*
X0127709Y0047201D01*
X0128443Y0047201D01*
X0127709Y0047201D01*
X0127709Y0046467D01*
X0128076Y0046100D01*
X0128810Y0046100D01*
X0129177Y0046467D01*
X0129177Y0047935D01*
X0128810Y0048302D01*
X0128076Y0048302D01*
X0127709Y0047935D01*
X0128076Y0048302D01*
X0128810Y0048302D01*
X0129177Y0047935D01*
X0129177Y0046467D01*
X0126967Y0046467D02*
X0126967Y0046100D01*
X0126600Y0046100D01*
X0126600Y0046467D01*
X0126967Y0046467D01*
X0126967Y0046100D01*
X0126600Y0046100D01*
X0126600Y0046467D01*
X0126967Y0046467D01*
X0126967Y0047201D02*
X0126967Y0047568D01*
X0126600Y0047568D01*
X0126600Y0047201D01*
X0126967Y0047201D01*
X0126967Y0047568D01*
X0126600Y0047568D01*
X0126600Y0047201D01*
X0126967Y0047201D01*
X0126967Y0049700D02*
X0126967Y0051902D01*
X0125500Y0051902D01*
X0126967Y0051902D01*
X0126967Y0049700D01*
X0127707Y0049700D02*
X0128441Y0049700D01*
X0127707Y0049700D01*
X0128074Y0049700D02*
X0128074Y0051902D01*
X0128074Y0049700D01*
X0129183Y0049700D02*
X0130651Y0049700D01*
X0130651Y0051902D01*
X0130651Y0049700D01*
X0129183Y0049700D01*
X0131393Y0049700D02*
X0131393Y0051168D01*
X0132127Y0051902D01*
X0132860Y0051168D01*
X0132860Y0049700D01*
X0132860Y0051168D01*
X0132127Y0051902D01*
X0131393Y0051168D01*
X0131393Y0049700D01*
X0131393Y0050801D02*
X0132860Y0050801D01*
X0131393Y0050801D01*
X0128441Y0051902D02*
X0127707Y0051902D01*
X0128441Y0051902D01*
X0126967Y0050801D02*
X0126234Y0050801D01*
X0126967Y0050801D01*
X0124758Y0051535D02*
X0124758Y0050067D01*
X0124391Y0049700D01*
X0123657Y0049700D01*
X0123290Y0050067D01*
X0123290Y0051535D01*
X0123657Y0051902D01*
X0124391Y0051902D01*
X0124758Y0051535D01*
X0124758Y0050067D01*
X0124391Y0049700D01*
X0123657Y0049700D01*
X0123290Y0050067D01*
X0123290Y0051535D01*
X0123657Y0051902D01*
X0124391Y0051902D01*
X0124758Y0051535D01*
X0122548Y0051902D02*
X0122548Y0049700D01*
X0122548Y0051902D01*
X0121447Y0051902D01*
X0121080Y0051535D01*
X0121080Y0050801D01*
X0121447Y0050434D01*
X0122548Y0050434D01*
X0121447Y0050434D01*
X0121080Y0050801D01*
X0121080Y0051535D01*
X0121447Y0051902D01*
X0122548Y0051902D01*
X0121814Y0050434D02*
X0121080Y0049700D01*
X0121814Y0050434D01*
X0120338Y0049700D02*
X0120338Y0051902D01*
X0118870Y0049700D01*
X0118870Y0051902D01*
X0118870Y0049700D01*
X0120338Y0051902D01*
X0120338Y0049700D01*
X0121443Y0048302D02*
X0121443Y0046100D01*
X0121443Y0048302D01*
X0122185Y0048302D02*
X0123653Y0048302D01*
X0122185Y0048302D01*
X0122919Y0048302D02*
X0122919Y0046100D01*
X0122919Y0048302D01*
X0121443Y0047201D02*
X0121076Y0047568D01*
X0120342Y0047568D01*
X0119975Y0047201D01*
X0119975Y0046100D01*
X0119975Y0047201D01*
X0120342Y0047568D01*
X0121076Y0047568D01*
X0121443Y0047201D01*
X0119233Y0047568D02*
X0118866Y0047568D01*
X0118866Y0046100D01*
X0118866Y0047568D01*
X0119233Y0047568D01*
X0118866Y0048302D02*
X0118866Y0048669D01*
X0118866Y0048302D01*
X0117760Y0047201D02*
X0117393Y0047568D01*
X0116292Y0047568D01*
X0117393Y0047568D01*
X0117760Y0047201D01*
X0117393Y0046834D01*
X0116659Y0046834D01*
X0116292Y0046467D01*
X0116659Y0046100D01*
X0117760Y0046100D01*
X0116659Y0046100D01*
X0116292Y0046467D01*
X0116659Y0046834D01*
X0117393Y0046834D01*
X0117760Y0047201D01*
X0118499Y0046100D02*
X0119233Y0046100D01*
X0118499Y0046100D01*
X0118866Y0043968D02*
X0118132Y0043968D01*
X0117765Y0043601D01*
X0117765Y0043234D01*
X0119233Y0043234D01*
X0117765Y0043234D01*
X0117765Y0043601D01*
X0118132Y0043968D01*
X0118866Y0043968D01*
X0119233Y0043601D01*
X0119233Y0042867D01*
X0118866Y0042500D01*
X0118132Y0042500D01*
X0118866Y0042500D01*
X0119233Y0042867D01*
X0119233Y0043601D01*
X0118866Y0043968D01*
X0119975Y0043601D02*
X0119975Y0042500D01*
X0119975Y0043601D01*
X0120342Y0043968D01*
X0121076Y0043968D01*
X0121443Y0043601D01*
X0121076Y0043968D01*
X0120342Y0043968D01*
X0119975Y0043601D01*
X0121443Y0044702D02*
X0121443Y0042500D01*
X0121443Y0044702D01*
X0122182Y0043968D02*
X0122916Y0043968D01*
X0122182Y0043968D01*
X0122549Y0044335D02*
X0122549Y0042867D01*
X0122182Y0042500D01*
X0122549Y0042867D01*
X0122549Y0044335D01*
X0125868Y0043601D02*
X0126235Y0043968D01*
X0126969Y0043968D01*
X0127336Y0043601D01*
X0127336Y0042867D01*
X0126969Y0042500D01*
X0126235Y0042500D01*
X0125868Y0042867D01*
X0125868Y0043601D01*
X0126235Y0043968D01*
X0126969Y0043968D01*
X0127336Y0043601D01*
X0127336Y0042867D01*
X0126969Y0042500D01*
X0126235Y0042500D01*
X0125868Y0042867D01*
X0125868Y0043601D01*
X0128075Y0043968D02*
X0128809Y0043968D01*
X0128075Y0043968D01*
X0128442Y0044335D02*
X0128442Y0042867D01*
X0128075Y0042500D01*
X0128442Y0042867D01*
X0128442Y0044335D01*
X0132127Y0048302D02*
X0132860Y0048302D01*
X0132127Y0048302D01*
X0133602Y0050067D02*
X0133969Y0049700D01*
X0134703Y0049700D01*
X0135070Y0050067D01*
X0135070Y0051535D01*
X0134703Y0051902D01*
X0133969Y0051902D01*
X0133602Y0051535D01*
X0133969Y0051902D01*
X0134703Y0051902D01*
X0135070Y0051535D01*
X0135070Y0050067D01*
X0134703Y0049700D01*
X0133969Y0049700D01*
X0133602Y0050067D01*
X0135440Y0037869D02*
X0135440Y0037502D01*
X0135440Y0037869D01*
X0135440Y0033168D02*
X0134706Y0033168D01*
X0134339Y0032801D01*
X0134339Y0032434D01*
X0135807Y0032434D01*
X0134339Y0032434D01*
X0134339Y0032801D01*
X0134706Y0033168D01*
X0135440Y0033168D01*
X0135807Y0032801D01*
X0135807Y0032067D01*
X0135440Y0031700D01*
X0134706Y0031700D01*
X0135440Y0031700D01*
X0135807Y0032067D01*
X0135807Y0032801D01*
X0135440Y0033168D01*
X0133597Y0033168D02*
X0132496Y0033168D01*
X0132129Y0032801D01*
X0132129Y0031700D01*
X0132129Y0032801D01*
X0132496Y0033168D01*
X0133597Y0033168D01*
X0133597Y0031700D01*
X0133597Y0033168D01*
X0129177Y0033168D02*
X0128443Y0033168D01*
X0129177Y0033168D01*
X0128810Y0033535D02*
X0128810Y0032067D01*
X0128443Y0031700D01*
X0128810Y0032067D01*
X0128810Y0033535D01*
X0127704Y0032801D02*
X0127704Y0032067D01*
X0127337Y0031700D01*
X0126603Y0031700D01*
X0126236Y0032067D01*
X0126236Y0032801D01*
X0126603Y0033168D01*
X0127337Y0033168D01*
X0127704Y0032801D01*
X0127704Y0032067D01*
X0127337Y0031700D01*
X0126603Y0031700D01*
X0126236Y0032067D01*
X0126236Y0032801D01*
X0126603Y0033168D01*
X0127337Y0033168D01*
X0127704Y0032801D01*
X0126599Y0035300D02*
X0125865Y0035300D01*
X0126599Y0035300D01*
X0125126Y0035667D02*
X0124759Y0036034D01*
X0123658Y0036034D01*
X0124759Y0036034D01*
X0125126Y0035667D01*
X0124759Y0035300D01*
X0123658Y0035300D01*
X0123658Y0036401D01*
X0124025Y0036768D01*
X0124759Y0036768D01*
X0124025Y0036768D01*
X0123658Y0036401D01*
X0123658Y0035300D01*
X0124759Y0035300D01*
X0125126Y0035667D01*
X0122917Y0033168D02*
X0123284Y0032801D01*
X0123284Y0032067D01*
X0122917Y0031700D01*
X0121816Y0031700D01*
X0122917Y0031700D01*
X0123284Y0032067D01*
X0123284Y0032801D01*
X0122917Y0033168D01*
X0121816Y0033168D01*
X0122917Y0033168D01*
X0121074Y0033168D02*
X0121074Y0032067D01*
X0120707Y0031700D01*
X0119607Y0031700D01*
X0119607Y0033168D01*
X0119607Y0031700D01*
X0120707Y0031700D01*
X0121074Y0032067D01*
X0121074Y0033168D01*
X0120706Y0035300D02*
X0119972Y0035300D01*
X0120706Y0035300D01*
X0120339Y0035300D02*
X0120339Y0037502D01*
X0120706Y0037502D01*
X0120339Y0037502D01*
X0120339Y0035300D01*
X0119233Y0035667D02*
X0118866Y0036034D01*
X0117765Y0036034D01*
X0118866Y0036034D01*
X0119233Y0035667D01*
X0118866Y0035300D01*
X0117765Y0035300D01*
X0117765Y0036401D01*
X0118132Y0036768D01*
X0118866Y0036768D01*
X0118132Y0036768D01*
X0117765Y0036401D01*
X0117765Y0035300D01*
X0118866Y0035300D01*
X0119233Y0035667D01*
X0117023Y0035667D02*
X0116656Y0035300D01*
X0116289Y0035667D01*
X0115922Y0035300D01*
X0115555Y0035667D01*
X0115555Y0036768D01*
X0115555Y0035667D01*
X0115922Y0035300D01*
X0116289Y0035667D01*
X0116656Y0035300D01*
X0117023Y0035667D01*
X0117023Y0036768D01*
X0117023Y0035667D01*
X0116288Y0033535D02*
X0116288Y0032067D01*
X0115921Y0031700D01*
X0116288Y0032067D01*
X0116288Y0033535D01*
X0116655Y0033168D02*
X0115921Y0033168D01*
X0116655Y0033168D01*
X0117397Y0033168D02*
X0118498Y0033168D01*
X0118865Y0032801D01*
X0118498Y0032434D01*
X0117764Y0032434D01*
X0117397Y0032067D01*
X0117764Y0031700D01*
X0118865Y0031700D01*
X0117764Y0031700D01*
X0117397Y0032067D01*
X0117764Y0032434D01*
X0118498Y0032434D01*
X0118865Y0032801D01*
X0118498Y0033168D01*
X0117397Y0033168D01*
X0115181Y0032801D02*
X0115181Y0032067D01*
X0114814Y0031700D01*
X0114081Y0031700D01*
X0113714Y0032067D01*
X0113714Y0032801D01*
X0114081Y0033168D01*
X0114814Y0033168D01*
X0115181Y0032801D01*
X0115181Y0032067D01*
X0114814Y0031700D01*
X0114081Y0031700D01*
X0113714Y0032067D01*
X0113714Y0032801D01*
X0114081Y0033168D01*
X0114814Y0033168D01*
X0115181Y0032801D01*
X0112972Y0033168D02*
X0112605Y0033168D01*
X0112238Y0032801D01*
X0111871Y0033168D01*
X0111504Y0032801D01*
X0111504Y0031700D01*
X0111504Y0032801D01*
X0111871Y0033168D01*
X0112238Y0032801D01*
X0112238Y0031700D01*
X0112238Y0032801D01*
X0112605Y0033168D01*
X0112972Y0033168D01*
X0112972Y0031700D01*
X0112972Y0033168D01*
X0112603Y0035300D02*
X0112603Y0036768D01*
X0112603Y0035300D01*
X0112603Y0036034D02*
X0111869Y0036768D01*
X0111502Y0036768D01*
X0111869Y0036768D01*
X0112603Y0036034D01*
X0110762Y0036034D02*
X0109294Y0036034D01*
X0109294Y0036401D01*
X0109661Y0036768D01*
X0110395Y0036768D01*
X0110762Y0036401D01*
X0110762Y0035667D01*
X0110395Y0035300D01*
X0109661Y0035300D01*
X0110395Y0035300D01*
X0110762Y0035667D01*
X0110762Y0036401D01*
X0110395Y0036768D01*
X0109661Y0036768D01*
X0109294Y0036401D01*
X0109294Y0036034D01*
X0110762Y0036034D01*
X0108552Y0036401D02*
X0108552Y0035667D01*
X0108185Y0035300D01*
X0107084Y0035300D01*
X0108185Y0035300D01*
X0108552Y0035667D01*
X0108552Y0036401D01*
X0108185Y0036768D01*
X0107084Y0036768D01*
X0107084Y0034566D01*
X0107084Y0036768D01*
X0108185Y0036768D01*
X0108552Y0036401D01*
X0108552Y0033168D02*
X0108552Y0031700D01*
X0108552Y0033168D01*
X0108552Y0032434D02*
X0107818Y0033168D01*
X0107451Y0033168D01*
X0107818Y0033168D01*
X0108552Y0032434D01*
X0109294Y0032434D02*
X0110762Y0032434D01*
X0109294Y0032434D01*
X0109294Y0032801D01*
X0109661Y0033168D01*
X0110395Y0033168D01*
X0110762Y0032801D01*
X0110762Y0032067D01*
X0110395Y0031700D01*
X0109661Y0031700D01*
X0110395Y0031700D01*
X0110762Y0032067D01*
X0110762Y0032801D01*
X0110395Y0033168D01*
X0109661Y0033168D01*
X0109294Y0032801D01*
X0109294Y0032434D01*
X0106710Y0032801D02*
X0106343Y0033168D01*
X0105242Y0033168D01*
X0106343Y0033168D01*
X0106710Y0032801D01*
X0106343Y0032434D01*
X0105609Y0032434D01*
X0105242Y0032067D01*
X0105609Y0031700D01*
X0106710Y0031700D01*
X0105609Y0031700D01*
X0105242Y0032067D01*
X0105609Y0032434D01*
X0106343Y0032434D01*
X0106710Y0032801D01*
X0105975Y0035300D02*
X0104874Y0035300D01*
X0104874Y0036768D01*
X0104874Y0035300D01*
X0105975Y0035300D01*
X0106342Y0035667D01*
X0106342Y0036768D01*
X0106342Y0035667D01*
X0105975Y0035300D01*
X0104132Y0035300D02*
X0103398Y0035300D01*
X0104132Y0035300D01*
X0103765Y0035300D02*
X0103765Y0036768D01*
X0104132Y0036768D01*
X0103765Y0036768D01*
X0103765Y0035300D01*
X0102659Y0035300D02*
X0102659Y0036768D01*
X0102659Y0035300D01*
X0102659Y0036034D02*
X0101925Y0036768D01*
X0101558Y0036768D01*
X0101925Y0036768D01*
X0102659Y0036034D01*
X0103765Y0037502D02*
X0103765Y0037869D01*
X0103765Y0037502D01*
X0104136Y0038900D02*
X0103769Y0039267D01*
X0103769Y0040001D01*
X0104136Y0040368D01*
X0104870Y0040368D01*
X0105237Y0040001D01*
X0105237Y0039267D01*
X0104870Y0038900D01*
X0104136Y0038900D01*
X0103769Y0039267D01*
X0103769Y0040001D01*
X0104136Y0040368D01*
X0104870Y0040368D01*
X0105237Y0040001D01*
X0105237Y0039267D01*
X0104870Y0038900D01*
X0104136Y0038900D01*
X0103027Y0038900D02*
X0103027Y0040368D01*
X0103027Y0038900D01*
X0103027Y0039634D02*
X0102293Y0040368D01*
X0101926Y0040368D01*
X0102293Y0040368D01*
X0103027Y0039634D01*
X0102660Y0042500D02*
X0101926Y0042500D01*
X0101559Y0042867D01*
X0101559Y0043601D01*
X0101926Y0043968D01*
X0102660Y0043968D01*
X0103027Y0043601D01*
X0103027Y0042867D01*
X0102660Y0042500D01*
X0103027Y0042867D01*
X0103027Y0043601D01*
X0102660Y0043968D01*
X0101926Y0043968D01*
X0101559Y0043601D01*
X0101559Y0042867D01*
X0101926Y0042500D01*
X0102660Y0042500D01*
X0100817Y0043601D02*
X0100083Y0043601D01*
X0100817Y0043601D01*
X0100450Y0044335D02*
X0100450Y0042500D01*
X0100450Y0044335D01*
X0100083Y0044702D01*
X0100450Y0044335D01*
X0099715Y0046100D02*
X0100082Y0046467D01*
X0100082Y0047935D01*
X0100082Y0046467D01*
X0099715Y0046100D01*
X0099715Y0047568D02*
X0100449Y0047568D01*
X0099715Y0047568D01*
X0101191Y0047568D02*
X0102292Y0047568D01*
X0102659Y0047201D01*
X0102659Y0046467D01*
X0102292Y0046100D01*
X0101191Y0046100D01*
X0102292Y0046100D01*
X0102659Y0046467D01*
X0102659Y0047201D01*
X0102292Y0047568D01*
X0101191Y0047568D01*
X0100819Y0049700D02*
X0100085Y0049700D01*
X0099718Y0050067D01*
X0099718Y0050434D01*
X0100085Y0050801D01*
X0100819Y0050801D01*
X0101186Y0051168D01*
X0101186Y0051535D01*
X0100819Y0051902D01*
X0100085Y0051902D01*
X0099718Y0051535D01*
X0100085Y0051902D01*
X0100819Y0051902D01*
X0101186Y0051535D01*
X0101186Y0051168D01*
X0100819Y0050801D01*
X0100085Y0050801D01*
X0099718Y0050434D01*
X0099718Y0050067D01*
X0100085Y0049700D01*
X0100819Y0049700D01*
X0101186Y0050067D01*
X0100819Y0049700D01*
X0101928Y0050067D02*
X0101928Y0051535D01*
X0102294Y0051902D01*
X0103028Y0051902D01*
X0103395Y0051535D01*
X0103395Y0050067D01*
X0103028Y0049700D01*
X0102294Y0049700D01*
X0101928Y0050067D01*
X0101928Y0051535D01*
X0102294Y0051902D01*
X0103028Y0051902D01*
X0103395Y0051535D01*
X0103395Y0050067D01*
X0103028Y0049700D01*
X0102294Y0049700D01*
X0101928Y0050067D01*
X0104137Y0050801D02*
X0104504Y0050434D01*
X0105605Y0050434D01*
X0104504Y0050434D01*
X0104137Y0050801D01*
X0104137Y0051535D01*
X0104504Y0051902D01*
X0105605Y0051902D01*
X0105605Y0049700D01*
X0105605Y0051902D01*
X0104504Y0051902D01*
X0104137Y0051535D01*
X0104137Y0050801D01*
X0106347Y0050067D02*
X0106347Y0051535D01*
X0106714Y0051902D01*
X0107448Y0051902D01*
X0107815Y0051535D01*
X0107815Y0050067D01*
X0107448Y0049700D01*
X0106714Y0049700D01*
X0106347Y0050067D01*
X0106347Y0051535D01*
X0106714Y0051902D01*
X0107448Y0051902D01*
X0107815Y0051535D01*
X0107815Y0050067D01*
X0107448Y0049700D01*
X0106714Y0049700D01*
X0106347Y0050067D01*
X0105611Y0048302D02*
X0105611Y0046100D01*
X0106712Y0046100D01*
X0107079Y0046467D01*
X0107079Y0047201D01*
X0106712Y0047568D01*
X0105611Y0047568D01*
X0106712Y0047568D01*
X0107079Y0047201D01*
X0107079Y0046467D01*
X0106712Y0046100D01*
X0105611Y0046100D01*
X0105611Y0048302D01*
X0104869Y0047568D02*
X0104869Y0046467D01*
X0104502Y0046100D01*
X0103401Y0046100D01*
X0103401Y0047568D01*
X0103401Y0046100D01*
X0104502Y0046100D01*
X0104869Y0046467D01*
X0104869Y0047568D01*
X0107821Y0047201D02*
X0108187Y0047568D01*
X0108921Y0047568D01*
X0109288Y0047201D01*
X0109288Y0046467D01*
X0108921Y0046100D01*
X0108187Y0046100D01*
X0107821Y0046467D01*
X0107821Y0047201D01*
X0108187Y0047568D01*
X0108921Y0047568D01*
X0109288Y0047201D01*
X0109288Y0046467D01*
X0108921Y0046100D01*
X0108187Y0046100D01*
X0107821Y0046467D01*
X0107821Y0047201D01*
X0110029Y0047568D02*
X0110396Y0047568D01*
X0111130Y0046834D01*
X0110396Y0047568D01*
X0110029Y0047568D01*
X0111130Y0047568D02*
X0111130Y0046100D01*
X0111130Y0047568D01*
X0111872Y0047201D02*
X0111872Y0046467D01*
X0112239Y0046100D01*
X0113340Y0046100D01*
X0112239Y0046100D01*
X0111872Y0046467D01*
X0111872Y0047201D01*
X0112239Y0047568D01*
X0113340Y0047568D01*
X0113340Y0045366D01*
X0113340Y0047568D01*
X0112239Y0047568D01*
X0111872Y0047201D01*
X0112235Y0049700D02*
X0112235Y0051902D01*
X0111134Y0051902D01*
X0110767Y0051535D01*
X0110767Y0050801D01*
X0111134Y0050434D01*
X0112235Y0050434D01*
X0111134Y0050434D01*
X0110767Y0050801D01*
X0110767Y0051535D01*
X0111134Y0051902D01*
X0112235Y0051902D01*
X0112235Y0049700D01*
X0110025Y0049700D02*
X0110025Y0051902D01*
X0108924Y0051902D01*
X0108557Y0051535D01*
X0108557Y0050801D01*
X0108924Y0050434D01*
X0110025Y0050434D01*
X0108924Y0050434D01*
X0108557Y0050801D01*
X0108557Y0051535D01*
X0108924Y0051902D01*
X0110025Y0051902D01*
X0110025Y0049700D01*
X0109291Y0050434D02*
X0108557Y0049700D01*
X0109291Y0050434D01*
X0115187Y0050801D02*
X0116655Y0050801D01*
X0115187Y0050801D01*
X0115187Y0051168D02*
X0115187Y0049700D01*
X0115187Y0051168D01*
X0115921Y0051902D01*
X0116655Y0051168D01*
X0116655Y0049700D01*
X0116655Y0051168D01*
X0115921Y0051902D01*
X0115187Y0051168D01*
X0117394Y0051902D02*
X0118128Y0051902D01*
X0117394Y0051902D01*
X0117761Y0051902D02*
X0117761Y0049700D01*
X0117761Y0051902D01*
X0118128Y0049700D02*
X0117394Y0049700D01*
X0118128Y0049700D01*
X0114446Y0044702D02*
X0114813Y0044335D01*
X0114813Y0043968D01*
X0114446Y0043601D01*
X0113712Y0043601D01*
X0113345Y0043234D01*
X0113345Y0042867D01*
X0113712Y0042500D01*
X0114446Y0042500D01*
X0114813Y0042867D01*
X0114446Y0042500D01*
X0113712Y0042500D01*
X0113345Y0042867D01*
X0113345Y0043234D01*
X0113712Y0043601D01*
X0114446Y0043601D01*
X0114813Y0043968D01*
X0114813Y0044335D01*
X0114446Y0044702D01*
X0113712Y0044702D01*
X0113345Y0044335D01*
X0113712Y0044702D01*
X0114446Y0044702D01*
X0112603Y0043968D02*
X0111869Y0043968D01*
X0112603Y0043968D01*
X0112236Y0044335D02*
X0112236Y0042867D01*
X0111869Y0042500D01*
X0112236Y0042867D01*
X0112236Y0044335D01*
X0110763Y0043968D02*
X0110029Y0043968D01*
X0109662Y0043601D01*
X0109662Y0042500D01*
X0110763Y0042500D01*
X0111130Y0042867D01*
X0110763Y0043234D01*
X0109662Y0043234D01*
X0110763Y0043234D01*
X0111130Y0042867D01*
X0110763Y0042500D01*
X0109662Y0042500D01*
X0109662Y0043601D01*
X0110029Y0043968D01*
X0110763Y0043968D01*
X0108920Y0043968D02*
X0108186Y0043968D01*
X0108920Y0043968D01*
X0108553Y0044335D02*
X0108553Y0042867D01*
X0108186Y0042500D01*
X0108553Y0042867D01*
X0108553Y0044335D01*
X0107447Y0043601D02*
X0107080Y0043968D01*
X0106346Y0043968D01*
X0105979Y0043601D01*
X0105979Y0043234D01*
X0107447Y0043234D01*
X0105979Y0043234D01*
X0105979Y0043601D01*
X0106346Y0043968D01*
X0107080Y0043968D01*
X0107447Y0043601D01*
X0107447Y0042867D01*
X0107080Y0042500D01*
X0106346Y0042500D01*
X0107080Y0042500D01*
X0107447Y0042867D01*
X0107447Y0043601D01*
X0108189Y0040368D02*
X0109290Y0040368D01*
X0109657Y0040001D01*
X0109290Y0039634D01*
X0108556Y0039634D01*
X0108189Y0039267D01*
X0108556Y0038900D01*
X0109657Y0038900D01*
X0108556Y0038900D01*
X0108189Y0039267D01*
X0108556Y0039634D01*
X0109290Y0039634D01*
X0109657Y0040001D01*
X0109290Y0040368D01*
X0108189Y0040368D01*
X0110396Y0040368D02*
X0111130Y0040368D01*
X0110396Y0040368D01*
X0110763Y0040735D02*
X0110763Y0039267D01*
X0110396Y0038900D01*
X0110763Y0039267D01*
X0110763Y0040735D01*
X0111872Y0040368D02*
X0112973Y0040368D01*
X0113340Y0040001D01*
X0113340Y0039267D01*
X0112973Y0038900D01*
X0111872Y0038900D01*
X0112973Y0038900D01*
X0113340Y0039267D01*
X0113340Y0040001D01*
X0112973Y0040368D01*
X0111872Y0040368D01*
X0114082Y0040001D02*
X0114082Y0039634D01*
X0115550Y0039634D01*
X0114082Y0039634D01*
X0114082Y0040001D01*
X0114449Y0040368D01*
X0115183Y0040368D01*
X0115550Y0040001D01*
X0115550Y0039267D01*
X0115183Y0038900D01*
X0114449Y0038900D01*
X0115183Y0038900D01*
X0115550Y0039267D01*
X0115550Y0040001D01*
X0115183Y0040368D01*
X0114449Y0040368D01*
X0114082Y0040001D01*
X0116289Y0040001D02*
X0117023Y0040001D01*
X0116289Y0040001D01*
X0116656Y0040735D02*
X0116656Y0038900D01*
X0116656Y0040735D01*
X0116289Y0041102D01*
X0116656Y0040735D01*
X0117765Y0040001D02*
X0117765Y0039634D01*
X0119233Y0039634D01*
X0117765Y0039634D01*
X0117765Y0040001D01*
X0118132Y0040368D01*
X0118866Y0040368D01*
X0119233Y0040001D01*
X0119233Y0039267D01*
X0118866Y0038900D01*
X0118132Y0038900D01*
X0118866Y0038900D01*
X0119233Y0039267D01*
X0119233Y0040001D01*
X0118866Y0040368D01*
X0118132Y0040368D01*
X0117765Y0040001D01*
X0119975Y0040368D02*
X0121076Y0040368D01*
X0121443Y0040001D01*
X0121443Y0039267D01*
X0121076Y0038900D01*
X0119975Y0038900D01*
X0119975Y0041102D01*
X0119975Y0038900D01*
X0121076Y0038900D01*
X0121443Y0039267D01*
X0121443Y0040001D01*
X0121076Y0040368D01*
X0119975Y0040368D01*
X0101923Y0034269D02*
X0101923Y0033902D01*
X0101923Y0034269D01*
X0101923Y0033168D02*
X0101923Y0031700D01*
X0101923Y0033168D01*
X0102290Y0033168D01*
X0101923Y0033168D01*
X0100817Y0033168D02*
X0099716Y0033168D01*
X0099349Y0032801D01*
X0099349Y0031700D01*
X0099349Y0032801D01*
X0099716Y0033168D01*
X0100817Y0033168D01*
X0100817Y0031700D01*
X0100817Y0033168D01*
X0101557Y0031700D02*
X0102290Y0031700D01*
X0101557Y0031700D01*
X0100450Y0035300D02*
X0100817Y0035667D01*
X0100817Y0036401D01*
X0100450Y0036768D01*
X0099716Y0036768D01*
X0099349Y0036401D01*
X0099349Y0036034D01*
X0100817Y0036034D01*
X0099349Y0036034D01*
X0099349Y0036401D01*
X0099716Y0036768D01*
X0100450Y0036768D01*
X0100817Y0036401D01*
X0100817Y0035667D01*
X0100450Y0035300D01*
X0099716Y0035300D01*
X0100450Y0035300D01*
X0098607Y0035300D02*
X0097506Y0035300D01*
X0097139Y0035667D01*
X0097506Y0036034D01*
X0098240Y0036034D01*
X0098607Y0036401D01*
X0098240Y0036768D01*
X0097139Y0036768D01*
X0098240Y0036768D01*
X0098607Y0036401D01*
X0098240Y0036034D01*
X0097506Y0036034D01*
X0097139Y0035667D01*
X0097506Y0035300D01*
X0098607Y0035300D01*
X0096397Y0033168D02*
X0095664Y0033168D01*
X0096397Y0033168D01*
X0096030Y0033535D02*
X0096030Y0032067D01*
X0095664Y0031700D01*
X0096030Y0032067D01*
X0096030Y0033535D01*
X0094924Y0033902D02*
X0094924Y0031700D01*
X0094924Y0033902D01*
X0094557Y0033168D02*
X0094924Y0032801D01*
X0094557Y0033168D01*
X0093823Y0033168D01*
X0093456Y0032801D01*
X0093456Y0031700D01*
X0093456Y0032801D01*
X0093823Y0033168D01*
X0094557Y0033168D01*
X0092714Y0032801D02*
X0092347Y0033168D01*
X0091613Y0033168D01*
X0091246Y0032801D01*
X0091246Y0032434D01*
X0092714Y0032434D01*
X0091246Y0032434D01*
X0091246Y0032801D01*
X0091613Y0033168D01*
X0092347Y0033168D01*
X0092714Y0032801D01*
X0092714Y0032067D01*
X0092347Y0031700D01*
X0091613Y0031700D01*
X0092347Y0031700D01*
X0092714Y0032067D01*
X0092714Y0032801D01*
X0092714Y0035300D02*
X0092714Y0037502D01*
X0092714Y0035300D01*
X0093454Y0035300D02*
X0093821Y0035667D01*
X0093821Y0037135D01*
X0093821Y0035667D01*
X0093454Y0035300D01*
X0092714Y0036401D02*
X0092347Y0036768D01*
X0091613Y0036768D01*
X0091246Y0036401D01*
X0091246Y0035300D01*
X0091246Y0036401D01*
X0091613Y0036768D01*
X0092347Y0036768D01*
X0092714Y0036401D01*
X0093454Y0036768D02*
X0094188Y0036768D01*
X0093454Y0036768D01*
X0093825Y0038900D02*
X0093825Y0040001D01*
X0094192Y0040368D01*
X0094926Y0040368D01*
X0095293Y0040001D01*
X0094926Y0040368D01*
X0094192Y0040368D01*
X0093825Y0040001D01*
X0093825Y0038900D01*
X0093083Y0039267D02*
X0093083Y0040001D01*
X0092716Y0040368D01*
X0091982Y0040368D01*
X0091615Y0040001D01*
X0091615Y0039634D01*
X0093083Y0039634D01*
X0091615Y0039634D01*
X0091615Y0040001D01*
X0091982Y0040368D01*
X0092716Y0040368D01*
X0093083Y0040001D01*
X0093083Y0039267D01*
X0092716Y0038900D01*
X0091982Y0038900D01*
X0092716Y0038900D01*
X0093083Y0039267D01*
X0095293Y0038900D02*
X0095293Y0041102D01*
X0095293Y0038900D01*
X0096032Y0038900D02*
X0096399Y0039267D01*
X0096399Y0040735D01*
X0096399Y0039267D01*
X0096032Y0038900D01*
X0096032Y0040368D02*
X0096766Y0040368D01*
X0096032Y0040368D01*
X0097508Y0040001D02*
X0097875Y0040368D01*
X0098609Y0040368D01*
X0098976Y0040001D01*
X0098976Y0039267D01*
X0098609Y0038900D01*
X0097875Y0038900D01*
X0097508Y0039267D01*
X0097508Y0040001D01*
X0097875Y0040368D01*
X0098609Y0040368D01*
X0098976Y0040001D01*
X0098976Y0039267D01*
X0098609Y0038900D01*
X0097875Y0038900D01*
X0097508Y0039267D01*
X0097508Y0040001D01*
X0096767Y0042500D02*
X0096033Y0042500D01*
X0095666Y0042867D01*
X0096033Y0042500D01*
X0096767Y0042500D01*
X0097134Y0042867D01*
X0097134Y0044335D01*
X0096767Y0044702D01*
X0096033Y0044702D01*
X0095666Y0044335D01*
X0096033Y0044702D01*
X0096767Y0044702D01*
X0097134Y0044335D01*
X0097134Y0042867D01*
X0096767Y0042500D01*
X0094924Y0042867D02*
X0094557Y0043234D01*
X0093456Y0043234D01*
X0094557Y0043234D01*
X0094924Y0042867D01*
X0094557Y0042500D01*
X0093456Y0042500D01*
X0093456Y0043601D01*
X0093823Y0043968D01*
X0094557Y0043968D01*
X0093823Y0043968D01*
X0093456Y0043601D01*
X0093456Y0042500D01*
X0094557Y0042500D01*
X0094924Y0042867D01*
X0095298Y0046100D02*
X0096399Y0046100D01*
X0096766Y0046467D01*
X0096766Y0047201D01*
X0096399Y0047568D01*
X0095298Y0047568D01*
X0096399Y0047568D01*
X0096766Y0047201D01*
X0096766Y0046467D01*
X0096399Y0046100D01*
X0095298Y0046100D01*
X0094556Y0046467D02*
X0094189Y0046100D01*
X0093455Y0046100D01*
X0093088Y0046467D01*
X0093088Y0047201D01*
X0093455Y0047568D01*
X0094189Y0047568D01*
X0094556Y0047201D01*
X0094556Y0046467D01*
X0094189Y0046100D01*
X0093455Y0046100D01*
X0093088Y0046467D01*
X0093088Y0047201D01*
X0093455Y0047568D01*
X0094189Y0047568D01*
X0094556Y0047201D01*
X0094556Y0046467D01*
X0092346Y0046100D02*
X0092346Y0047568D01*
X0091245Y0047568D01*
X0090878Y0047201D01*
X0090878Y0046100D01*
X0090878Y0047201D01*
X0091245Y0047568D01*
X0092346Y0047568D01*
X0092346Y0046100D01*
X0092347Y0044702D02*
X0092347Y0042500D01*
X0092347Y0044702D01*
X0092714Y0044702D01*
X0092347Y0044702D01*
X0091241Y0043968D02*
X0090874Y0043968D01*
X0090874Y0042500D01*
X0090874Y0043968D01*
X0091241Y0043968D01*
X0090874Y0044702D02*
X0090874Y0045069D01*
X0090874Y0044702D01*
X0089401Y0044335D02*
X0089034Y0044702D01*
X0089401Y0044335D01*
X0089401Y0042500D01*
X0089401Y0044335D01*
X0089768Y0043601D02*
X0089034Y0043601D01*
X0089768Y0043601D01*
X0090507Y0042500D02*
X0091241Y0042500D01*
X0090507Y0042500D01*
X0091980Y0042500D02*
X0092714Y0042500D01*
X0091980Y0042500D01*
X0090873Y0040368D02*
X0090873Y0038900D01*
X0090873Y0040368D01*
X0090873Y0039634D02*
X0090139Y0040368D01*
X0089772Y0040368D01*
X0090139Y0040368D01*
X0090873Y0039634D01*
X0090137Y0037869D02*
X0090137Y0037502D01*
X0090137Y0037869D01*
X0090137Y0036768D02*
X0090137Y0035300D01*
X0090137Y0036768D01*
X0090504Y0036768D01*
X0090137Y0036768D01*
X0089031Y0036401D02*
X0088664Y0036768D01*
X0087563Y0036768D01*
X0088664Y0036768D01*
X0089031Y0036401D01*
X0088664Y0036034D01*
X0087930Y0036034D01*
X0087563Y0035667D01*
X0087930Y0035300D01*
X0089031Y0035300D01*
X0087930Y0035300D01*
X0087563Y0035667D01*
X0087930Y0036034D01*
X0088664Y0036034D01*
X0089031Y0036401D01*
X0089770Y0035300D02*
X0090504Y0035300D01*
X0089770Y0035300D01*
X0088295Y0033535D02*
X0088295Y0033168D01*
X0087928Y0032801D01*
X0087194Y0032801D01*
X0086827Y0032434D01*
X0086827Y0032067D01*
X0087194Y0031700D01*
X0087928Y0031700D01*
X0088295Y0032067D01*
X0087928Y0031700D01*
X0087194Y0031700D01*
X0086827Y0032067D01*
X0086827Y0032434D01*
X0087194Y0032801D01*
X0087928Y0032801D01*
X0088295Y0033168D01*
X0088295Y0033535D01*
X0087928Y0033902D01*
X0087194Y0033902D01*
X0086827Y0033535D01*
X0087194Y0033902D01*
X0087928Y0033902D01*
X0088295Y0033535D01*
X0086085Y0033168D02*
X0085351Y0033168D01*
X0086085Y0033168D01*
X0085718Y0033535D02*
X0085718Y0032067D01*
X0085351Y0031700D01*
X0085718Y0032067D01*
X0085718Y0033535D01*
X0084244Y0033168D02*
X0083511Y0033168D01*
X0083144Y0032801D01*
X0083144Y0031700D01*
X0084244Y0031700D01*
X0084611Y0032067D01*
X0084244Y0032434D01*
X0083144Y0032434D01*
X0084244Y0032434D01*
X0084611Y0032067D01*
X0084244Y0031700D01*
X0083144Y0031700D01*
X0083144Y0032801D01*
X0083511Y0033168D01*
X0084244Y0033168D01*
X0082402Y0033168D02*
X0081668Y0033168D01*
X0082402Y0033168D01*
X0082035Y0033535D02*
X0082035Y0032067D01*
X0081668Y0031700D01*
X0082035Y0032067D01*
X0082035Y0033535D01*
X0080928Y0032801D02*
X0080561Y0033168D01*
X0079827Y0033168D01*
X0079460Y0032801D01*
X0079460Y0032434D01*
X0080928Y0032434D01*
X0079460Y0032434D01*
X0079460Y0032801D01*
X0079827Y0033168D01*
X0080561Y0033168D01*
X0080928Y0032801D01*
X0080928Y0032067D01*
X0080561Y0031700D01*
X0079827Y0031700D01*
X0080561Y0031700D01*
X0080928Y0032067D01*
X0080928Y0032801D01*
X0080934Y0035300D02*
X0082035Y0035300D01*
X0082402Y0035667D01*
X0082035Y0036034D01*
X0080934Y0036034D01*
X0082035Y0036034D01*
X0082402Y0035667D01*
X0082035Y0035300D01*
X0080934Y0035300D01*
X0080934Y0036401D01*
X0081301Y0036768D01*
X0082035Y0036768D01*
X0081301Y0036768D01*
X0080934Y0036401D01*
X0080934Y0035300D01*
X0080192Y0035300D02*
X0080192Y0036768D01*
X0080192Y0035300D01*
X0080192Y0036034D02*
X0079458Y0036768D01*
X0079091Y0036768D01*
X0079458Y0036768D01*
X0080192Y0036034D01*
X0078350Y0036768D02*
X0077249Y0036768D01*
X0076882Y0036401D01*
X0076882Y0035300D01*
X0076882Y0036401D01*
X0077249Y0036768D01*
X0078350Y0036768D01*
X0078350Y0035300D01*
X0078350Y0036768D01*
X0076140Y0036768D02*
X0075773Y0036768D01*
X0075773Y0035300D01*
X0075773Y0036768D01*
X0076140Y0036768D01*
X0075773Y0037502D02*
X0075773Y0037869D01*
X0075773Y0037502D01*
X0074667Y0036768D02*
X0073566Y0036768D01*
X0073199Y0036401D01*
X0073199Y0035300D01*
X0073199Y0036401D01*
X0073566Y0036768D01*
X0074667Y0036768D01*
X0074667Y0035300D01*
X0074667Y0036768D01*
X0075406Y0035300D02*
X0076140Y0035300D01*
X0075406Y0035300D01*
X0075408Y0033168D02*
X0076142Y0033168D01*
X0076509Y0032801D01*
X0076509Y0032067D01*
X0076142Y0031700D01*
X0075408Y0031700D01*
X0075041Y0032067D01*
X0075041Y0032801D01*
X0075408Y0033168D01*
X0076142Y0033168D01*
X0076509Y0032801D01*
X0076509Y0032067D01*
X0076142Y0031700D01*
X0075408Y0031700D01*
X0075041Y0032067D01*
X0075041Y0032801D01*
X0075408Y0033168D01*
X0074299Y0032801D02*
X0073565Y0032801D01*
X0074299Y0032801D01*
X0073932Y0033535D02*
X0073932Y0031700D01*
X0073932Y0033535D01*
X0073565Y0033902D01*
X0073932Y0033535D01*
X0071723Y0034566D02*
X0071356Y0034566D01*
X0070989Y0034933D01*
X0070989Y0036768D01*
X0072090Y0036768D01*
X0072457Y0036401D01*
X0072457Y0035667D01*
X0072090Y0035300D01*
X0070989Y0035300D01*
X0072090Y0035300D01*
X0072457Y0035667D01*
X0072457Y0036401D01*
X0072090Y0036768D01*
X0070989Y0036768D01*
X0070989Y0034933D01*
X0071356Y0034566D01*
X0071723Y0034566D01*
X0070616Y0033535D02*
X0070616Y0032067D01*
X0070249Y0031700D01*
X0069515Y0031700D01*
X0069148Y0032067D01*
X0069515Y0031700D01*
X0070249Y0031700D01*
X0070616Y0032067D01*
X0070616Y0033535D01*
X0070249Y0033902D01*
X0069515Y0033902D01*
X0069148Y0033535D01*
X0069515Y0033902D01*
X0070249Y0033902D01*
X0070616Y0033535D01*
X0068039Y0033168D02*
X0067305Y0033168D01*
X0066938Y0032801D01*
X0066938Y0031700D01*
X0068039Y0031700D01*
X0068406Y0032067D01*
X0068039Y0032434D01*
X0066938Y0032434D01*
X0068039Y0032434D01*
X0068406Y0032067D01*
X0068039Y0031700D01*
X0066938Y0031700D01*
X0066938Y0032801D01*
X0067305Y0033168D01*
X0068039Y0033168D01*
X0066196Y0033902D02*
X0065829Y0033902D01*
X0065829Y0031700D01*
X0065829Y0033902D01*
X0066196Y0033902D01*
X0066197Y0035300D02*
X0065463Y0035300D01*
X0065096Y0035667D01*
X0065096Y0036401D01*
X0065463Y0036768D01*
X0066197Y0036768D01*
X0066564Y0036401D01*
X0066564Y0035667D01*
X0066197Y0035300D01*
X0066564Y0035667D01*
X0066564Y0036401D01*
X0066197Y0036768D01*
X0065463Y0036768D01*
X0065096Y0036401D01*
X0065096Y0035667D01*
X0065463Y0035300D01*
X0066197Y0035300D01*
X0067303Y0035300D02*
X0067670Y0035667D01*
X0067670Y0037135D01*
X0067670Y0035667D01*
X0067303Y0035300D01*
X0067303Y0036768D02*
X0068037Y0036768D01*
X0067303Y0036768D01*
X0064356Y0034269D02*
X0064356Y0033902D01*
X0064356Y0034269D01*
X0064356Y0033168D02*
X0064356Y0031700D01*
X0064356Y0033168D01*
X0064723Y0033168D01*
X0064356Y0033168D01*
X0063249Y0032801D02*
X0062515Y0032801D01*
X0063249Y0032801D01*
X0062882Y0033535D02*
X0062882Y0031700D01*
X0062882Y0033535D01*
X0062515Y0033902D01*
X0062882Y0033535D01*
X0061776Y0032801D02*
X0061776Y0032067D01*
X0061409Y0031700D01*
X0060675Y0031700D01*
X0060308Y0032067D01*
X0060308Y0032801D01*
X0060675Y0033168D01*
X0061409Y0033168D01*
X0061776Y0032801D01*
X0061776Y0032067D01*
X0061409Y0031700D01*
X0060675Y0031700D01*
X0060308Y0032067D01*
X0060308Y0032801D01*
X0060675Y0033168D01*
X0061409Y0033168D01*
X0061776Y0032801D01*
X0059566Y0033168D02*
X0059566Y0031700D01*
X0059566Y0033168D01*
X0058832Y0033168D02*
X0058465Y0033168D01*
X0058832Y0033168D01*
X0059566Y0032434D01*
X0058832Y0033168D01*
X0057725Y0033168D02*
X0057725Y0031700D01*
X0057725Y0033168D01*
X0056624Y0033168D01*
X0056257Y0032801D01*
X0056257Y0031700D01*
X0056257Y0032801D01*
X0056624Y0033168D01*
X0057725Y0033168D01*
X0055515Y0033168D02*
X0055148Y0033168D01*
X0055148Y0031700D01*
X0055148Y0033168D01*
X0055515Y0033168D01*
X0055148Y0033902D02*
X0055148Y0034269D01*
X0055148Y0033902D01*
X0053674Y0033168D02*
X0052941Y0033168D01*
X0052574Y0032801D01*
X0052574Y0031700D01*
X0053674Y0031700D01*
X0054041Y0032067D01*
X0053674Y0032434D01*
X0052574Y0032434D01*
X0053674Y0032434D01*
X0054041Y0032067D01*
X0053674Y0031700D01*
X0052574Y0031700D01*
X0052574Y0032801D01*
X0052941Y0033168D01*
X0053674Y0033168D01*
X0054781Y0031700D02*
X0055515Y0031700D01*
X0054781Y0031700D01*
X0058834Y0035300D02*
X0059567Y0035300D01*
X0059934Y0035667D01*
X0059934Y0036401D01*
X0059567Y0036768D01*
X0058834Y0036768D01*
X0058467Y0036401D01*
X0058467Y0036034D01*
X0059934Y0036034D01*
X0058467Y0036034D01*
X0058467Y0036401D01*
X0058834Y0036768D01*
X0059567Y0036768D01*
X0059934Y0036401D01*
X0059934Y0035667D01*
X0059567Y0035300D01*
X0058834Y0035300D01*
X0060676Y0035667D02*
X0060676Y0036401D01*
X0061043Y0036768D01*
X0062144Y0036768D01*
X0061043Y0036768D01*
X0060676Y0036401D01*
X0060676Y0035667D01*
X0061043Y0035300D01*
X0062144Y0035300D01*
X0062144Y0037502D01*
X0062144Y0035300D01*
X0061043Y0035300D01*
X0060676Y0035667D01*
X0060303Y0038900D02*
X0060303Y0041102D01*
X0060303Y0038900D01*
X0060303Y0040001D02*
X0059936Y0040368D01*
X0059202Y0040368D01*
X0058835Y0040001D01*
X0058835Y0038900D01*
X0058835Y0040001D01*
X0059202Y0040368D01*
X0059936Y0040368D01*
X0060303Y0040001D01*
X0058093Y0039267D02*
X0057726Y0039634D01*
X0056625Y0039634D01*
X0057726Y0039634D01*
X0058093Y0039267D01*
X0057726Y0038900D01*
X0056625Y0038900D01*
X0056625Y0040001D01*
X0056992Y0040368D01*
X0057726Y0040368D01*
X0056992Y0040368D01*
X0056625Y0040001D01*
X0056625Y0038900D01*
X0057726Y0038900D01*
X0058093Y0039267D01*
X0056621Y0042500D02*
X0055520Y0042500D01*
X0056621Y0042500D01*
X0056988Y0042867D01*
X0056988Y0043601D01*
X0056621Y0043968D01*
X0055520Y0043968D01*
X0056621Y0043968D01*
X0056988Y0043601D01*
X0056988Y0042867D01*
X0056621Y0042500D01*
X0054778Y0042867D02*
X0054411Y0043234D01*
X0053310Y0043234D01*
X0054411Y0043234D01*
X0054778Y0042867D01*
X0054411Y0042500D01*
X0053310Y0042500D01*
X0053310Y0043601D01*
X0053677Y0043968D01*
X0054411Y0043968D01*
X0053677Y0043968D01*
X0053310Y0043601D01*
X0053310Y0042500D01*
X0054411Y0042500D01*
X0054778Y0042867D01*
X0052568Y0042500D02*
X0052568Y0043968D01*
X0051467Y0043968D01*
X0051100Y0043601D01*
X0051100Y0042500D01*
X0051100Y0043601D01*
X0051467Y0043968D01*
X0052568Y0043968D01*
X0052568Y0042500D01*
X0052940Y0040368D02*
X0052573Y0040001D01*
X0052573Y0038900D01*
X0052573Y0040001D01*
X0052940Y0040368D01*
X0053307Y0040001D01*
X0053307Y0038900D01*
X0053307Y0040001D01*
X0053674Y0040368D01*
X0054041Y0040368D01*
X0054041Y0038900D01*
X0054041Y0040368D01*
X0053674Y0040368D01*
X0053307Y0040001D01*
X0052940Y0040368D01*
X0051832Y0039267D02*
X0051465Y0039267D01*
X0051465Y0038900D01*
X0051832Y0038900D01*
X0051832Y0039267D01*
X0051465Y0039267D01*
X0051465Y0038900D01*
X0051832Y0038900D01*
X0051832Y0039267D01*
X0049991Y0042500D02*
X0048890Y0042500D01*
X0049991Y0042500D01*
X0050358Y0042867D01*
X0050358Y0043601D01*
X0049991Y0043968D01*
X0048890Y0043968D01*
X0049991Y0043968D01*
X0050358Y0043601D01*
X0050358Y0042867D01*
X0049991Y0042500D01*
X0048148Y0042867D02*
X0048148Y0043601D01*
X0047781Y0043968D01*
X0047047Y0043968D01*
X0046681Y0043601D01*
X0046681Y0043234D01*
X0048148Y0043234D01*
X0046681Y0043234D01*
X0046681Y0043601D01*
X0047047Y0043968D01*
X0047781Y0043968D01*
X0048148Y0043601D01*
X0048148Y0042867D01*
X0047781Y0042500D01*
X0047047Y0042500D01*
X0047781Y0042500D01*
X0048148Y0042867D01*
X0045939Y0043234D02*
X0045205Y0043968D01*
X0044838Y0043968D01*
X0045205Y0043968D01*
X0045939Y0043234D01*
X0045939Y0042500D02*
X0045939Y0043968D01*
X0045939Y0042500D01*
X0054782Y0040368D02*
X0055149Y0040368D01*
X0055883Y0039634D01*
X0055149Y0040368D01*
X0054782Y0040368D01*
X0055883Y0040368D02*
X0055883Y0038900D01*
X0055883Y0040368D01*
X0059940Y0043234D02*
X0061408Y0043234D01*
X0059940Y0043234D01*
X0059940Y0043601D01*
X0060307Y0043968D01*
X0061041Y0043968D01*
X0061408Y0043601D01*
X0061408Y0042867D01*
X0061041Y0042500D01*
X0060307Y0042500D01*
X0061041Y0042500D01*
X0061408Y0042867D01*
X0061408Y0043601D01*
X0061041Y0043968D01*
X0060307Y0043968D01*
X0059940Y0043601D01*
X0059940Y0043234D01*
X0061043Y0046100D02*
X0060676Y0046467D01*
X0061043Y0046834D01*
X0061777Y0046834D01*
X0062144Y0047201D01*
X0061777Y0047568D01*
X0060676Y0047568D01*
X0061777Y0047568D01*
X0062144Y0047201D01*
X0061777Y0046834D01*
X0061043Y0046834D01*
X0060676Y0046467D01*
X0061043Y0046100D01*
X0062144Y0046100D01*
X0061043Y0046100D01*
X0062884Y0046100D02*
X0063618Y0046100D01*
X0062884Y0046100D01*
X0063251Y0046100D02*
X0063251Y0048302D01*
X0063618Y0048302D01*
X0063251Y0048302D01*
X0063251Y0046100D01*
X0064360Y0046100D02*
X0064360Y0047201D01*
X0064727Y0047568D01*
X0065460Y0047568D01*
X0064727Y0047568D01*
X0064360Y0047201D01*
X0064360Y0046100D01*
X0065460Y0046100D01*
X0065827Y0046467D01*
X0065460Y0046834D01*
X0064360Y0046834D01*
X0065460Y0046834D01*
X0065827Y0046467D01*
X0065460Y0046100D01*
X0064360Y0046100D01*
X0064360Y0043968D02*
X0064360Y0042500D01*
X0065460Y0042500D01*
X0065827Y0042867D01*
X0065827Y0043968D01*
X0065827Y0042867D01*
X0065460Y0042500D01*
X0064360Y0042500D01*
X0064360Y0043968D01*
X0063618Y0043601D02*
X0063251Y0043968D01*
X0062150Y0043968D01*
X0063251Y0043968D01*
X0063618Y0043601D01*
X0063251Y0043234D01*
X0062517Y0043234D01*
X0062150Y0042867D01*
X0062517Y0042500D01*
X0063618Y0042500D01*
X0062517Y0042500D01*
X0062150Y0042867D01*
X0062517Y0043234D01*
X0063251Y0043234D01*
X0063618Y0043601D01*
X0066569Y0043601D02*
X0066569Y0042500D01*
X0067670Y0042500D01*
X0068037Y0042867D01*
X0067670Y0043234D01*
X0066569Y0043234D01*
X0067670Y0043234D01*
X0068037Y0042867D01*
X0067670Y0042500D01*
X0066569Y0042500D01*
X0066569Y0043601D01*
X0066936Y0043968D01*
X0067670Y0043968D01*
X0066936Y0043968D01*
X0066569Y0043601D01*
X0068779Y0043968D02*
X0069880Y0043968D01*
X0070247Y0043601D01*
X0070247Y0042867D01*
X0069880Y0042500D01*
X0068779Y0042500D01*
X0069880Y0042500D01*
X0070247Y0042867D01*
X0070247Y0043601D01*
X0069880Y0043968D01*
X0068779Y0043968D01*
X0068777Y0046100D02*
X0069511Y0046100D01*
X0068777Y0046100D01*
X0069144Y0046100D02*
X0069144Y0047568D01*
X0069511Y0047568D01*
X0069144Y0047568D01*
X0069144Y0046100D01*
X0070253Y0046100D02*
X0070253Y0047201D01*
X0070620Y0047568D01*
X0070987Y0047201D01*
X0070987Y0046100D01*
X0070987Y0047201D01*
X0071354Y0047568D01*
X0071720Y0047568D01*
X0071720Y0046100D01*
X0071720Y0047568D01*
X0071354Y0047568D01*
X0070987Y0047201D01*
X0070620Y0047568D01*
X0070253Y0047201D01*
X0070253Y0046100D01*
X0068037Y0046467D02*
X0067670Y0046100D01*
X0066569Y0046100D01*
X0067670Y0046100D01*
X0068037Y0046467D01*
X0068037Y0047201D01*
X0067670Y0047568D01*
X0066569Y0047568D01*
X0067670Y0047568D01*
X0068037Y0047201D01*
X0068037Y0046467D01*
X0069144Y0048302D02*
X0069144Y0048669D01*
X0069144Y0048302D01*
X0068779Y0049700D02*
X0068779Y0051902D01*
X0068779Y0049700D01*
X0070247Y0051902D01*
X0070247Y0049700D01*
X0070247Y0051902D01*
X0068779Y0049700D01*
X0068037Y0050067D02*
X0067670Y0049700D01*
X0066936Y0049700D01*
X0066569Y0050067D01*
X0066569Y0050801D01*
X0067303Y0050801D01*
X0066569Y0050801D01*
X0066569Y0050067D01*
X0066936Y0049700D01*
X0067670Y0049700D01*
X0068037Y0050067D01*
X0068037Y0051535D01*
X0067670Y0051902D01*
X0066936Y0051902D01*
X0066569Y0051535D01*
X0066936Y0051902D01*
X0067670Y0051902D01*
X0068037Y0051535D01*
X0068037Y0050067D01*
X0070987Y0049700D02*
X0071720Y0049700D01*
X0070987Y0049700D01*
X0071354Y0049700D02*
X0071354Y0051902D01*
X0071354Y0049700D01*
X0072462Y0049700D02*
X0072462Y0051902D01*
X0072462Y0049700D01*
X0073930Y0051902D01*
X0073930Y0049700D01*
X0073930Y0051902D01*
X0072462Y0049700D01*
X0072829Y0047568D02*
X0072462Y0047201D01*
X0072462Y0046834D01*
X0073930Y0046834D01*
X0072462Y0046834D01*
X0072462Y0047201D01*
X0072829Y0047568D01*
X0073563Y0047568D01*
X0073930Y0047201D01*
X0073930Y0046467D01*
X0073563Y0046100D01*
X0072829Y0046100D01*
X0073563Y0046100D01*
X0073930Y0046467D01*
X0073930Y0047201D01*
X0073563Y0047568D01*
X0072829Y0047568D01*
X0074672Y0047201D02*
X0074672Y0046100D01*
X0074672Y0047201D01*
X0075039Y0047568D01*
X0075773Y0047568D01*
X0076140Y0047201D01*
X0075773Y0047568D01*
X0075039Y0047568D01*
X0074672Y0047201D01*
X0076140Y0048302D02*
X0076140Y0046100D01*
X0076140Y0048302D01*
X0076882Y0047568D02*
X0077983Y0047568D01*
X0078350Y0047201D01*
X0078350Y0046467D01*
X0077983Y0046100D01*
X0076882Y0046100D01*
X0077983Y0046100D01*
X0078350Y0046467D01*
X0078350Y0047201D01*
X0077983Y0047568D01*
X0076882Y0047568D01*
X0076882Y0049700D02*
X0076882Y0051168D01*
X0077616Y0051902D01*
X0078350Y0051168D01*
X0078350Y0049700D01*
X0078350Y0051168D01*
X0077616Y0051902D01*
X0076882Y0051168D01*
X0076882Y0049700D01*
X0076140Y0049700D02*
X0076140Y0051902D01*
X0075039Y0051902D01*
X0074672Y0051535D01*
X0074672Y0050801D01*
X0075039Y0050434D01*
X0076140Y0050434D01*
X0075039Y0050434D01*
X0074672Y0050801D01*
X0074672Y0051535D01*
X0075039Y0051902D01*
X0076140Y0051902D01*
X0076140Y0049700D01*
X0075406Y0050434D02*
X0074672Y0049700D01*
X0075406Y0050434D01*
X0076882Y0050801D02*
X0078350Y0050801D01*
X0076882Y0050801D01*
X0079092Y0049700D02*
X0079092Y0051902D01*
X0079092Y0049700D01*
X0079826Y0050434D01*
X0080560Y0049700D01*
X0080560Y0051902D01*
X0080560Y0049700D01*
X0079826Y0050434D01*
X0079092Y0049700D01*
X0081302Y0047568D02*
X0082403Y0047568D01*
X0082770Y0047201D01*
X0082403Y0046834D01*
X0081669Y0046834D01*
X0081302Y0046467D01*
X0081669Y0046100D01*
X0082770Y0046100D01*
X0081669Y0046100D01*
X0081302Y0046467D01*
X0081669Y0046834D01*
X0082403Y0046834D01*
X0082770Y0047201D01*
X0082403Y0047568D01*
X0081302Y0047568D01*
X0081666Y0045069D02*
X0081666Y0044702D01*
X0081666Y0045069D01*
X0081666Y0043968D02*
X0081666Y0042500D01*
X0081666Y0043968D01*
X0082033Y0043968D01*
X0081666Y0043968D01*
X0082775Y0043601D02*
X0082775Y0042500D01*
X0082775Y0043601D01*
X0083142Y0043968D01*
X0084243Y0043968D01*
X0084243Y0042500D01*
X0084243Y0043968D01*
X0083142Y0043968D01*
X0082775Y0043601D01*
X0082033Y0042500D02*
X0081299Y0042500D01*
X0082033Y0042500D01*
X0080560Y0042867D02*
X0080193Y0043234D01*
X0079092Y0043234D01*
X0080193Y0043234D01*
X0080560Y0042867D01*
X0080193Y0042500D01*
X0079092Y0042500D01*
X0079092Y0043601D01*
X0079459Y0043968D01*
X0080193Y0043968D01*
X0079459Y0043968D01*
X0079092Y0043601D01*
X0079092Y0042500D01*
X0080193Y0042500D01*
X0080560Y0042867D01*
X0080560Y0040368D02*
X0080560Y0038900D01*
X0080560Y0040368D01*
X0079826Y0040368D02*
X0079459Y0040368D01*
X0079826Y0040368D01*
X0080560Y0039634D01*
X0079826Y0040368D01*
X0078718Y0040001D02*
X0078718Y0039267D01*
X0078351Y0038900D01*
X0077617Y0038900D01*
X0077250Y0039267D01*
X0077250Y0040001D01*
X0077617Y0040368D01*
X0078351Y0040368D01*
X0078718Y0040001D01*
X0078718Y0039267D01*
X0078351Y0038900D01*
X0077617Y0038900D01*
X0077250Y0039267D01*
X0077250Y0040001D01*
X0077617Y0040368D01*
X0078351Y0040368D01*
X0078718Y0040001D01*
X0076509Y0040001D02*
X0076142Y0040368D01*
X0075041Y0040368D01*
X0076142Y0040368D01*
X0076509Y0040001D01*
X0076509Y0039267D01*
X0076142Y0038900D01*
X0075041Y0038900D01*
X0075041Y0041102D01*
X0075041Y0038900D01*
X0076142Y0038900D01*
X0076509Y0039267D01*
X0076509Y0040001D01*
X0074299Y0040368D02*
X0074299Y0039267D01*
X0073932Y0038900D01*
X0072831Y0038900D01*
X0072831Y0040368D01*
X0072831Y0038900D01*
X0073932Y0038900D01*
X0074299Y0039267D01*
X0074299Y0040368D01*
X0074300Y0042500D02*
X0073566Y0042500D01*
X0073199Y0042867D01*
X0073199Y0043601D01*
X0073566Y0043968D01*
X0074300Y0043968D01*
X0074667Y0043601D01*
X0074667Y0042867D01*
X0074300Y0042500D01*
X0074667Y0042867D01*
X0074667Y0043601D01*
X0074300Y0043968D01*
X0073566Y0043968D01*
X0073199Y0043601D01*
X0073199Y0042867D01*
X0073566Y0042500D01*
X0074300Y0042500D01*
X0075406Y0042500D02*
X0075773Y0042867D01*
X0075773Y0044335D01*
X0075773Y0042867D01*
X0075406Y0042500D01*
X0075406Y0043968D02*
X0076140Y0043968D01*
X0075406Y0043968D01*
X0071722Y0040368D02*
X0070621Y0040368D01*
X0071722Y0040368D01*
X0072089Y0040001D01*
X0072089Y0039267D01*
X0071722Y0038900D01*
X0070621Y0038900D01*
X0071722Y0038900D01*
X0072089Y0039267D01*
X0072089Y0040001D01*
X0071722Y0040368D01*
X0069879Y0040368D02*
X0069145Y0040368D01*
X0069879Y0040368D01*
X0069512Y0040735D02*
X0069512Y0039267D01*
X0069145Y0038900D01*
X0069512Y0039267D01*
X0069512Y0040735D01*
X0068406Y0040368D02*
X0068039Y0040368D01*
X0068039Y0038900D01*
X0068039Y0040368D01*
X0068406Y0040368D01*
X0068039Y0041102D02*
X0068039Y0041469D01*
X0068039Y0041102D01*
X0066932Y0040368D02*
X0066198Y0038900D01*
X0065464Y0040368D01*
X0066198Y0038900D01*
X0066932Y0040368D01*
X0067672Y0038900D02*
X0068406Y0038900D01*
X0067672Y0038900D01*
X0064723Y0039267D02*
X0064723Y0040001D01*
X0064356Y0040368D01*
X0063622Y0040368D01*
X0063255Y0040001D01*
X0063255Y0039634D01*
X0064723Y0039634D01*
X0063255Y0039634D01*
X0063255Y0040001D01*
X0063622Y0040368D01*
X0064356Y0040368D01*
X0064723Y0040001D01*
X0064723Y0039267D01*
X0064356Y0038900D01*
X0063622Y0038900D01*
X0064356Y0038900D01*
X0064723Y0039267D01*
X0064723Y0031700D02*
X0063989Y0031700D01*
X0064723Y0031700D01*
X0065462Y0031700D02*
X0066196Y0031700D01*
X0065462Y0031700D01*
X0081302Y0039267D02*
X0081669Y0038900D01*
X0082770Y0038900D01*
X0081669Y0038900D01*
X0081302Y0039267D01*
X0081302Y0040001D01*
X0081669Y0040368D01*
X0082770Y0040368D01*
X0082770Y0038166D01*
X0082770Y0040368D01*
X0081669Y0040368D01*
X0081302Y0040001D01*
X0081302Y0039267D01*
X0083512Y0039634D02*
X0084980Y0039634D01*
X0083512Y0039634D01*
X0083512Y0040001D01*
X0083879Y0040368D01*
X0084613Y0040368D01*
X0084980Y0040001D01*
X0084980Y0039267D01*
X0084613Y0038900D01*
X0083879Y0038900D01*
X0084613Y0038900D01*
X0084980Y0039267D01*
X0084980Y0040001D01*
X0084613Y0040368D01*
X0083879Y0040368D01*
X0083512Y0040001D01*
X0083512Y0039634D01*
X0085720Y0040368D02*
X0086087Y0040368D01*
X0086821Y0039634D01*
X0086087Y0040368D01*
X0085720Y0040368D01*
X0086821Y0040368D02*
X0086821Y0038900D01*
X0086821Y0040368D01*
X0087194Y0042500D02*
X0086827Y0042867D01*
X0086827Y0043601D01*
X0087194Y0043968D01*
X0087928Y0043968D01*
X0088295Y0043601D01*
X0088295Y0042867D01*
X0087928Y0042500D01*
X0087194Y0042500D01*
X0086827Y0042867D01*
X0086827Y0043601D01*
X0087194Y0043968D01*
X0087928Y0043968D01*
X0088295Y0043601D01*
X0088295Y0042867D01*
X0087928Y0042500D01*
X0087194Y0042500D01*
X0086085Y0042500D02*
X0086085Y0043968D01*
X0086085Y0042500D01*
X0086085Y0043234D02*
X0085351Y0043968D01*
X0084984Y0043968D01*
X0085351Y0043968D01*
X0086085Y0043234D01*
X0086086Y0046100D02*
X0086086Y0047568D01*
X0086453Y0047568D01*
X0086086Y0047568D01*
X0086086Y0046100D01*
X0086453Y0046100D02*
X0085719Y0046100D01*
X0086453Y0046100D01*
X0087195Y0046100D02*
X0087195Y0047201D01*
X0087562Y0047568D01*
X0088296Y0047568D01*
X0087562Y0047568D01*
X0087195Y0047201D01*
X0087195Y0046100D01*
X0088296Y0046100D01*
X0088663Y0046467D01*
X0088296Y0046834D01*
X0087195Y0046834D01*
X0088296Y0046834D01*
X0088663Y0046467D01*
X0088296Y0046100D01*
X0087195Y0046100D01*
X0089402Y0046100D02*
X0089769Y0046467D01*
X0089769Y0047935D01*
X0089769Y0046467D01*
X0089402Y0046100D01*
X0089402Y0047568D02*
X0090136Y0047568D01*
X0089402Y0047568D01*
X0090141Y0049700D02*
X0090141Y0051902D01*
X0090141Y0049700D01*
X0091609Y0051902D01*
X0091609Y0049700D01*
X0091609Y0051902D01*
X0090141Y0049700D01*
X0092351Y0050067D02*
X0092351Y0051535D01*
X0092718Y0051902D01*
X0093452Y0051902D01*
X0093819Y0051535D01*
X0093819Y0050067D01*
X0093452Y0049700D01*
X0092718Y0049700D01*
X0092351Y0050067D01*
X0092351Y0051535D01*
X0092718Y0051902D01*
X0093452Y0051902D01*
X0093819Y0051535D01*
X0093819Y0050067D01*
X0093452Y0049700D01*
X0092718Y0049700D01*
X0092351Y0050067D01*
X0094559Y0049700D02*
X0095293Y0049700D01*
X0094559Y0049700D01*
X0094926Y0049700D02*
X0094926Y0051902D01*
X0094926Y0049700D01*
X0096768Y0049700D02*
X0096768Y0051902D01*
X0096768Y0049700D01*
X0098242Y0049700D02*
X0098976Y0049700D01*
X0098242Y0049700D01*
X0098609Y0049700D02*
X0098609Y0051902D01*
X0098609Y0049700D01*
X0098976Y0051902D02*
X0098242Y0051902D01*
X0098976Y0051902D01*
X0097502Y0051902D02*
X0096034Y0051902D01*
X0097502Y0051902D01*
X0095293Y0051902D02*
X0094559Y0051902D01*
X0095293Y0051902D01*
X0087190Y0050801D02*
X0087190Y0050067D01*
X0086823Y0049700D01*
X0086089Y0049700D01*
X0085722Y0050067D01*
X0085722Y0050434D01*
X0086089Y0050801D01*
X0087190Y0050801D01*
X0086456Y0051535D01*
X0085722Y0051902D01*
X0086456Y0051535D01*
X0087190Y0050801D01*
X0086089Y0050801D01*
X0085722Y0050434D01*
X0085722Y0050067D01*
X0086089Y0049700D01*
X0086823Y0049700D01*
X0087190Y0050067D01*
X0087190Y0050801D01*
X0086086Y0048669D02*
X0086086Y0048302D01*
X0086086Y0048669D01*
X0084980Y0047568D02*
X0083879Y0047568D01*
X0083512Y0047201D01*
X0083512Y0046100D01*
X0083512Y0047201D01*
X0083879Y0047568D01*
X0084980Y0047568D01*
X0084980Y0046100D01*
X0084980Y0047568D01*
X0084613Y0049700D02*
X0084980Y0050067D01*
X0084613Y0049700D01*
X0083879Y0049700D01*
X0083512Y0050067D01*
X0083512Y0050801D01*
X0083879Y0051168D01*
X0084246Y0051168D01*
X0084980Y0050801D01*
X0084980Y0051902D01*
X0083512Y0051902D01*
X0084980Y0051902D01*
X0084980Y0050801D01*
X0084246Y0051168D01*
X0083879Y0051168D01*
X0083512Y0050801D01*
X0083512Y0050067D01*
X0083879Y0049700D01*
X0084613Y0049700D01*
X0071720Y0051902D02*
X0070987Y0051902D01*
X0071720Y0051902D01*
X0083144Y0036768D02*
X0083144Y0035667D01*
X0083510Y0035300D01*
X0083877Y0035667D01*
X0084244Y0035300D01*
X0084611Y0035667D01*
X0084611Y0036768D01*
X0084611Y0035667D01*
X0084244Y0035300D01*
X0083877Y0035667D01*
X0083510Y0035300D01*
X0083144Y0035667D01*
X0083144Y0036768D01*
M02*
