G75*
%MOIN*%
%OFA0B0*%
%FSLAX25Y25*%
%IPPOS*%
%LPD*%
%AMOC8*
5,1,8,0,0,1.08239X$1,22.5*
%
%ADD10C,0.00000*%
%ADD11OC8,0.05200*%
%ADD12C,0.05200*%
%ADD13C,0.05200*%
%ADD14C,0.05937*%
%ADD15C,0.01600*%
%ADD16C,0.01200*%
%ADD17C,0.05315*%
%ADD18C,0.04000*%
D10*
X0001800Y0001800D02*
X0001800Y0191761D01*
X0190501Y0191761D01*
X0190501Y0001800D01*
X0001800Y0001800D01*
X0016288Y0021800D02*
X0016290Y0021948D01*
X0016296Y0022096D01*
X0016306Y0022244D01*
X0016320Y0022391D01*
X0016338Y0022538D01*
X0016359Y0022684D01*
X0016385Y0022830D01*
X0016415Y0022975D01*
X0016448Y0023119D01*
X0016486Y0023262D01*
X0016527Y0023404D01*
X0016572Y0023545D01*
X0016620Y0023685D01*
X0016673Y0023824D01*
X0016729Y0023961D01*
X0016789Y0024096D01*
X0016852Y0024230D01*
X0016919Y0024362D01*
X0016990Y0024492D01*
X0017064Y0024620D01*
X0017141Y0024746D01*
X0017222Y0024870D01*
X0017306Y0024992D01*
X0017393Y0025111D01*
X0017484Y0025228D01*
X0017578Y0025343D01*
X0017674Y0025455D01*
X0017774Y0025565D01*
X0017876Y0025671D01*
X0017982Y0025775D01*
X0018090Y0025876D01*
X0018201Y0025974D01*
X0018314Y0026070D01*
X0018430Y0026162D01*
X0018548Y0026251D01*
X0018669Y0026336D01*
X0018792Y0026419D01*
X0018917Y0026498D01*
X0019044Y0026574D01*
X0019173Y0026646D01*
X0019304Y0026715D01*
X0019437Y0026780D01*
X0019572Y0026841D01*
X0019708Y0026899D01*
X0019845Y0026954D01*
X0019984Y0027004D01*
X0020125Y0027051D01*
X0020266Y0027094D01*
X0020409Y0027134D01*
X0020553Y0027169D01*
X0020697Y0027201D01*
X0020843Y0027228D01*
X0020989Y0027252D01*
X0021136Y0027272D01*
X0021283Y0027288D01*
X0021430Y0027300D01*
X0021578Y0027308D01*
X0021726Y0027312D01*
X0021874Y0027312D01*
X0022022Y0027308D01*
X0022170Y0027300D01*
X0022317Y0027288D01*
X0022464Y0027272D01*
X0022611Y0027252D01*
X0022757Y0027228D01*
X0022903Y0027201D01*
X0023047Y0027169D01*
X0023191Y0027134D01*
X0023334Y0027094D01*
X0023475Y0027051D01*
X0023616Y0027004D01*
X0023755Y0026954D01*
X0023892Y0026899D01*
X0024028Y0026841D01*
X0024163Y0026780D01*
X0024296Y0026715D01*
X0024427Y0026646D01*
X0024556Y0026574D01*
X0024683Y0026498D01*
X0024808Y0026419D01*
X0024931Y0026336D01*
X0025052Y0026251D01*
X0025170Y0026162D01*
X0025286Y0026070D01*
X0025399Y0025974D01*
X0025510Y0025876D01*
X0025618Y0025775D01*
X0025724Y0025671D01*
X0025826Y0025565D01*
X0025926Y0025455D01*
X0026022Y0025343D01*
X0026116Y0025228D01*
X0026207Y0025111D01*
X0026294Y0024992D01*
X0026378Y0024870D01*
X0026459Y0024746D01*
X0026536Y0024620D01*
X0026610Y0024492D01*
X0026681Y0024362D01*
X0026748Y0024230D01*
X0026811Y0024096D01*
X0026871Y0023961D01*
X0026927Y0023824D01*
X0026980Y0023685D01*
X0027028Y0023545D01*
X0027073Y0023404D01*
X0027114Y0023262D01*
X0027152Y0023119D01*
X0027185Y0022975D01*
X0027215Y0022830D01*
X0027241Y0022684D01*
X0027262Y0022538D01*
X0027280Y0022391D01*
X0027294Y0022244D01*
X0027304Y0022096D01*
X0027310Y0021948D01*
X0027312Y0021800D01*
X0027310Y0021652D01*
X0027304Y0021504D01*
X0027294Y0021356D01*
X0027280Y0021209D01*
X0027262Y0021062D01*
X0027241Y0020916D01*
X0027215Y0020770D01*
X0027185Y0020625D01*
X0027152Y0020481D01*
X0027114Y0020338D01*
X0027073Y0020196D01*
X0027028Y0020055D01*
X0026980Y0019915D01*
X0026927Y0019776D01*
X0026871Y0019639D01*
X0026811Y0019504D01*
X0026748Y0019370D01*
X0026681Y0019238D01*
X0026610Y0019108D01*
X0026536Y0018980D01*
X0026459Y0018854D01*
X0026378Y0018730D01*
X0026294Y0018608D01*
X0026207Y0018489D01*
X0026116Y0018372D01*
X0026022Y0018257D01*
X0025926Y0018145D01*
X0025826Y0018035D01*
X0025724Y0017929D01*
X0025618Y0017825D01*
X0025510Y0017724D01*
X0025399Y0017626D01*
X0025286Y0017530D01*
X0025170Y0017438D01*
X0025052Y0017349D01*
X0024931Y0017264D01*
X0024808Y0017181D01*
X0024683Y0017102D01*
X0024556Y0017026D01*
X0024427Y0016954D01*
X0024296Y0016885D01*
X0024163Y0016820D01*
X0024028Y0016759D01*
X0023892Y0016701D01*
X0023755Y0016646D01*
X0023616Y0016596D01*
X0023475Y0016549D01*
X0023334Y0016506D01*
X0023191Y0016466D01*
X0023047Y0016431D01*
X0022903Y0016399D01*
X0022757Y0016372D01*
X0022611Y0016348D01*
X0022464Y0016328D01*
X0022317Y0016312D01*
X0022170Y0016300D01*
X0022022Y0016292D01*
X0021874Y0016288D01*
X0021726Y0016288D01*
X0021578Y0016292D01*
X0021430Y0016300D01*
X0021283Y0016312D01*
X0021136Y0016328D01*
X0020989Y0016348D01*
X0020843Y0016372D01*
X0020697Y0016399D01*
X0020553Y0016431D01*
X0020409Y0016466D01*
X0020266Y0016506D01*
X0020125Y0016549D01*
X0019984Y0016596D01*
X0019845Y0016646D01*
X0019708Y0016701D01*
X0019572Y0016759D01*
X0019437Y0016820D01*
X0019304Y0016885D01*
X0019173Y0016954D01*
X0019044Y0017026D01*
X0018917Y0017102D01*
X0018792Y0017181D01*
X0018669Y0017264D01*
X0018548Y0017349D01*
X0018430Y0017438D01*
X0018314Y0017530D01*
X0018201Y0017626D01*
X0018090Y0017724D01*
X0017982Y0017825D01*
X0017876Y0017929D01*
X0017774Y0018035D01*
X0017674Y0018145D01*
X0017578Y0018257D01*
X0017484Y0018372D01*
X0017393Y0018489D01*
X0017306Y0018608D01*
X0017222Y0018730D01*
X0017141Y0018854D01*
X0017064Y0018980D01*
X0016990Y0019108D01*
X0016919Y0019238D01*
X0016852Y0019370D01*
X0016789Y0019504D01*
X0016729Y0019639D01*
X0016673Y0019776D01*
X0016620Y0019915D01*
X0016572Y0020055D01*
X0016527Y0020196D01*
X0016486Y0020338D01*
X0016448Y0020481D01*
X0016415Y0020625D01*
X0016385Y0020770D01*
X0016359Y0020916D01*
X0016338Y0021062D01*
X0016320Y0021209D01*
X0016306Y0021356D01*
X0016296Y0021504D01*
X0016290Y0021652D01*
X0016288Y0021800D01*
X0016288Y0171800D02*
X0016290Y0171948D01*
X0016296Y0172096D01*
X0016306Y0172244D01*
X0016320Y0172391D01*
X0016338Y0172538D01*
X0016359Y0172684D01*
X0016385Y0172830D01*
X0016415Y0172975D01*
X0016448Y0173119D01*
X0016486Y0173262D01*
X0016527Y0173404D01*
X0016572Y0173545D01*
X0016620Y0173685D01*
X0016673Y0173824D01*
X0016729Y0173961D01*
X0016789Y0174096D01*
X0016852Y0174230D01*
X0016919Y0174362D01*
X0016990Y0174492D01*
X0017064Y0174620D01*
X0017141Y0174746D01*
X0017222Y0174870D01*
X0017306Y0174992D01*
X0017393Y0175111D01*
X0017484Y0175228D01*
X0017578Y0175343D01*
X0017674Y0175455D01*
X0017774Y0175565D01*
X0017876Y0175671D01*
X0017982Y0175775D01*
X0018090Y0175876D01*
X0018201Y0175974D01*
X0018314Y0176070D01*
X0018430Y0176162D01*
X0018548Y0176251D01*
X0018669Y0176336D01*
X0018792Y0176419D01*
X0018917Y0176498D01*
X0019044Y0176574D01*
X0019173Y0176646D01*
X0019304Y0176715D01*
X0019437Y0176780D01*
X0019572Y0176841D01*
X0019708Y0176899D01*
X0019845Y0176954D01*
X0019984Y0177004D01*
X0020125Y0177051D01*
X0020266Y0177094D01*
X0020409Y0177134D01*
X0020553Y0177169D01*
X0020697Y0177201D01*
X0020843Y0177228D01*
X0020989Y0177252D01*
X0021136Y0177272D01*
X0021283Y0177288D01*
X0021430Y0177300D01*
X0021578Y0177308D01*
X0021726Y0177312D01*
X0021874Y0177312D01*
X0022022Y0177308D01*
X0022170Y0177300D01*
X0022317Y0177288D01*
X0022464Y0177272D01*
X0022611Y0177252D01*
X0022757Y0177228D01*
X0022903Y0177201D01*
X0023047Y0177169D01*
X0023191Y0177134D01*
X0023334Y0177094D01*
X0023475Y0177051D01*
X0023616Y0177004D01*
X0023755Y0176954D01*
X0023892Y0176899D01*
X0024028Y0176841D01*
X0024163Y0176780D01*
X0024296Y0176715D01*
X0024427Y0176646D01*
X0024556Y0176574D01*
X0024683Y0176498D01*
X0024808Y0176419D01*
X0024931Y0176336D01*
X0025052Y0176251D01*
X0025170Y0176162D01*
X0025286Y0176070D01*
X0025399Y0175974D01*
X0025510Y0175876D01*
X0025618Y0175775D01*
X0025724Y0175671D01*
X0025826Y0175565D01*
X0025926Y0175455D01*
X0026022Y0175343D01*
X0026116Y0175228D01*
X0026207Y0175111D01*
X0026294Y0174992D01*
X0026378Y0174870D01*
X0026459Y0174746D01*
X0026536Y0174620D01*
X0026610Y0174492D01*
X0026681Y0174362D01*
X0026748Y0174230D01*
X0026811Y0174096D01*
X0026871Y0173961D01*
X0026927Y0173824D01*
X0026980Y0173685D01*
X0027028Y0173545D01*
X0027073Y0173404D01*
X0027114Y0173262D01*
X0027152Y0173119D01*
X0027185Y0172975D01*
X0027215Y0172830D01*
X0027241Y0172684D01*
X0027262Y0172538D01*
X0027280Y0172391D01*
X0027294Y0172244D01*
X0027304Y0172096D01*
X0027310Y0171948D01*
X0027312Y0171800D01*
X0027310Y0171652D01*
X0027304Y0171504D01*
X0027294Y0171356D01*
X0027280Y0171209D01*
X0027262Y0171062D01*
X0027241Y0170916D01*
X0027215Y0170770D01*
X0027185Y0170625D01*
X0027152Y0170481D01*
X0027114Y0170338D01*
X0027073Y0170196D01*
X0027028Y0170055D01*
X0026980Y0169915D01*
X0026927Y0169776D01*
X0026871Y0169639D01*
X0026811Y0169504D01*
X0026748Y0169370D01*
X0026681Y0169238D01*
X0026610Y0169108D01*
X0026536Y0168980D01*
X0026459Y0168854D01*
X0026378Y0168730D01*
X0026294Y0168608D01*
X0026207Y0168489D01*
X0026116Y0168372D01*
X0026022Y0168257D01*
X0025926Y0168145D01*
X0025826Y0168035D01*
X0025724Y0167929D01*
X0025618Y0167825D01*
X0025510Y0167724D01*
X0025399Y0167626D01*
X0025286Y0167530D01*
X0025170Y0167438D01*
X0025052Y0167349D01*
X0024931Y0167264D01*
X0024808Y0167181D01*
X0024683Y0167102D01*
X0024556Y0167026D01*
X0024427Y0166954D01*
X0024296Y0166885D01*
X0024163Y0166820D01*
X0024028Y0166759D01*
X0023892Y0166701D01*
X0023755Y0166646D01*
X0023616Y0166596D01*
X0023475Y0166549D01*
X0023334Y0166506D01*
X0023191Y0166466D01*
X0023047Y0166431D01*
X0022903Y0166399D01*
X0022757Y0166372D01*
X0022611Y0166348D01*
X0022464Y0166328D01*
X0022317Y0166312D01*
X0022170Y0166300D01*
X0022022Y0166292D01*
X0021874Y0166288D01*
X0021726Y0166288D01*
X0021578Y0166292D01*
X0021430Y0166300D01*
X0021283Y0166312D01*
X0021136Y0166328D01*
X0020989Y0166348D01*
X0020843Y0166372D01*
X0020697Y0166399D01*
X0020553Y0166431D01*
X0020409Y0166466D01*
X0020266Y0166506D01*
X0020125Y0166549D01*
X0019984Y0166596D01*
X0019845Y0166646D01*
X0019708Y0166701D01*
X0019572Y0166759D01*
X0019437Y0166820D01*
X0019304Y0166885D01*
X0019173Y0166954D01*
X0019044Y0167026D01*
X0018917Y0167102D01*
X0018792Y0167181D01*
X0018669Y0167264D01*
X0018548Y0167349D01*
X0018430Y0167438D01*
X0018314Y0167530D01*
X0018201Y0167626D01*
X0018090Y0167724D01*
X0017982Y0167825D01*
X0017876Y0167929D01*
X0017774Y0168035D01*
X0017674Y0168145D01*
X0017578Y0168257D01*
X0017484Y0168372D01*
X0017393Y0168489D01*
X0017306Y0168608D01*
X0017222Y0168730D01*
X0017141Y0168854D01*
X0017064Y0168980D01*
X0016990Y0169108D01*
X0016919Y0169238D01*
X0016852Y0169370D01*
X0016789Y0169504D01*
X0016729Y0169639D01*
X0016673Y0169776D01*
X0016620Y0169915D01*
X0016572Y0170055D01*
X0016527Y0170196D01*
X0016486Y0170338D01*
X0016448Y0170481D01*
X0016415Y0170625D01*
X0016385Y0170770D01*
X0016359Y0170916D01*
X0016338Y0171062D01*
X0016320Y0171209D01*
X0016306Y0171356D01*
X0016296Y0171504D01*
X0016290Y0171652D01*
X0016288Y0171800D01*
X0166288Y0171800D02*
X0166290Y0171948D01*
X0166296Y0172096D01*
X0166306Y0172244D01*
X0166320Y0172391D01*
X0166338Y0172538D01*
X0166359Y0172684D01*
X0166385Y0172830D01*
X0166415Y0172975D01*
X0166448Y0173119D01*
X0166486Y0173262D01*
X0166527Y0173404D01*
X0166572Y0173545D01*
X0166620Y0173685D01*
X0166673Y0173824D01*
X0166729Y0173961D01*
X0166789Y0174096D01*
X0166852Y0174230D01*
X0166919Y0174362D01*
X0166990Y0174492D01*
X0167064Y0174620D01*
X0167141Y0174746D01*
X0167222Y0174870D01*
X0167306Y0174992D01*
X0167393Y0175111D01*
X0167484Y0175228D01*
X0167578Y0175343D01*
X0167674Y0175455D01*
X0167774Y0175565D01*
X0167876Y0175671D01*
X0167982Y0175775D01*
X0168090Y0175876D01*
X0168201Y0175974D01*
X0168314Y0176070D01*
X0168430Y0176162D01*
X0168548Y0176251D01*
X0168669Y0176336D01*
X0168792Y0176419D01*
X0168917Y0176498D01*
X0169044Y0176574D01*
X0169173Y0176646D01*
X0169304Y0176715D01*
X0169437Y0176780D01*
X0169572Y0176841D01*
X0169708Y0176899D01*
X0169845Y0176954D01*
X0169984Y0177004D01*
X0170125Y0177051D01*
X0170266Y0177094D01*
X0170409Y0177134D01*
X0170553Y0177169D01*
X0170697Y0177201D01*
X0170843Y0177228D01*
X0170989Y0177252D01*
X0171136Y0177272D01*
X0171283Y0177288D01*
X0171430Y0177300D01*
X0171578Y0177308D01*
X0171726Y0177312D01*
X0171874Y0177312D01*
X0172022Y0177308D01*
X0172170Y0177300D01*
X0172317Y0177288D01*
X0172464Y0177272D01*
X0172611Y0177252D01*
X0172757Y0177228D01*
X0172903Y0177201D01*
X0173047Y0177169D01*
X0173191Y0177134D01*
X0173334Y0177094D01*
X0173475Y0177051D01*
X0173616Y0177004D01*
X0173755Y0176954D01*
X0173892Y0176899D01*
X0174028Y0176841D01*
X0174163Y0176780D01*
X0174296Y0176715D01*
X0174427Y0176646D01*
X0174556Y0176574D01*
X0174683Y0176498D01*
X0174808Y0176419D01*
X0174931Y0176336D01*
X0175052Y0176251D01*
X0175170Y0176162D01*
X0175286Y0176070D01*
X0175399Y0175974D01*
X0175510Y0175876D01*
X0175618Y0175775D01*
X0175724Y0175671D01*
X0175826Y0175565D01*
X0175926Y0175455D01*
X0176022Y0175343D01*
X0176116Y0175228D01*
X0176207Y0175111D01*
X0176294Y0174992D01*
X0176378Y0174870D01*
X0176459Y0174746D01*
X0176536Y0174620D01*
X0176610Y0174492D01*
X0176681Y0174362D01*
X0176748Y0174230D01*
X0176811Y0174096D01*
X0176871Y0173961D01*
X0176927Y0173824D01*
X0176980Y0173685D01*
X0177028Y0173545D01*
X0177073Y0173404D01*
X0177114Y0173262D01*
X0177152Y0173119D01*
X0177185Y0172975D01*
X0177215Y0172830D01*
X0177241Y0172684D01*
X0177262Y0172538D01*
X0177280Y0172391D01*
X0177294Y0172244D01*
X0177304Y0172096D01*
X0177310Y0171948D01*
X0177312Y0171800D01*
X0177310Y0171652D01*
X0177304Y0171504D01*
X0177294Y0171356D01*
X0177280Y0171209D01*
X0177262Y0171062D01*
X0177241Y0170916D01*
X0177215Y0170770D01*
X0177185Y0170625D01*
X0177152Y0170481D01*
X0177114Y0170338D01*
X0177073Y0170196D01*
X0177028Y0170055D01*
X0176980Y0169915D01*
X0176927Y0169776D01*
X0176871Y0169639D01*
X0176811Y0169504D01*
X0176748Y0169370D01*
X0176681Y0169238D01*
X0176610Y0169108D01*
X0176536Y0168980D01*
X0176459Y0168854D01*
X0176378Y0168730D01*
X0176294Y0168608D01*
X0176207Y0168489D01*
X0176116Y0168372D01*
X0176022Y0168257D01*
X0175926Y0168145D01*
X0175826Y0168035D01*
X0175724Y0167929D01*
X0175618Y0167825D01*
X0175510Y0167724D01*
X0175399Y0167626D01*
X0175286Y0167530D01*
X0175170Y0167438D01*
X0175052Y0167349D01*
X0174931Y0167264D01*
X0174808Y0167181D01*
X0174683Y0167102D01*
X0174556Y0167026D01*
X0174427Y0166954D01*
X0174296Y0166885D01*
X0174163Y0166820D01*
X0174028Y0166759D01*
X0173892Y0166701D01*
X0173755Y0166646D01*
X0173616Y0166596D01*
X0173475Y0166549D01*
X0173334Y0166506D01*
X0173191Y0166466D01*
X0173047Y0166431D01*
X0172903Y0166399D01*
X0172757Y0166372D01*
X0172611Y0166348D01*
X0172464Y0166328D01*
X0172317Y0166312D01*
X0172170Y0166300D01*
X0172022Y0166292D01*
X0171874Y0166288D01*
X0171726Y0166288D01*
X0171578Y0166292D01*
X0171430Y0166300D01*
X0171283Y0166312D01*
X0171136Y0166328D01*
X0170989Y0166348D01*
X0170843Y0166372D01*
X0170697Y0166399D01*
X0170553Y0166431D01*
X0170409Y0166466D01*
X0170266Y0166506D01*
X0170125Y0166549D01*
X0169984Y0166596D01*
X0169845Y0166646D01*
X0169708Y0166701D01*
X0169572Y0166759D01*
X0169437Y0166820D01*
X0169304Y0166885D01*
X0169173Y0166954D01*
X0169044Y0167026D01*
X0168917Y0167102D01*
X0168792Y0167181D01*
X0168669Y0167264D01*
X0168548Y0167349D01*
X0168430Y0167438D01*
X0168314Y0167530D01*
X0168201Y0167626D01*
X0168090Y0167724D01*
X0167982Y0167825D01*
X0167876Y0167929D01*
X0167774Y0168035D01*
X0167674Y0168145D01*
X0167578Y0168257D01*
X0167484Y0168372D01*
X0167393Y0168489D01*
X0167306Y0168608D01*
X0167222Y0168730D01*
X0167141Y0168854D01*
X0167064Y0168980D01*
X0166990Y0169108D01*
X0166919Y0169238D01*
X0166852Y0169370D01*
X0166789Y0169504D01*
X0166729Y0169639D01*
X0166673Y0169776D01*
X0166620Y0169915D01*
X0166572Y0170055D01*
X0166527Y0170196D01*
X0166486Y0170338D01*
X0166448Y0170481D01*
X0166415Y0170625D01*
X0166385Y0170770D01*
X0166359Y0170916D01*
X0166338Y0171062D01*
X0166320Y0171209D01*
X0166306Y0171356D01*
X0166296Y0171504D01*
X0166290Y0171652D01*
X0166288Y0171800D01*
X0166288Y0021800D02*
X0166290Y0021948D01*
X0166296Y0022096D01*
X0166306Y0022244D01*
X0166320Y0022391D01*
X0166338Y0022538D01*
X0166359Y0022684D01*
X0166385Y0022830D01*
X0166415Y0022975D01*
X0166448Y0023119D01*
X0166486Y0023262D01*
X0166527Y0023404D01*
X0166572Y0023545D01*
X0166620Y0023685D01*
X0166673Y0023824D01*
X0166729Y0023961D01*
X0166789Y0024096D01*
X0166852Y0024230D01*
X0166919Y0024362D01*
X0166990Y0024492D01*
X0167064Y0024620D01*
X0167141Y0024746D01*
X0167222Y0024870D01*
X0167306Y0024992D01*
X0167393Y0025111D01*
X0167484Y0025228D01*
X0167578Y0025343D01*
X0167674Y0025455D01*
X0167774Y0025565D01*
X0167876Y0025671D01*
X0167982Y0025775D01*
X0168090Y0025876D01*
X0168201Y0025974D01*
X0168314Y0026070D01*
X0168430Y0026162D01*
X0168548Y0026251D01*
X0168669Y0026336D01*
X0168792Y0026419D01*
X0168917Y0026498D01*
X0169044Y0026574D01*
X0169173Y0026646D01*
X0169304Y0026715D01*
X0169437Y0026780D01*
X0169572Y0026841D01*
X0169708Y0026899D01*
X0169845Y0026954D01*
X0169984Y0027004D01*
X0170125Y0027051D01*
X0170266Y0027094D01*
X0170409Y0027134D01*
X0170553Y0027169D01*
X0170697Y0027201D01*
X0170843Y0027228D01*
X0170989Y0027252D01*
X0171136Y0027272D01*
X0171283Y0027288D01*
X0171430Y0027300D01*
X0171578Y0027308D01*
X0171726Y0027312D01*
X0171874Y0027312D01*
X0172022Y0027308D01*
X0172170Y0027300D01*
X0172317Y0027288D01*
X0172464Y0027272D01*
X0172611Y0027252D01*
X0172757Y0027228D01*
X0172903Y0027201D01*
X0173047Y0027169D01*
X0173191Y0027134D01*
X0173334Y0027094D01*
X0173475Y0027051D01*
X0173616Y0027004D01*
X0173755Y0026954D01*
X0173892Y0026899D01*
X0174028Y0026841D01*
X0174163Y0026780D01*
X0174296Y0026715D01*
X0174427Y0026646D01*
X0174556Y0026574D01*
X0174683Y0026498D01*
X0174808Y0026419D01*
X0174931Y0026336D01*
X0175052Y0026251D01*
X0175170Y0026162D01*
X0175286Y0026070D01*
X0175399Y0025974D01*
X0175510Y0025876D01*
X0175618Y0025775D01*
X0175724Y0025671D01*
X0175826Y0025565D01*
X0175926Y0025455D01*
X0176022Y0025343D01*
X0176116Y0025228D01*
X0176207Y0025111D01*
X0176294Y0024992D01*
X0176378Y0024870D01*
X0176459Y0024746D01*
X0176536Y0024620D01*
X0176610Y0024492D01*
X0176681Y0024362D01*
X0176748Y0024230D01*
X0176811Y0024096D01*
X0176871Y0023961D01*
X0176927Y0023824D01*
X0176980Y0023685D01*
X0177028Y0023545D01*
X0177073Y0023404D01*
X0177114Y0023262D01*
X0177152Y0023119D01*
X0177185Y0022975D01*
X0177215Y0022830D01*
X0177241Y0022684D01*
X0177262Y0022538D01*
X0177280Y0022391D01*
X0177294Y0022244D01*
X0177304Y0022096D01*
X0177310Y0021948D01*
X0177312Y0021800D01*
X0177310Y0021652D01*
X0177304Y0021504D01*
X0177294Y0021356D01*
X0177280Y0021209D01*
X0177262Y0021062D01*
X0177241Y0020916D01*
X0177215Y0020770D01*
X0177185Y0020625D01*
X0177152Y0020481D01*
X0177114Y0020338D01*
X0177073Y0020196D01*
X0177028Y0020055D01*
X0176980Y0019915D01*
X0176927Y0019776D01*
X0176871Y0019639D01*
X0176811Y0019504D01*
X0176748Y0019370D01*
X0176681Y0019238D01*
X0176610Y0019108D01*
X0176536Y0018980D01*
X0176459Y0018854D01*
X0176378Y0018730D01*
X0176294Y0018608D01*
X0176207Y0018489D01*
X0176116Y0018372D01*
X0176022Y0018257D01*
X0175926Y0018145D01*
X0175826Y0018035D01*
X0175724Y0017929D01*
X0175618Y0017825D01*
X0175510Y0017724D01*
X0175399Y0017626D01*
X0175286Y0017530D01*
X0175170Y0017438D01*
X0175052Y0017349D01*
X0174931Y0017264D01*
X0174808Y0017181D01*
X0174683Y0017102D01*
X0174556Y0017026D01*
X0174427Y0016954D01*
X0174296Y0016885D01*
X0174163Y0016820D01*
X0174028Y0016759D01*
X0173892Y0016701D01*
X0173755Y0016646D01*
X0173616Y0016596D01*
X0173475Y0016549D01*
X0173334Y0016506D01*
X0173191Y0016466D01*
X0173047Y0016431D01*
X0172903Y0016399D01*
X0172757Y0016372D01*
X0172611Y0016348D01*
X0172464Y0016328D01*
X0172317Y0016312D01*
X0172170Y0016300D01*
X0172022Y0016292D01*
X0171874Y0016288D01*
X0171726Y0016288D01*
X0171578Y0016292D01*
X0171430Y0016300D01*
X0171283Y0016312D01*
X0171136Y0016328D01*
X0170989Y0016348D01*
X0170843Y0016372D01*
X0170697Y0016399D01*
X0170553Y0016431D01*
X0170409Y0016466D01*
X0170266Y0016506D01*
X0170125Y0016549D01*
X0169984Y0016596D01*
X0169845Y0016646D01*
X0169708Y0016701D01*
X0169572Y0016759D01*
X0169437Y0016820D01*
X0169304Y0016885D01*
X0169173Y0016954D01*
X0169044Y0017026D01*
X0168917Y0017102D01*
X0168792Y0017181D01*
X0168669Y0017264D01*
X0168548Y0017349D01*
X0168430Y0017438D01*
X0168314Y0017530D01*
X0168201Y0017626D01*
X0168090Y0017724D01*
X0167982Y0017825D01*
X0167876Y0017929D01*
X0167774Y0018035D01*
X0167674Y0018145D01*
X0167578Y0018257D01*
X0167484Y0018372D01*
X0167393Y0018489D01*
X0167306Y0018608D01*
X0167222Y0018730D01*
X0167141Y0018854D01*
X0167064Y0018980D01*
X0166990Y0019108D01*
X0166919Y0019238D01*
X0166852Y0019370D01*
X0166789Y0019504D01*
X0166729Y0019639D01*
X0166673Y0019776D01*
X0166620Y0019915D01*
X0166572Y0020055D01*
X0166527Y0020196D01*
X0166486Y0020338D01*
X0166448Y0020481D01*
X0166415Y0020625D01*
X0166385Y0020770D01*
X0166359Y0020916D01*
X0166338Y0021062D01*
X0166320Y0021209D01*
X0166306Y0021356D01*
X0166296Y0021504D01*
X0166290Y0021652D01*
X0166288Y0021800D01*
D11*
X0019300Y0054300D03*
X0019300Y0074300D03*
X0019300Y0100300D03*
X0019300Y0129300D03*
X0019300Y0149300D03*
D12*
X0044300Y0144400D02*
X0044300Y0139200D01*
X0054300Y0139200D02*
X0054300Y0144400D01*
X0064300Y0144400D02*
X0064300Y0139200D01*
X0074300Y0139200D02*
X0074300Y0144400D01*
X0084300Y0144400D02*
X0084300Y0139200D01*
X0094300Y0139200D02*
X0094300Y0144400D01*
X0104300Y0144400D02*
X0104300Y0139200D01*
X0104300Y0114400D02*
X0104300Y0109200D01*
X0094300Y0109200D02*
X0094300Y0114400D01*
X0084300Y0114400D02*
X0084300Y0109200D01*
X0074300Y0109200D02*
X0074300Y0114400D01*
X0064300Y0114400D02*
X0064300Y0109200D01*
X0054300Y0109200D02*
X0054300Y0114400D01*
X0044300Y0114400D02*
X0044300Y0109200D01*
X0044300Y0089400D02*
X0044300Y0084200D01*
X0054300Y0084200D02*
X0054300Y0089400D01*
X0064300Y0089400D02*
X0064300Y0084200D01*
X0074300Y0084200D02*
X0074300Y0089400D01*
X0084300Y0089400D02*
X0084300Y0084200D01*
X0094300Y0084200D02*
X0094300Y0089400D01*
X0104300Y0089400D02*
X0104300Y0084200D01*
X0104300Y0059400D02*
X0104300Y0054200D01*
X0094300Y0054200D02*
X0094300Y0059400D01*
X0084300Y0059400D02*
X0084300Y0054200D01*
X0074300Y0054200D02*
X0074300Y0059400D01*
X0064300Y0059400D02*
X0064300Y0054200D01*
X0054300Y0054200D02*
X0054300Y0059400D01*
X0044300Y0059400D02*
X0044300Y0054200D01*
X0134200Y0074300D02*
X0139400Y0074300D01*
X0139400Y0084300D02*
X0134200Y0084300D01*
X0134200Y0094300D02*
X0139400Y0094300D01*
X0139400Y0104300D02*
X0134200Y0104300D01*
X0134200Y0114300D02*
X0139400Y0114300D01*
X0139400Y0124300D02*
X0134200Y0124300D01*
X0134200Y0134300D02*
X0139400Y0134300D01*
X0164200Y0134300D02*
X0169400Y0134300D01*
X0169400Y0124300D02*
X0164200Y0124300D01*
X0164200Y0114300D02*
X0169400Y0114300D01*
X0169400Y0104300D02*
X0164200Y0104300D01*
X0164200Y0094300D02*
X0169400Y0094300D01*
X0169400Y0084300D02*
X0164200Y0084300D01*
X0164200Y0074300D02*
X0169400Y0074300D01*
D13*
X0019300Y0108300D03*
D14*
X0071800Y0168831D02*
X0071800Y0174769D01*
X0081800Y0174769D02*
X0081800Y0168831D01*
X0091800Y0168831D02*
X0091800Y0174769D01*
X0101800Y0174769D02*
X0101800Y0168831D01*
X0111800Y0168831D02*
X0111800Y0174769D01*
X0121800Y0174769D02*
X0121800Y0168831D01*
X0121800Y0024769D02*
X0121800Y0018831D01*
X0111800Y0018831D02*
X0111800Y0024769D01*
X0101800Y0024769D02*
X0101800Y0018831D01*
X0091800Y0018831D02*
X0091800Y0024769D01*
X0081800Y0024769D02*
X0081800Y0018831D01*
X0071800Y0018831D02*
X0071800Y0024769D01*
D15*
X0070017Y0028975D02*
X0034550Y0028975D01*
X0033773Y0030499D02*
X0033773Y0030499D01*
X0030499Y0033773D01*
X0026373Y0035876D01*
X0021800Y0036600D01*
X0017227Y0035876D01*
X0017227Y0035876D01*
X0013101Y0033773D01*
X0009827Y0030499D01*
X0007724Y0026373D01*
X0007000Y0021800D01*
X0007724Y0017227D01*
X0009827Y0013101D01*
X0009827Y0013101D01*
X0013101Y0009827D01*
X0017227Y0007724D01*
X0021800Y0007000D01*
X0026373Y0007724D01*
X0026373Y0007724D01*
X0030499Y0009827D01*
X0033773Y0013101D01*
X0035876Y0017227D01*
X0036600Y0021800D01*
X0035876Y0026373D01*
X0035876Y0026373D01*
X0033773Y0030499D01*
X0033699Y0030573D02*
X0074962Y0030573D01*
X0073428Y0029039D02*
X0072709Y0029337D01*
X0070891Y0029337D01*
X0069212Y0028641D01*
X0067927Y0027356D01*
X0067231Y0025677D01*
X0067231Y0017923D01*
X0067927Y0016244D01*
X0069212Y0014959D01*
X0070891Y0014263D01*
X0072709Y0014263D01*
X0074388Y0014959D01*
X0075673Y0016244D01*
X0076368Y0017923D01*
X0076368Y0025677D01*
X0076345Y0025734D01*
X0077898Y0027287D01*
X0077231Y0025677D01*
X0077231Y0017923D01*
X0077927Y0016244D01*
X0079212Y0014959D01*
X0080891Y0014263D01*
X0082709Y0014263D01*
X0084388Y0014959D01*
X0085673Y0016244D01*
X0086368Y0017923D01*
X0086368Y0025677D01*
X0085673Y0027356D01*
X0085570Y0027459D01*
X0095211Y0037100D01*
X0150211Y0037100D01*
X0157711Y0044600D01*
X0159000Y0045889D01*
X0159000Y0118389D01*
X0161586Y0120975D01*
X0161821Y0120739D01*
X0163365Y0120100D01*
X0170235Y0120100D01*
X0171779Y0120739D01*
X0172961Y0121921D01*
X0173600Y0123465D01*
X0173600Y0125135D01*
X0172961Y0126679D01*
X0171779Y0127861D01*
X0170235Y0128500D01*
X0163365Y0128500D01*
X0161821Y0127861D01*
X0160639Y0126679D01*
X0160336Y0125948D01*
X0159600Y0125211D01*
X0154600Y0120211D01*
X0154600Y0047711D01*
X0148389Y0041500D01*
X0093389Y0041500D01*
X0092100Y0040211D01*
X0081226Y0029337D01*
X0080891Y0029337D01*
X0079281Y0028670D01*
X0092711Y0042100D01*
X0147711Y0042100D01*
X0152711Y0047100D01*
X0154000Y0048389D01*
X0154000Y0125889D01*
X0160211Y0132100D01*
X0160565Y0132100D01*
X0160639Y0131921D01*
X0161821Y0130739D01*
X0163365Y0130100D01*
X0170235Y0130100D01*
X0171779Y0130739D01*
X0172961Y0131921D01*
X0173600Y0133465D01*
X0173600Y0135135D01*
X0172961Y0136679D01*
X0171779Y0137861D01*
X0170235Y0138500D01*
X0163365Y0138500D01*
X0161821Y0137861D01*
X0160639Y0136679D01*
X0160565Y0136500D01*
X0158389Y0136500D01*
X0157100Y0135211D01*
X0149600Y0127711D01*
X0149600Y0050211D01*
X0145889Y0046500D01*
X0090889Y0046500D01*
X0089600Y0045211D01*
X0073428Y0029039D01*
X0076389Y0025778D02*
X0077273Y0025778D01*
X0077231Y0024179D02*
X0076368Y0024179D01*
X0076368Y0022581D02*
X0077231Y0022581D01*
X0077231Y0020982D02*
X0076368Y0020982D01*
X0076368Y0019384D02*
X0077231Y0019384D01*
X0077288Y0017785D02*
X0076311Y0017785D01*
X0075616Y0016187D02*
X0077984Y0016187D01*
X0080106Y0014588D02*
X0073494Y0014588D01*
X0070106Y0014588D02*
X0034531Y0014588D01*
X0033773Y0013101D02*
X0033773Y0013101D01*
X0033662Y0012990D02*
X0159938Y0012990D01*
X0159827Y0013101D02*
X0163101Y0009827D01*
X0167227Y0007724D01*
X0171800Y0007000D01*
X0176373Y0007724D01*
X0176373Y0007724D01*
X0180499Y0009827D01*
X0183773Y0013101D01*
X0185701Y0016883D01*
X0185701Y0006600D01*
X0006600Y0006600D01*
X0006600Y0186961D01*
X0185701Y0186961D01*
X0185701Y0176717D01*
X0183773Y0180499D01*
X0180499Y0183773D01*
X0176373Y0185876D01*
X0171800Y0186600D01*
X0167227Y0185876D01*
X0167227Y0185876D01*
X0163101Y0183773D01*
X0163101Y0183773D01*
X0159827Y0180499D01*
X0157724Y0176373D01*
X0157000Y0171800D01*
X0157000Y0171800D01*
X0157724Y0167227D01*
X0159827Y0163101D01*
X0159827Y0163101D01*
X0163101Y0159827D01*
X0167227Y0157724D01*
X0171800Y0157000D01*
X0176373Y0157724D01*
X0176373Y0157724D01*
X0180499Y0159827D01*
X0183773Y0163101D01*
X0185701Y0166883D01*
X0185701Y0026717D01*
X0183773Y0030499D01*
X0180499Y0033773D01*
X0176373Y0035876D01*
X0171800Y0036600D01*
X0167227Y0035876D01*
X0167227Y0035876D01*
X0163101Y0033773D01*
X0163101Y0033773D01*
X0159827Y0030499D01*
X0157724Y0026373D01*
X0157000Y0021800D01*
X0157000Y0021800D01*
X0157724Y0017227D01*
X0159827Y0013101D01*
X0159827Y0013101D01*
X0159069Y0014588D02*
X0123494Y0014588D01*
X0122709Y0014263D02*
X0124388Y0014959D01*
X0125673Y0016244D01*
X0126368Y0017923D01*
X0126368Y0025677D01*
X0125673Y0027356D01*
X0124388Y0028641D01*
X0122709Y0029337D01*
X0120891Y0029337D01*
X0119212Y0028641D01*
X0117927Y0027356D01*
X0117231Y0025677D01*
X0117231Y0017923D01*
X0117927Y0016244D01*
X0119212Y0014959D01*
X0120891Y0014263D01*
X0122709Y0014263D01*
X0120106Y0014588D02*
X0113494Y0014588D01*
X0112709Y0014263D02*
X0114388Y0014959D01*
X0115673Y0016244D01*
X0116368Y0017923D01*
X0116368Y0025677D01*
X0115673Y0027356D01*
X0114388Y0028641D01*
X0112709Y0029337D01*
X0110891Y0029337D01*
X0109212Y0028641D01*
X0107927Y0027356D01*
X0107231Y0025677D01*
X0107231Y0017923D01*
X0107927Y0016244D01*
X0109212Y0014959D01*
X0110891Y0014263D01*
X0112709Y0014263D01*
X0115616Y0016187D02*
X0117984Y0016187D01*
X0117288Y0017785D02*
X0116311Y0017785D01*
X0116368Y0019384D02*
X0117231Y0019384D01*
X0117231Y0020982D02*
X0116368Y0020982D01*
X0116368Y0022581D02*
X0117231Y0022581D01*
X0117231Y0024179D02*
X0116368Y0024179D01*
X0116327Y0025778D02*
X0117273Y0025778D01*
X0117947Y0027376D02*
X0115653Y0027376D01*
X0113583Y0028975D02*
X0120017Y0028975D01*
X0123583Y0028975D02*
X0159050Y0028975D01*
X0159827Y0030499D02*
X0159827Y0030499D01*
X0159901Y0030573D02*
X0088684Y0030573D01*
X0089212Y0028641D02*
X0087927Y0027356D01*
X0087231Y0025677D01*
X0087231Y0017923D01*
X0087927Y0016244D01*
X0089212Y0014959D01*
X0090891Y0014263D01*
X0092709Y0014263D01*
X0094388Y0014959D01*
X0095673Y0016244D01*
X0096368Y0017923D01*
X0096368Y0025677D01*
X0095673Y0027356D01*
X0094388Y0028641D01*
X0092709Y0029337D01*
X0090891Y0029337D01*
X0089212Y0028641D01*
X0090017Y0028975D02*
X0087086Y0028975D01*
X0087947Y0027376D02*
X0085653Y0027376D01*
X0086327Y0025778D02*
X0087273Y0025778D01*
X0087231Y0024179D02*
X0086368Y0024179D01*
X0086368Y0022581D02*
X0087231Y0022581D01*
X0087231Y0020982D02*
X0086368Y0020982D01*
X0086368Y0019384D02*
X0087231Y0019384D01*
X0087288Y0017785D02*
X0086311Y0017785D01*
X0085616Y0016187D02*
X0087984Y0016187D01*
X0090106Y0014588D02*
X0083494Y0014588D01*
X0093494Y0014588D02*
X0100106Y0014588D01*
X0100891Y0014263D02*
X0099212Y0014959D01*
X0097927Y0016244D01*
X0097231Y0017923D01*
X0097231Y0025677D01*
X0097927Y0027356D01*
X0099212Y0028641D01*
X0100891Y0029337D01*
X0102709Y0029337D01*
X0104388Y0028641D01*
X0105673Y0027356D01*
X0106368Y0025677D01*
X0106368Y0017923D01*
X0105673Y0016244D01*
X0104388Y0014959D01*
X0102709Y0014263D01*
X0100891Y0014263D01*
X0103494Y0014588D02*
X0110106Y0014588D01*
X0107984Y0016187D02*
X0105616Y0016187D01*
X0106311Y0017785D02*
X0107288Y0017785D01*
X0107231Y0019384D02*
X0106368Y0019384D01*
X0106368Y0020982D02*
X0107231Y0020982D01*
X0107231Y0022581D02*
X0106368Y0022581D01*
X0106368Y0024179D02*
X0107231Y0024179D01*
X0107273Y0025778D02*
X0106327Y0025778D01*
X0105653Y0027376D02*
X0107947Y0027376D01*
X0110017Y0028975D02*
X0103583Y0028975D01*
X0100017Y0028975D02*
X0093583Y0028975D01*
X0095653Y0027376D02*
X0097947Y0027376D01*
X0097273Y0025778D02*
X0096327Y0025778D01*
X0096368Y0024179D02*
X0097231Y0024179D01*
X0097231Y0022581D02*
X0096368Y0022581D01*
X0096368Y0020982D02*
X0097231Y0020982D01*
X0097231Y0019384D02*
X0096368Y0019384D01*
X0096311Y0017785D02*
X0097288Y0017785D01*
X0097984Y0016187D02*
X0095616Y0016187D01*
X0082462Y0030573D02*
X0081184Y0030573D01*
X0080017Y0028975D02*
X0079586Y0028975D01*
X0076560Y0032172D02*
X0032101Y0032172D01*
X0030502Y0033770D02*
X0078159Y0033770D01*
X0079757Y0035369D02*
X0027368Y0035369D01*
X0026373Y0035876D02*
X0026373Y0035876D01*
X0021800Y0036600D02*
X0021800Y0036600D01*
X0016232Y0035369D02*
X0006600Y0035369D01*
X0006600Y0036967D02*
X0081356Y0036967D01*
X0082955Y0038566D02*
X0006600Y0038566D01*
X0006600Y0040164D02*
X0084553Y0040164D01*
X0086152Y0041763D02*
X0006600Y0041763D01*
X0006600Y0043361D02*
X0087750Y0043361D01*
X0089349Y0044960D02*
X0006600Y0044960D01*
X0006600Y0046558D02*
X0145947Y0046558D01*
X0147546Y0048157D02*
X0006600Y0048157D01*
X0006600Y0049755D02*
X0149144Y0049755D01*
X0149600Y0051354D02*
X0107671Y0051354D01*
X0107656Y0051334D02*
X0108063Y0051894D01*
X0108378Y0052511D01*
X0108592Y0053170D01*
X0108700Y0053854D01*
X0108700Y0056800D01*
X0108700Y0059746D01*
X0108592Y0060430D01*
X0108378Y0061089D01*
X0108063Y0061706D01*
X0107656Y0062266D01*
X0107166Y0062756D01*
X0106606Y0063163D01*
X0105989Y0063478D01*
X0105330Y0063692D01*
X0104646Y0063800D01*
X0104300Y0063800D01*
X0104300Y0056800D01*
X0108700Y0056800D01*
X0104300Y0056800D01*
X0104300Y0056800D01*
X0104300Y0056800D01*
X0104300Y0049800D01*
X0104646Y0049800D01*
X0105330Y0049908D01*
X0105989Y0050122D01*
X0106606Y0050437D01*
X0107166Y0050844D01*
X0107656Y0051334D01*
X0108521Y0052952D02*
X0149600Y0052952D01*
X0149600Y0054551D02*
X0108700Y0054551D01*
X0108700Y0056149D02*
X0149600Y0056149D01*
X0149600Y0057748D02*
X0108700Y0057748D01*
X0108700Y0059346D02*
X0149600Y0059346D01*
X0149600Y0060945D02*
X0108424Y0060945D01*
X0107379Y0062543D02*
X0149600Y0062543D01*
X0149600Y0064142D02*
X0086500Y0064142D01*
X0086500Y0065211D02*
X0081500Y0070211D01*
X0081500Y0081060D01*
X0081921Y0080639D01*
X0083465Y0080000D01*
X0085135Y0080000D01*
X0086679Y0080639D01*
X0087861Y0081821D01*
X0088500Y0083365D01*
X0088500Y0090235D01*
X0087861Y0091779D01*
X0086679Y0092961D01*
X0086500Y0093035D01*
X0086500Y0095889D01*
X0087711Y0097100D01*
X0108389Y0097100D01*
X0113389Y0092100D01*
X0130565Y0092100D01*
X0130639Y0091921D01*
X0131821Y0090739D01*
X0133365Y0090100D01*
X0140235Y0090100D01*
X0141779Y0090739D01*
X0142961Y0091921D01*
X0143600Y0093465D01*
X0143600Y0095135D01*
X0142961Y0096679D01*
X0141779Y0097861D01*
X0140235Y0098500D01*
X0133365Y0098500D01*
X0131821Y0097861D01*
X0130639Y0096679D01*
X0130565Y0096500D01*
X0115211Y0096500D01*
X0111500Y0100211D01*
X0110211Y0101500D01*
X0085889Y0101500D01*
X0083557Y0099169D01*
X0083557Y0100147D01*
X0082909Y0101712D01*
X0082521Y0102100D01*
X0130565Y0102100D01*
X0130639Y0101921D01*
X0131821Y0100739D01*
X0133365Y0100100D01*
X0140235Y0100100D01*
X0141779Y0100739D01*
X0142961Y0101921D01*
X0143600Y0103465D01*
X0143600Y0105135D01*
X0142961Y0106679D01*
X0141779Y0107861D01*
X0140235Y0108500D01*
X0133365Y0108500D01*
X0131821Y0107861D01*
X0130639Y0106679D01*
X0130565Y0106500D01*
X0107777Y0106500D01*
X0108063Y0106894D01*
X0108378Y0107511D01*
X0108592Y0108170D01*
X0108700Y0108854D01*
X0108700Y0111800D01*
X0108700Y0114746D01*
X0108592Y0115430D01*
X0108378Y0116089D01*
X0108063Y0116706D01*
X0107656Y0117266D01*
X0107166Y0117756D01*
X0106606Y0118163D01*
X0105989Y0118478D01*
X0105330Y0118692D01*
X0104646Y0118800D01*
X0104300Y0118800D01*
X0104300Y0111800D01*
X0104300Y0111800D01*
X0108700Y0111800D01*
X0104300Y0111800D01*
X0104300Y0111800D01*
X0104300Y0111800D01*
X0099900Y0111800D01*
X0099900Y0114746D01*
X0100008Y0115430D01*
X0100222Y0116089D01*
X0100537Y0116706D01*
X0100944Y0117266D01*
X0101434Y0117756D01*
X0101994Y0118163D01*
X0102611Y0118478D01*
X0103270Y0118692D01*
X0103954Y0118800D01*
X0104300Y0118800D01*
X0104300Y0111800D01*
X0099900Y0111800D01*
X0099900Y0108854D01*
X0100008Y0108170D01*
X0100222Y0107511D01*
X0100537Y0106894D01*
X0100823Y0106500D01*
X0097540Y0106500D01*
X0097861Y0106821D01*
X0098500Y0108365D01*
X0098500Y0115235D01*
X0097861Y0116779D01*
X0096679Y0117961D01*
X0095135Y0118600D01*
X0093465Y0118600D01*
X0091921Y0117961D01*
X0090739Y0116779D01*
X0090100Y0115235D01*
X0090100Y0108365D01*
X0090739Y0106821D01*
X0091060Y0106500D01*
X0087540Y0106500D01*
X0087861Y0106821D01*
X0088500Y0108365D01*
X0088500Y0115235D01*
X0087861Y0116779D01*
X0086679Y0117961D01*
X0086500Y0118035D01*
X0086500Y0120889D01*
X0091500Y0125889D01*
X0091500Y0136060D01*
X0091921Y0135639D01*
X0092100Y0135565D01*
X0092100Y0130889D01*
X0093389Y0129600D01*
X0095984Y0127005D01*
X0095691Y0126712D01*
X0095043Y0125147D01*
X0095043Y0123453D01*
X0095691Y0121888D01*
X0096888Y0120691D01*
X0098453Y0120043D01*
X0100147Y0120043D01*
X0101712Y0120691D01*
X0102909Y0121888D01*
X0103557Y0123453D01*
X0103557Y0125147D01*
X0102909Y0126712D01*
X0101712Y0127909D01*
X0101012Y0128199D01*
X0096500Y0132711D01*
X0096500Y0135565D01*
X0096679Y0135639D01*
X0097861Y0136821D01*
X0098500Y0138365D01*
X0098500Y0145235D01*
X0097861Y0146779D01*
X0096679Y0147961D01*
X0095135Y0148600D01*
X0093465Y0148600D01*
X0091921Y0147961D01*
X0091500Y0147540D01*
X0091500Y0150889D01*
X0094000Y0153389D01*
X0094000Y0164798D01*
X0094388Y0164959D01*
X0095673Y0166244D01*
X0096368Y0167923D01*
X0096368Y0175677D01*
X0095673Y0177356D01*
X0094388Y0178641D01*
X0092709Y0179337D01*
X0090891Y0179337D01*
X0089212Y0178641D01*
X0087927Y0177356D01*
X0087231Y0175677D01*
X0087231Y0167923D01*
X0087927Y0166244D01*
X0089212Y0164959D01*
X0089600Y0164798D01*
X0089600Y0155211D01*
X0088389Y0154000D01*
X0087100Y0152711D01*
X0087100Y0147540D01*
X0086679Y0147961D01*
X0085135Y0148600D01*
X0083465Y0148600D01*
X0081921Y0147961D01*
X0080739Y0146779D01*
X0080100Y0145235D01*
X0080100Y0138365D01*
X0080739Y0136821D01*
X0081921Y0135639D01*
X0083465Y0135000D01*
X0085135Y0135000D01*
X0086679Y0135639D01*
X0087100Y0136060D01*
X0087100Y0127711D01*
X0083389Y0124000D01*
X0082100Y0122711D01*
X0082100Y0118035D01*
X0081921Y0117961D01*
X0080739Y0116779D01*
X0080100Y0115235D01*
X0080100Y0108365D01*
X0080739Y0106821D01*
X0081060Y0106500D01*
X0077540Y0106500D01*
X0077861Y0106821D01*
X0078500Y0108365D01*
X0078500Y0115235D01*
X0077861Y0116779D01*
X0076679Y0117961D01*
X0075135Y0118600D01*
X0073465Y0118600D01*
X0071921Y0117961D01*
X0071500Y0117540D01*
X0071500Y0125889D01*
X0075211Y0129600D01*
X0076500Y0130889D01*
X0076500Y0135565D01*
X0076679Y0135639D01*
X0077861Y0136821D01*
X0078500Y0138365D01*
X0078500Y0145235D01*
X0077861Y0146779D01*
X0076679Y0147961D01*
X0075135Y0148600D01*
X0073465Y0148600D01*
X0071921Y0147961D01*
X0070739Y0146779D01*
X0070100Y0145235D01*
X0070100Y0138365D01*
X0070739Y0136821D01*
X0071921Y0135639D01*
X0072100Y0135565D01*
X0072100Y0132711D01*
X0067100Y0127711D01*
X0067100Y0117540D01*
X0066679Y0117961D01*
X0065135Y0118600D01*
X0063465Y0118600D01*
X0061921Y0117961D01*
X0060739Y0116779D01*
X0060100Y0115235D01*
X0060100Y0108365D01*
X0060739Y0106821D01*
X0061921Y0105639D01*
X0063465Y0105000D01*
X0065135Y0105000D01*
X0066679Y0105639D01*
X0067100Y0106060D01*
X0067100Y0102711D01*
X0057014Y0092625D01*
X0056679Y0092961D01*
X0055135Y0093600D01*
X0053465Y0093600D01*
X0051921Y0092961D01*
X0050739Y0091779D01*
X0050100Y0090235D01*
X0050100Y0083365D01*
X0050739Y0081821D01*
X0051921Y0080639D01*
X0053465Y0080000D01*
X0055135Y0080000D01*
X0056679Y0080639D01*
X0057861Y0081821D01*
X0058500Y0083365D01*
X0058500Y0087889D01*
X0060100Y0089489D01*
X0060100Y0083365D01*
X0060739Y0081821D01*
X0061921Y0080639D01*
X0063465Y0080000D01*
X0065135Y0080000D01*
X0066679Y0080639D01*
X0067861Y0081821D01*
X0068500Y0083365D01*
X0068500Y0090235D01*
X0067861Y0091779D01*
X0067625Y0092014D01*
X0075043Y0099431D01*
X0075043Y0098453D01*
X0075691Y0096888D01*
X0076888Y0095691D01*
X0077100Y0095603D01*
X0077100Y0092540D01*
X0076679Y0092961D01*
X0075135Y0093600D01*
X0073465Y0093600D01*
X0071921Y0092961D01*
X0070739Y0091779D01*
X0070100Y0090235D01*
X0070100Y0083365D01*
X0070739Y0081821D01*
X0071921Y0080639D01*
X0073465Y0080000D01*
X0075135Y0080000D01*
X0076679Y0080639D01*
X0077100Y0081060D01*
X0077100Y0068389D01*
X0078389Y0067100D01*
X0082100Y0063389D01*
X0082100Y0063035D01*
X0081921Y0062961D01*
X0080739Y0061779D01*
X0080100Y0060235D01*
X0080100Y0053365D01*
X0080739Y0051821D01*
X0081921Y0050639D01*
X0083465Y0050000D01*
X0085135Y0050000D01*
X0086679Y0050639D01*
X0087861Y0051821D01*
X0088500Y0053365D01*
X0088500Y0060235D01*
X0087861Y0061779D01*
X0086679Y0062961D01*
X0086500Y0063035D01*
X0086500Y0065211D01*
X0085971Y0065740D02*
X0149600Y0065740D01*
X0149600Y0067339D02*
X0084372Y0067339D01*
X0082774Y0068937D02*
X0149600Y0068937D01*
X0149600Y0070536D02*
X0141288Y0070536D01*
X0141779Y0070739D02*
X0140235Y0070100D01*
X0133365Y0070100D01*
X0131821Y0070739D01*
X0130639Y0071921D01*
X0130000Y0073465D01*
X0130000Y0075135D01*
X0130639Y0076679D01*
X0131821Y0077861D01*
X0133365Y0078500D01*
X0140235Y0078500D01*
X0141779Y0077861D01*
X0142961Y0076679D01*
X0143600Y0075135D01*
X0143600Y0073465D01*
X0142961Y0071921D01*
X0141779Y0070739D01*
X0143049Y0072134D02*
X0149600Y0072134D01*
X0149600Y0073733D02*
X0143600Y0073733D01*
X0143519Y0075332D02*
X0149600Y0075332D01*
X0149600Y0076930D02*
X0142710Y0076930D01*
X0141779Y0080739D02*
X0140235Y0080100D01*
X0133365Y0080100D01*
X0131821Y0080739D01*
X0130639Y0081921D01*
X0130565Y0082100D01*
X0120889Y0082100D01*
X0119600Y0083389D01*
X0118389Y0084600D01*
X0108500Y0084600D01*
X0108500Y0083365D01*
X0107861Y0081821D01*
X0106679Y0080639D01*
X0105135Y0080000D01*
X0103465Y0080000D01*
X0101921Y0080639D01*
X0100739Y0081821D01*
X0100100Y0083365D01*
X0100100Y0090235D01*
X0100739Y0091779D01*
X0101921Y0092961D01*
X0103465Y0093600D01*
X0105135Y0093600D01*
X0106679Y0092961D01*
X0107861Y0091779D01*
X0108500Y0090235D01*
X0108500Y0089000D01*
X0120211Y0089000D01*
X0122711Y0086500D01*
X0130565Y0086500D01*
X0130639Y0086679D01*
X0131821Y0087861D01*
X0133365Y0088500D01*
X0140235Y0088500D01*
X0141779Y0087861D01*
X0142961Y0086679D01*
X0143600Y0085135D01*
X0143600Y0083465D01*
X0142961Y0081921D01*
X0141779Y0080739D01*
X0142765Y0081726D02*
X0149600Y0081726D01*
X0149600Y0083324D02*
X0143542Y0083324D01*
X0143600Y0084923D02*
X0149600Y0084923D01*
X0149600Y0086521D02*
X0143026Y0086521D01*
X0141154Y0088120D02*
X0149600Y0088120D01*
X0149600Y0089718D02*
X0108500Y0089718D01*
X0108052Y0091317D02*
X0131244Y0091317D01*
X0132446Y0088120D02*
X0121092Y0088120D01*
X0122690Y0086521D02*
X0130574Y0086521D01*
X0130835Y0081726D02*
X0107765Y0081726D01*
X0108483Y0083324D02*
X0119665Y0083324D01*
X0112574Y0092915D02*
X0106725Y0092915D01*
X0109377Y0096112D02*
X0086723Y0096112D01*
X0086500Y0094514D02*
X0110975Y0094514D01*
X0114001Y0097711D02*
X0131671Y0097711D01*
X0131653Y0100908D02*
X0110804Y0100908D01*
X0112402Y0099309D02*
X0149600Y0099309D01*
X0149600Y0097711D02*
X0141929Y0097711D01*
X0143195Y0096112D02*
X0149600Y0096112D01*
X0149600Y0094514D02*
X0143600Y0094514D01*
X0143372Y0092915D02*
X0149600Y0092915D01*
X0149600Y0091317D02*
X0142356Y0091317D01*
X0141947Y0100908D02*
X0149600Y0100908D01*
X0149600Y0102506D02*
X0143203Y0102506D01*
X0143600Y0104105D02*
X0149600Y0104105D01*
X0149600Y0105703D02*
X0143365Y0105703D01*
X0142338Y0107302D02*
X0149600Y0107302D01*
X0149600Y0108900D02*
X0108700Y0108900D01*
X0108700Y0110499D02*
X0132402Y0110499D01*
X0131821Y0110739D02*
X0133365Y0110100D01*
X0140235Y0110100D01*
X0141779Y0110739D01*
X0142961Y0111921D01*
X0143600Y0113465D01*
X0143600Y0115135D01*
X0142961Y0116679D01*
X0141779Y0117861D01*
X0140235Y0118500D01*
X0133365Y0118500D01*
X0131821Y0117861D01*
X0130639Y0116679D01*
X0130000Y0115135D01*
X0130000Y0113465D01*
X0130639Y0111921D01*
X0131821Y0110739D01*
X0130566Y0112097D02*
X0108700Y0112097D01*
X0108700Y0113696D02*
X0130000Y0113696D01*
X0130066Y0115294D02*
X0108613Y0115294D01*
X0107928Y0116893D02*
X0130853Y0116893D01*
X0133344Y0118491D02*
X0105947Y0118491D01*
X0104300Y0118491D02*
X0104300Y0118491D01*
X0104300Y0116893D02*
X0104300Y0116893D01*
X0104300Y0115294D02*
X0104300Y0115294D01*
X0104300Y0113696D02*
X0104300Y0113696D01*
X0104300Y0112097D02*
X0104300Y0112097D01*
X0099900Y0112097D02*
X0098500Y0112097D01*
X0098500Y0110499D02*
X0099900Y0110499D01*
X0099900Y0108900D02*
X0098500Y0108900D01*
X0098060Y0107302D02*
X0100329Y0107302D01*
X0099900Y0113696D02*
X0098500Y0113696D01*
X0098476Y0115294D02*
X0099987Y0115294D01*
X0100672Y0116893D02*
X0097747Y0116893D01*
X0095398Y0118491D02*
X0102653Y0118491D01*
X0102709Y0121688D02*
X0130872Y0121688D01*
X0130639Y0121921D02*
X0131821Y0120739D01*
X0133365Y0120100D01*
X0140235Y0120100D01*
X0141779Y0120739D01*
X0142961Y0121921D01*
X0143600Y0123465D01*
X0143600Y0125135D01*
X0142961Y0126679D01*
X0141779Y0127861D01*
X0140235Y0128500D01*
X0133365Y0128500D01*
X0131821Y0127861D01*
X0130639Y0126679D01*
X0130000Y0125135D01*
X0130000Y0123465D01*
X0130639Y0121921D01*
X0130074Y0123287D02*
X0103489Y0123287D01*
X0103557Y0124885D02*
X0130000Y0124885D01*
X0130559Y0126484D02*
X0103004Y0126484D01*
X0101294Y0128082D02*
X0132356Y0128082D01*
X0133365Y0130100D02*
X0140235Y0130100D01*
X0141779Y0130739D01*
X0142961Y0131921D01*
X0143600Y0133465D01*
X0143600Y0135135D01*
X0142961Y0136679D01*
X0141779Y0137861D01*
X0140235Y0138500D01*
X0133365Y0138500D01*
X0131821Y0137861D01*
X0130639Y0136679D01*
X0130000Y0135135D01*
X0130000Y0133465D01*
X0130639Y0131921D01*
X0131821Y0130739D01*
X0133365Y0130100D01*
X0131281Y0131279D02*
X0097932Y0131279D01*
X0096500Y0132878D02*
X0130243Y0132878D01*
X0130000Y0134476D02*
X0096500Y0134476D01*
X0097115Y0136075D02*
X0101485Y0136075D01*
X0101921Y0135639D02*
X0103465Y0135000D01*
X0105135Y0135000D01*
X0106679Y0135639D01*
X0107861Y0136821D01*
X0108500Y0138365D01*
X0108500Y0145235D01*
X0107861Y0146779D01*
X0106679Y0147961D01*
X0105135Y0148600D01*
X0103465Y0148600D01*
X0101921Y0147961D01*
X0100739Y0146779D01*
X0100100Y0145235D01*
X0100100Y0138365D01*
X0100739Y0136821D01*
X0101921Y0135639D01*
X0100386Y0137673D02*
X0098214Y0137673D01*
X0098500Y0139272D02*
X0100100Y0139272D01*
X0100100Y0140870D02*
X0098500Y0140870D01*
X0098500Y0142469D02*
X0100100Y0142469D01*
X0100100Y0144068D02*
X0098500Y0144068D01*
X0098322Y0145666D02*
X0100278Y0145666D01*
X0101225Y0147265D02*
X0097375Y0147265D01*
X0091500Y0148863D02*
X0185701Y0148863D01*
X0185701Y0147265D02*
X0107375Y0147265D01*
X0108322Y0145666D02*
X0185701Y0145666D01*
X0185701Y0144068D02*
X0108500Y0144068D01*
X0108500Y0142469D02*
X0185701Y0142469D01*
X0185701Y0140870D02*
X0108500Y0140870D01*
X0108500Y0139272D02*
X0185701Y0139272D01*
X0185701Y0137673D02*
X0171966Y0137673D01*
X0173211Y0136075D02*
X0185701Y0136075D01*
X0185701Y0134476D02*
X0173600Y0134476D01*
X0173357Y0132878D02*
X0185701Y0132878D01*
X0185701Y0131279D02*
X0172319Y0131279D01*
X0171244Y0128082D02*
X0185701Y0128082D01*
X0185701Y0126484D02*
X0173041Y0126484D01*
X0173600Y0124885D02*
X0185701Y0124885D01*
X0185701Y0123287D02*
X0173526Y0123287D01*
X0172728Y0121688D02*
X0185701Y0121688D01*
X0185701Y0120090D02*
X0160701Y0120090D01*
X0159103Y0118491D02*
X0163344Y0118491D01*
X0163365Y0118500D02*
X0161821Y0117861D01*
X0160639Y0116679D01*
X0160000Y0115135D01*
X0160000Y0113465D01*
X0160639Y0111921D01*
X0161821Y0110739D01*
X0163365Y0110100D01*
X0170235Y0110100D01*
X0171779Y0110739D01*
X0172961Y0111921D01*
X0173600Y0113465D01*
X0173600Y0115135D01*
X0172961Y0116679D01*
X0171779Y0117861D01*
X0170235Y0118500D01*
X0163365Y0118500D01*
X0160853Y0116893D02*
X0159000Y0116893D01*
X0159000Y0115294D02*
X0160066Y0115294D01*
X0160000Y0113696D02*
X0159000Y0113696D01*
X0159000Y0112097D02*
X0160566Y0112097D01*
X0159000Y0110499D02*
X0162402Y0110499D01*
X0163365Y0108500D02*
X0161821Y0107861D01*
X0160639Y0106679D01*
X0160000Y0105135D01*
X0160000Y0103465D01*
X0160639Y0101921D01*
X0161821Y0100739D01*
X0163365Y0100100D01*
X0170235Y0100100D01*
X0171779Y0100739D01*
X0172961Y0101921D01*
X0173600Y0103465D01*
X0173600Y0105135D01*
X0172961Y0106679D01*
X0171779Y0107861D01*
X0170235Y0108500D01*
X0163365Y0108500D01*
X0161262Y0107302D02*
X0159000Y0107302D01*
X0159000Y0108900D02*
X0185701Y0108900D01*
X0185701Y0107302D02*
X0172338Y0107302D01*
X0173365Y0105703D02*
X0185701Y0105703D01*
X0185701Y0104105D02*
X0173600Y0104105D01*
X0173203Y0102506D02*
X0185701Y0102506D01*
X0185701Y0100908D02*
X0171947Y0100908D01*
X0170235Y0098500D02*
X0171779Y0097861D01*
X0172961Y0096679D01*
X0173600Y0095135D01*
X0173600Y0093465D01*
X0172961Y0091921D01*
X0171779Y0090739D01*
X0170235Y0090100D01*
X0163365Y0090100D01*
X0161821Y0090739D01*
X0160639Y0091921D01*
X0160000Y0093465D01*
X0160000Y0095135D01*
X0160639Y0096679D01*
X0161821Y0097861D01*
X0163365Y0098500D01*
X0170235Y0098500D01*
X0171929Y0097711D02*
X0185701Y0097711D01*
X0185701Y0099309D02*
X0159000Y0099309D01*
X0159000Y0097711D02*
X0161671Y0097711D01*
X0160405Y0096112D02*
X0159000Y0096112D01*
X0159000Y0094514D02*
X0160000Y0094514D01*
X0160228Y0092915D02*
X0159000Y0092915D01*
X0159000Y0091317D02*
X0161244Y0091317D01*
X0159000Y0089718D02*
X0185701Y0089718D01*
X0185701Y0088120D02*
X0171154Y0088120D01*
X0171779Y0087861D02*
X0170235Y0088500D01*
X0163365Y0088500D01*
X0161821Y0087861D01*
X0160639Y0086679D01*
X0160000Y0085135D01*
X0160000Y0083465D01*
X0160639Y0081921D01*
X0161821Y0080739D01*
X0163365Y0080100D01*
X0170235Y0080100D01*
X0171779Y0080739D01*
X0172961Y0081921D01*
X0173600Y0083465D01*
X0173600Y0085135D01*
X0172961Y0086679D01*
X0171779Y0087861D01*
X0173026Y0086521D02*
X0185701Y0086521D01*
X0185701Y0084923D02*
X0173600Y0084923D01*
X0173542Y0083324D02*
X0185701Y0083324D01*
X0185701Y0081726D02*
X0172765Y0081726D01*
X0170301Y0080127D02*
X0185701Y0080127D01*
X0185701Y0078529D02*
X0159000Y0078529D01*
X0159000Y0080127D02*
X0163299Y0080127D01*
X0163365Y0078500D02*
X0161821Y0077861D01*
X0160639Y0076679D01*
X0160000Y0075135D01*
X0160000Y0073465D01*
X0160639Y0071921D01*
X0161821Y0070739D01*
X0163365Y0070100D01*
X0170235Y0070100D01*
X0171779Y0070739D01*
X0172961Y0071921D01*
X0173600Y0073465D01*
X0173600Y0075135D01*
X0172961Y0076679D01*
X0171779Y0077861D01*
X0170235Y0078500D01*
X0163365Y0078500D01*
X0160890Y0076930D02*
X0159000Y0076930D01*
X0159000Y0075332D02*
X0160081Y0075332D01*
X0160000Y0073733D02*
X0159000Y0073733D01*
X0159000Y0072134D02*
X0160551Y0072134D01*
X0159000Y0070536D02*
X0162312Y0070536D01*
X0159000Y0068937D02*
X0185701Y0068937D01*
X0185701Y0067339D02*
X0159000Y0067339D01*
X0159000Y0065740D02*
X0185701Y0065740D01*
X0185701Y0064142D02*
X0159000Y0064142D01*
X0159000Y0062543D02*
X0185701Y0062543D01*
X0185701Y0060945D02*
X0159000Y0060945D01*
X0159000Y0059346D02*
X0185701Y0059346D01*
X0185701Y0057748D02*
X0159000Y0057748D01*
X0159000Y0056149D02*
X0185701Y0056149D01*
X0185701Y0054551D02*
X0159000Y0054551D01*
X0159000Y0052952D02*
X0185701Y0052952D01*
X0185701Y0051354D02*
X0159000Y0051354D01*
X0159000Y0049755D02*
X0185701Y0049755D01*
X0185701Y0048157D02*
X0159000Y0048157D01*
X0159000Y0046558D02*
X0185701Y0046558D01*
X0185701Y0044960D02*
X0158071Y0044960D01*
X0156473Y0043361D02*
X0185701Y0043361D01*
X0185701Y0041763D02*
X0154874Y0041763D01*
X0153276Y0040164D02*
X0185701Y0040164D01*
X0185701Y0038566D02*
X0151677Y0038566D01*
X0148652Y0041763D02*
X0092374Y0041763D01*
X0092053Y0040164D02*
X0090776Y0040164D01*
X0090454Y0038566D02*
X0089177Y0038566D01*
X0088856Y0036967D02*
X0087579Y0036967D01*
X0087257Y0035369D02*
X0085980Y0035369D01*
X0085659Y0033770D02*
X0084381Y0033770D01*
X0084060Y0032172D02*
X0082783Y0032172D01*
X0090283Y0032172D02*
X0161499Y0032172D01*
X0163098Y0033770D02*
X0091881Y0033770D01*
X0093480Y0035369D02*
X0166232Y0035369D01*
X0171800Y0036600D02*
X0171800Y0036600D01*
X0176373Y0035876D02*
X0176373Y0035876D01*
X0177368Y0035369D02*
X0185701Y0035369D01*
X0185701Y0036967D02*
X0095079Y0036967D01*
X0095135Y0050000D02*
X0093465Y0050000D01*
X0091921Y0050639D01*
X0090739Y0051821D01*
X0090100Y0053365D01*
X0090100Y0060235D01*
X0090739Y0061779D01*
X0091921Y0062961D01*
X0093465Y0063600D01*
X0095135Y0063600D01*
X0096679Y0062961D01*
X0097861Y0061779D01*
X0098500Y0060235D01*
X0098500Y0053365D01*
X0097861Y0051821D01*
X0096679Y0050639D01*
X0095135Y0050000D01*
X0097394Y0051354D02*
X0100929Y0051354D01*
X0100944Y0051334D02*
X0101434Y0050844D01*
X0101994Y0050437D01*
X0102611Y0050122D01*
X0103270Y0049908D01*
X0103954Y0049800D01*
X0104300Y0049800D01*
X0104300Y0056800D01*
X0104300Y0056800D01*
X0104300Y0056800D01*
X0099900Y0056800D01*
X0099900Y0059746D01*
X0100008Y0060430D01*
X0100222Y0061089D01*
X0100537Y0061706D01*
X0100944Y0062266D01*
X0101434Y0062756D01*
X0101994Y0063163D01*
X0102611Y0063478D01*
X0103270Y0063692D01*
X0103954Y0063800D01*
X0104300Y0063800D01*
X0104300Y0056800D01*
X0099900Y0056800D01*
X0099900Y0053854D01*
X0100008Y0053170D01*
X0100222Y0052511D01*
X0100537Y0051894D01*
X0100944Y0051334D01*
X0100079Y0052952D02*
X0098329Y0052952D01*
X0098500Y0054551D02*
X0099900Y0054551D01*
X0099900Y0056149D02*
X0098500Y0056149D01*
X0098500Y0057748D02*
X0099900Y0057748D01*
X0099900Y0059346D02*
X0098500Y0059346D01*
X0098206Y0060945D02*
X0100176Y0060945D01*
X0101221Y0062543D02*
X0097096Y0062543D01*
X0091504Y0062543D02*
X0087096Y0062543D01*
X0088206Y0060945D02*
X0090394Y0060945D01*
X0090100Y0059346D02*
X0088500Y0059346D01*
X0088500Y0057748D02*
X0090100Y0057748D01*
X0090100Y0056149D02*
X0088500Y0056149D01*
X0088500Y0054551D02*
X0090100Y0054551D01*
X0090271Y0052952D02*
X0088329Y0052952D01*
X0087394Y0051354D02*
X0091206Y0051354D01*
X0081206Y0051354D02*
X0077394Y0051354D01*
X0077861Y0051821D02*
X0076679Y0050639D01*
X0075135Y0050000D01*
X0073465Y0050000D01*
X0071921Y0050639D01*
X0070739Y0051821D01*
X0070100Y0053365D01*
X0070100Y0060235D01*
X0070739Y0061779D01*
X0071921Y0062961D01*
X0073465Y0063600D01*
X0075135Y0063600D01*
X0076679Y0062961D01*
X0077861Y0061779D01*
X0078500Y0060235D01*
X0078500Y0053365D01*
X0077861Y0051821D01*
X0078329Y0052952D02*
X0080271Y0052952D01*
X0080100Y0054551D02*
X0078500Y0054551D01*
X0078500Y0056149D02*
X0080100Y0056149D01*
X0080100Y0057748D02*
X0078500Y0057748D01*
X0078500Y0059346D02*
X0080100Y0059346D01*
X0080394Y0060945D02*
X0078206Y0060945D01*
X0077096Y0062543D02*
X0081504Y0062543D01*
X0081347Y0064142D02*
X0006600Y0064142D01*
X0006600Y0065740D02*
X0079748Y0065740D01*
X0078150Y0067339D02*
X0006600Y0067339D01*
X0006600Y0068937D02*
X0077100Y0068937D01*
X0077100Y0070536D02*
X0021476Y0070536D01*
X0021040Y0070100D02*
X0023500Y0072560D01*
X0023500Y0076040D01*
X0021040Y0078500D01*
X0017560Y0078500D01*
X0015100Y0076040D01*
X0015100Y0072560D01*
X0017560Y0070100D01*
X0021040Y0070100D01*
X0023074Y0072134D02*
X0077100Y0072134D01*
X0077100Y0073733D02*
X0023500Y0073733D01*
X0023500Y0075332D02*
X0077100Y0075332D01*
X0077100Y0076930D02*
X0022610Y0076930D01*
X0015990Y0076930D02*
X0006600Y0076930D01*
X0006600Y0075332D02*
X0015100Y0075332D01*
X0015100Y0073733D02*
X0006600Y0073733D01*
X0006600Y0072134D02*
X0015526Y0072134D01*
X0017124Y0070536D02*
X0006600Y0070536D01*
X0006600Y0078529D02*
X0077100Y0078529D01*
X0077100Y0080127D02*
X0075442Y0080127D01*
X0073158Y0080127D02*
X0065442Y0080127D01*
X0063158Y0080127D02*
X0055442Y0080127D01*
X0053158Y0080127D02*
X0045442Y0080127D01*
X0045135Y0080000D02*
X0046679Y0080639D01*
X0047861Y0081821D01*
X0048500Y0083365D01*
X0048500Y0090235D01*
X0047861Y0091779D01*
X0046679Y0092961D01*
X0045135Y0093600D01*
X0043465Y0093600D01*
X0041921Y0092961D01*
X0040739Y0091779D01*
X0040100Y0090235D01*
X0040100Y0083365D01*
X0040739Y0081821D01*
X0041921Y0080639D01*
X0043465Y0080000D01*
X0045135Y0080000D01*
X0043158Y0080127D02*
X0006600Y0080127D01*
X0006600Y0081726D02*
X0040835Y0081726D01*
X0040117Y0083324D02*
X0006600Y0083324D01*
X0006600Y0084923D02*
X0040100Y0084923D01*
X0040100Y0086521D02*
X0006600Y0086521D01*
X0006600Y0088120D02*
X0040100Y0088120D01*
X0040100Y0089718D02*
X0006600Y0089718D01*
X0006600Y0091317D02*
X0040548Y0091317D01*
X0041875Y0092915D02*
X0006600Y0092915D01*
X0006600Y0094514D02*
X0058902Y0094514D01*
X0057304Y0092915D02*
X0056725Y0092915D01*
X0060501Y0096112D02*
X0021335Y0096112D01*
X0021123Y0095900D02*
X0023700Y0098477D01*
X0023700Y0100300D01*
X0023700Y0102123D01*
X0021258Y0104565D01*
X0021679Y0104739D01*
X0022861Y0105921D01*
X0023500Y0107465D01*
X0023500Y0109135D01*
X0022861Y0110679D01*
X0021679Y0111861D01*
X0020135Y0112500D01*
X0018465Y0112500D01*
X0016921Y0111861D01*
X0015739Y0110679D01*
X0015100Y0109135D01*
X0015100Y0107465D01*
X0015739Y0105921D01*
X0016921Y0104739D01*
X0017342Y0104565D01*
X0014900Y0102123D01*
X0014900Y0100300D01*
X0019300Y0100300D01*
X0023700Y0100300D01*
X0019300Y0100300D01*
X0019300Y0100300D01*
X0019300Y0100300D01*
X0019300Y0095900D01*
X0021123Y0095900D01*
X0019300Y0095900D02*
X0019300Y0100300D01*
X0019300Y0100300D01*
X0014900Y0100300D01*
X0014900Y0098477D01*
X0017477Y0095900D01*
X0019300Y0095900D01*
X0019300Y0096112D02*
X0019300Y0096112D01*
X0019300Y0097711D02*
X0019300Y0097711D01*
X0019300Y0099309D02*
X0019300Y0099309D01*
X0015667Y0097711D02*
X0006600Y0097711D01*
X0006600Y0099309D02*
X0014900Y0099309D01*
X0014900Y0100908D02*
X0006600Y0100908D01*
X0006600Y0102506D02*
X0015284Y0102506D01*
X0016882Y0104105D02*
X0006600Y0104105D01*
X0006600Y0105703D02*
X0015957Y0105703D01*
X0015167Y0107302D02*
X0006600Y0107302D01*
X0006600Y0108900D02*
X0015100Y0108900D01*
X0015665Y0110499D02*
X0006600Y0110499D01*
X0006600Y0112097D02*
X0017492Y0112097D01*
X0021108Y0112097D02*
X0040100Y0112097D01*
X0040100Y0110499D02*
X0022935Y0110499D01*
X0023500Y0108900D02*
X0040100Y0108900D01*
X0040100Y0108365D02*
X0040739Y0106821D01*
X0041921Y0105639D01*
X0043465Y0105000D01*
X0045135Y0105000D01*
X0046679Y0105639D01*
X0047861Y0106821D01*
X0048500Y0108365D01*
X0048500Y0115235D01*
X0047861Y0116779D01*
X0046679Y0117961D01*
X0045135Y0118600D01*
X0043465Y0118600D01*
X0041921Y0117961D01*
X0040739Y0116779D01*
X0040100Y0115235D01*
X0040100Y0108365D01*
X0040540Y0107302D02*
X0023433Y0107302D01*
X0022643Y0105703D02*
X0041857Y0105703D01*
X0046743Y0105703D02*
X0051857Y0105703D01*
X0051921Y0105639D02*
X0053465Y0105000D01*
X0055135Y0105000D01*
X0056679Y0105639D01*
X0057861Y0106821D01*
X0058500Y0108365D01*
X0058500Y0115235D01*
X0057861Y0116779D01*
X0056679Y0117961D01*
X0055135Y0118600D01*
X0053465Y0118600D01*
X0051921Y0117961D01*
X0050739Y0116779D01*
X0050100Y0115235D01*
X0050100Y0108365D01*
X0050739Y0106821D01*
X0051921Y0105639D01*
X0050540Y0107302D02*
X0048060Y0107302D01*
X0048500Y0108900D02*
X0050100Y0108900D01*
X0050100Y0110499D02*
X0048500Y0110499D01*
X0048500Y0112097D02*
X0050100Y0112097D01*
X0050100Y0113696D02*
X0048500Y0113696D01*
X0048476Y0115294D02*
X0050124Y0115294D01*
X0050853Y0116893D02*
X0047747Y0116893D01*
X0045398Y0118491D02*
X0053202Y0118491D01*
X0055398Y0118491D02*
X0063202Y0118491D01*
X0065398Y0118491D02*
X0067100Y0118491D01*
X0067100Y0120090D02*
X0006600Y0120090D01*
X0006600Y0121688D02*
X0067100Y0121688D01*
X0067100Y0123287D02*
X0006600Y0123287D01*
X0006600Y0124885D02*
X0067100Y0124885D01*
X0067100Y0126484D02*
X0022424Y0126484D01*
X0023500Y0127560D02*
X0021040Y0125100D01*
X0017560Y0125100D01*
X0015100Y0127560D01*
X0015100Y0131040D01*
X0017560Y0133500D01*
X0021040Y0133500D01*
X0023500Y0131040D01*
X0023500Y0127560D01*
X0023500Y0128082D02*
X0067471Y0128082D01*
X0069070Y0129681D02*
X0023500Y0129681D01*
X0023260Y0131279D02*
X0070668Y0131279D01*
X0072100Y0132878D02*
X0021662Y0132878D01*
X0016938Y0132878D02*
X0006600Y0132878D01*
X0006600Y0134476D02*
X0072100Y0134476D01*
X0071485Y0136075D02*
X0067115Y0136075D01*
X0066679Y0135639D02*
X0067861Y0136821D01*
X0068500Y0138365D01*
X0068500Y0145235D01*
X0067861Y0146779D01*
X0066679Y0147961D01*
X0065135Y0148600D01*
X0063465Y0148600D01*
X0061921Y0147961D01*
X0060739Y0146779D01*
X0060100Y0145235D01*
X0060100Y0138365D01*
X0060739Y0136821D01*
X0061921Y0135639D01*
X0063465Y0135000D01*
X0065135Y0135000D01*
X0066679Y0135639D01*
X0068214Y0137673D02*
X0070386Y0137673D01*
X0070100Y0139272D02*
X0068500Y0139272D01*
X0068500Y0140870D02*
X0070100Y0140870D01*
X0070100Y0142469D02*
X0068500Y0142469D01*
X0068500Y0144068D02*
X0070100Y0144068D01*
X0070278Y0145666D02*
X0068322Y0145666D01*
X0067375Y0147265D02*
X0071225Y0147265D01*
X0077375Y0147265D02*
X0081225Y0147265D01*
X0080278Y0145666D02*
X0078322Y0145666D01*
X0078500Y0144068D02*
X0080100Y0144068D01*
X0080100Y0142469D02*
X0078500Y0142469D01*
X0078500Y0140870D02*
X0080100Y0140870D01*
X0080100Y0139272D02*
X0078500Y0139272D01*
X0078214Y0137673D02*
X0080386Y0137673D01*
X0081485Y0136075D02*
X0077115Y0136075D01*
X0076500Y0134476D02*
X0087100Y0134476D01*
X0087100Y0132878D02*
X0076500Y0132878D01*
X0076500Y0131279D02*
X0087100Y0131279D01*
X0087100Y0129681D02*
X0075292Y0129681D01*
X0073694Y0128082D02*
X0087100Y0128082D01*
X0085873Y0126484D02*
X0072095Y0126484D01*
X0071500Y0124885D02*
X0084274Y0124885D01*
X0082676Y0123287D02*
X0071500Y0123287D01*
X0071500Y0121688D02*
X0082100Y0121688D01*
X0082100Y0120090D02*
X0071500Y0120090D01*
X0071500Y0118491D02*
X0073202Y0118491D01*
X0075398Y0118491D02*
X0082100Y0118491D01*
X0080853Y0116893D02*
X0077747Y0116893D01*
X0078476Y0115294D02*
X0080124Y0115294D01*
X0080100Y0113696D02*
X0078500Y0113696D01*
X0078500Y0112097D02*
X0080100Y0112097D01*
X0080100Y0110499D02*
X0078500Y0110499D01*
X0078500Y0108900D02*
X0080100Y0108900D01*
X0080540Y0107302D02*
X0078060Y0107302D01*
X0083242Y0100908D02*
X0085296Y0100908D01*
X0083698Y0099309D02*
X0083557Y0099309D01*
X0086725Y0092915D02*
X0091875Y0092915D01*
X0091921Y0092961D02*
X0090739Y0091779D01*
X0090100Y0090235D01*
X0090100Y0083365D01*
X0090739Y0081821D01*
X0091921Y0080639D01*
X0093465Y0080000D01*
X0095135Y0080000D01*
X0096679Y0080639D01*
X0097861Y0081821D01*
X0098500Y0083365D01*
X0098500Y0090235D01*
X0097861Y0091779D01*
X0096679Y0092961D01*
X0095135Y0093600D01*
X0093465Y0093600D01*
X0091921Y0092961D01*
X0090548Y0091317D02*
X0088052Y0091317D01*
X0088500Y0089718D02*
X0090100Y0089718D01*
X0090100Y0088120D02*
X0088500Y0088120D01*
X0088500Y0086521D02*
X0090100Y0086521D01*
X0090100Y0084923D02*
X0088500Y0084923D01*
X0088483Y0083324D02*
X0090117Y0083324D01*
X0090835Y0081726D02*
X0087765Y0081726D01*
X0085442Y0080127D02*
X0093158Y0080127D01*
X0095442Y0080127D02*
X0103158Y0080127D01*
X0105442Y0080127D02*
X0133299Y0080127D01*
X0130890Y0076930D02*
X0081500Y0076930D01*
X0081500Y0075332D02*
X0130081Y0075332D01*
X0130000Y0073733D02*
X0081500Y0073733D01*
X0081500Y0072134D02*
X0130551Y0072134D01*
X0132312Y0070536D02*
X0081500Y0070536D01*
X0081500Y0078529D02*
X0149600Y0078529D01*
X0149600Y0080127D02*
X0140301Y0080127D01*
X0154000Y0080127D02*
X0154600Y0080127D01*
X0154600Y0078529D02*
X0154000Y0078529D01*
X0154000Y0076930D02*
X0154600Y0076930D01*
X0154600Y0075332D02*
X0154000Y0075332D01*
X0154000Y0073733D02*
X0154600Y0073733D01*
X0154600Y0072134D02*
X0154000Y0072134D01*
X0154000Y0070536D02*
X0154600Y0070536D01*
X0154600Y0068937D02*
X0154000Y0068937D01*
X0154000Y0067339D02*
X0154600Y0067339D01*
X0154600Y0065740D02*
X0154000Y0065740D01*
X0154000Y0064142D02*
X0154600Y0064142D01*
X0154600Y0062543D02*
X0154000Y0062543D01*
X0154000Y0060945D02*
X0154600Y0060945D01*
X0154600Y0059346D02*
X0154000Y0059346D01*
X0154000Y0057748D02*
X0154600Y0057748D01*
X0154600Y0056149D02*
X0154000Y0056149D01*
X0154000Y0054551D02*
X0154600Y0054551D01*
X0154600Y0052952D02*
X0154000Y0052952D01*
X0154000Y0051354D02*
X0154600Y0051354D01*
X0154600Y0049755D02*
X0154000Y0049755D01*
X0153768Y0048157D02*
X0154600Y0048157D01*
X0153447Y0046558D02*
X0152170Y0046558D01*
X0151849Y0044960D02*
X0150571Y0044960D01*
X0150250Y0043361D02*
X0148973Y0043361D01*
X0158235Y0027376D02*
X0125653Y0027376D01*
X0126327Y0025778D02*
X0157630Y0025778D01*
X0157724Y0026373D02*
X0157724Y0026373D01*
X0157377Y0024179D02*
X0126368Y0024179D01*
X0126368Y0022581D02*
X0157124Y0022581D01*
X0157130Y0020982D02*
X0126368Y0020982D01*
X0126368Y0019384D02*
X0157383Y0019384D01*
X0157636Y0017785D02*
X0126311Y0017785D01*
X0125616Y0016187D02*
X0158254Y0016187D01*
X0157724Y0017227D02*
X0157724Y0017227D01*
X0161536Y0011391D02*
X0032064Y0011391D01*
X0030499Y0009827D02*
X0030499Y0009827D01*
X0030432Y0009793D02*
X0163167Y0009793D01*
X0163101Y0009827D02*
X0163101Y0009827D01*
X0166305Y0008194D02*
X0027295Y0008194D01*
X0021800Y0007000D02*
X0021800Y0007000D01*
X0017227Y0007724D02*
X0017227Y0007724D01*
X0016305Y0008194D02*
X0006600Y0008194D01*
X0006600Y0009793D02*
X0013167Y0009793D01*
X0013101Y0009827D02*
X0013101Y0009827D01*
X0011536Y0011391D02*
X0006600Y0011391D01*
X0006600Y0012990D02*
X0009938Y0012990D01*
X0009069Y0014588D02*
X0006600Y0014588D01*
X0006600Y0016187D02*
X0008254Y0016187D01*
X0007636Y0017785D02*
X0006600Y0017785D01*
X0006600Y0019384D02*
X0007383Y0019384D01*
X0007130Y0020982D02*
X0006600Y0020982D01*
X0006600Y0022581D02*
X0007124Y0022581D01*
X0007377Y0024179D02*
X0006600Y0024179D01*
X0006600Y0025778D02*
X0007630Y0025778D01*
X0008235Y0027376D02*
X0006600Y0027376D01*
X0006600Y0028975D02*
X0009050Y0028975D01*
X0009901Y0030573D02*
X0006600Y0030573D01*
X0006600Y0032172D02*
X0011499Y0032172D01*
X0013098Y0033770D02*
X0006600Y0033770D01*
X0013101Y0033773D02*
X0013101Y0033773D01*
X0013101Y0033773D01*
X0017477Y0049900D02*
X0014900Y0052477D01*
X0014900Y0054300D01*
X0019300Y0054300D01*
X0019300Y0054300D01*
X0019300Y0058700D01*
X0021123Y0058700D01*
X0023700Y0056123D01*
X0023700Y0054300D01*
X0019300Y0054300D01*
X0019300Y0054300D01*
X0019300Y0054300D01*
X0019300Y0058700D01*
X0017477Y0058700D01*
X0014900Y0056123D01*
X0014900Y0054300D01*
X0019300Y0054300D01*
X0023700Y0054300D01*
X0023700Y0052477D01*
X0021123Y0049900D01*
X0019300Y0049900D01*
X0019300Y0054300D01*
X0019300Y0054300D01*
X0019300Y0049900D01*
X0017477Y0049900D01*
X0016024Y0051354D02*
X0006600Y0051354D01*
X0006600Y0052952D02*
X0014900Y0052952D01*
X0014900Y0054551D02*
X0006600Y0054551D01*
X0006600Y0056149D02*
X0014927Y0056149D01*
X0016525Y0057748D02*
X0006600Y0057748D01*
X0006600Y0059346D02*
X0040100Y0059346D01*
X0040100Y0060235D02*
X0040739Y0061779D01*
X0041921Y0062961D01*
X0043465Y0063600D01*
X0045135Y0063600D01*
X0046679Y0062961D01*
X0047861Y0061779D01*
X0048500Y0060235D01*
X0048500Y0053365D01*
X0047861Y0051821D01*
X0046679Y0050639D01*
X0045135Y0050000D01*
X0043465Y0050000D01*
X0041921Y0050639D01*
X0040739Y0051821D01*
X0040100Y0053365D01*
X0040100Y0060235D01*
X0040394Y0060945D02*
X0006600Y0060945D01*
X0006600Y0062543D02*
X0041504Y0062543D01*
X0040100Y0057748D02*
X0022075Y0057748D01*
X0023673Y0056149D02*
X0040100Y0056149D01*
X0040100Y0054551D02*
X0023700Y0054551D01*
X0023700Y0052952D02*
X0040271Y0052952D01*
X0041206Y0051354D02*
X0022576Y0051354D01*
X0019300Y0051354D02*
X0019300Y0051354D01*
X0019300Y0052952D02*
X0019300Y0052952D01*
X0019300Y0054551D02*
X0019300Y0054551D01*
X0019300Y0056149D02*
X0019300Y0056149D01*
X0019300Y0057748D02*
X0019300Y0057748D01*
X0030499Y0033773D02*
X0030499Y0033773D01*
X0035365Y0027376D02*
X0067947Y0027376D01*
X0067273Y0025778D02*
X0035970Y0025778D01*
X0036223Y0024179D02*
X0067231Y0024179D01*
X0067231Y0022581D02*
X0036476Y0022581D01*
X0036470Y0020982D02*
X0067231Y0020982D01*
X0067231Y0019384D02*
X0036217Y0019384D01*
X0035964Y0017785D02*
X0067288Y0017785D01*
X0067984Y0016187D02*
X0035346Y0016187D01*
X0035876Y0017227D02*
X0035876Y0017227D01*
X0051921Y0050639D02*
X0053465Y0050000D01*
X0055135Y0050000D01*
X0056679Y0050639D01*
X0057861Y0051821D01*
X0058500Y0053365D01*
X0058500Y0060235D01*
X0057861Y0061779D01*
X0056679Y0062961D01*
X0055135Y0063600D01*
X0053465Y0063600D01*
X0051921Y0062961D01*
X0050739Y0061779D01*
X0050100Y0060235D01*
X0050100Y0053365D01*
X0050739Y0051821D01*
X0051921Y0050639D01*
X0051206Y0051354D02*
X0047394Y0051354D01*
X0048329Y0052952D02*
X0050271Y0052952D01*
X0050100Y0054551D02*
X0048500Y0054551D01*
X0048500Y0056149D02*
X0050100Y0056149D01*
X0050100Y0057748D02*
X0048500Y0057748D01*
X0048500Y0059346D02*
X0050100Y0059346D01*
X0050394Y0060945D02*
X0048206Y0060945D01*
X0047096Y0062543D02*
X0051504Y0062543D01*
X0057096Y0062543D02*
X0061504Y0062543D01*
X0061921Y0062961D02*
X0060739Y0061779D01*
X0060100Y0060235D01*
X0060100Y0053365D01*
X0060739Y0051821D01*
X0061921Y0050639D01*
X0063465Y0050000D01*
X0065135Y0050000D01*
X0066679Y0050639D01*
X0067861Y0051821D01*
X0068500Y0053365D01*
X0068500Y0060235D01*
X0067861Y0061779D01*
X0066679Y0062961D01*
X0065135Y0063600D01*
X0063465Y0063600D01*
X0061921Y0062961D01*
X0060394Y0060945D02*
X0058206Y0060945D01*
X0058500Y0059346D02*
X0060100Y0059346D01*
X0060100Y0057748D02*
X0058500Y0057748D01*
X0058500Y0056149D02*
X0060100Y0056149D01*
X0060100Y0054551D02*
X0058500Y0054551D01*
X0058329Y0052952D02*
X0060271Y0052952D01*
X0061206Y0051354D02*
X0057394Y0051354D01*
X0067394Y0051354D02*
X0071206Y0051354D01*
X0070271Y0052952D02*
X0068329Y0052952D01*
X0068500Y0054551D02*
X0070100Y0054551D01*
X0070100Y0056149D02*
X0068500Y0056149D01*
X0068500Y0057748D02*
X0070100Y0057748D01*
X0070100Y0059346D02*
X0068500Y0059346D01*
X0068206Y0060945D02*
X0070394Y0060945D01*
X0071504Y0062543D02*
X0067096Y0062543D01*
X0081500Y0080127D02*
X0083158Y0080127D01*
X0070835Y0081726D02*
X0067765Y0081726D01*
X0068483Y0083324D02*
X0070117Y0083324D01*
X0070100Y0084923D02*
X0068500Y0084923D01*
X0068500Y0086521D02*
X0070100Y0086521D01*
X0070100Y0088120D02*
X0068500Y0088120D01*
X0068500Y0089718D02*
X0070100Y0089718D01*
X0070548Y0091317D02*
X0068052Y0091317D01*
X0068526Y0092915D02*
X0071875Y0092915D01*
X0070125Y0094514D02*
X0077100Y0094514D01*
X0077100Y0092915D02*
X0076725Y0092915D01*
X0076467Y0096112D02*
X0071723Y0096112D01*
X0073322Y0097711D02*
X0075350Y0097711D01*
X0075043Y0099309D02*
X0074920Y0099309D01*
X0066895Y0102506D02*
X0023316Y0102506D01*
X0023700Y0100908D02*
X0065296Y0100908D01*
X0063698Y0099309D02*
X0023700Y0099309D01*
X0022933Y0097711D02*
X0062099Y0097711D01*
X0067100Y0104105D02*
X0021718Y0104105D01*
X0017265Y0096112D02*
X0006600Y0096112D01*
X0006600Y0113696D02*
X0040100Y0113696D01*
X0040124Y0115294D02*
X0006600Y0115294D01*
X0006600Y0116893D02*
X0040853Y0116893D01*
X0043202Y0118491D02*
X0006600Y0118491D01*
X0006600Y0126484D02*
X0016176Y0126484D01*
X0015100Y0128082D02*
X0006600Y0128082D01*
X0006600Y0129681D02*
X0015100Y0129681D01*
X0015340Y0131279D02*
X0006600Y0131279D01*
X0006600Y0136075D02*
X0041485Y0136075D01*
X0041921Y0135639D02*
X0043465Y0135000D01*
X0045135Y0135000D01*
X0046679Y0135639D01*
X0047861Y0136821D01*
X0048500Y0138365D01*
X0048500Y0145235D01*
X0047861Y0146779D01*
X0046679Y0147961D01*
X0045135Y0148600D01*
X0043465Y0148600D01*
X0041921Y0147961D01*
X0040739Y0146779D01*
X0040100Y0145235D01*
X0040100Y0138365D01*
X0040739Y0136821D01*
X0041921Y0135639D01*
X0040386Y0137673D02*
X0006600Y0137673D01*
X0006600Y0139272D02*
X0040100Y0139272D01*
X0040100Y0140870D02*
X0006600Y0140870D01*
X0006600Y0142469D02*
X0040100Y0142469D01*
X0040100Y0144068D02*
X0006600Y0144068D01*
X0006600Y0145666D02*
X0016711Y0145666D01*
X0017477Y0144900D02*
X0014900Y0147477D01*
X0014900Y0149300D01*
X0019300Y0149300D01*
X0019300Y0149300D01*
X0019300Y0153700D01*
X0021123Y0153700D01*
X0023700Y0151123D01*
X0023700Y0149300D01*
X0019300Y0149300D01*
X0019300Y0149300D01*
X0019300Y0149300D01*
X0019300Y0153700D01*
X0017477Y0153700D01*
X0014900Y0151123D01*
X0014900Y0149300D01*
X0019300Y0149300D01*
X0023700Y0149300D01*
X0023700Y0147477D01*
X0021123Y0144900D01*
X0019300Y0144900D01*
X0019300Y0149300D01*
X0019300Y0149300D01*
X0019300Y0144900D01*
X0017477Y0144900D01*
X0019300Y0145666D02*
X0019300Y0145666D01*
X0019300Y0147265D02*
X0019300Y0147265D01*
X0019300Y0148863D02*
X0019300Y0148863D01*
X0019300Y0150462D02*
X0019300Y0150462D01*
X0019300Y0152060D02*
X0019300Y0152060D01*
X0019300Y0153659D02*
X0019300Y0153659D01*
X0021164Y0153659D02*
X0088047Y0153659D01*
X0087100Y0152060D02*
X0022762Y0152060D01*
X0023700Y0150462D02*
X0087100Y0150462D01*
X0087100Y0148863D02*
X0023700Y0148863D01*
X0023487Y0147265D02*
X0041225Y0147265D01*
X0040278Y0145666D02*
X0021889Y0145666D01*
X0015838Y0152060D02*
X0006600Y0152060D01*
X0006600Y0150462D02*
X0014900Y0150462D01*
X0014900Y0148863D02*
X0006600Y0148863D01*
X0006600Y0147265D02*
X0015113Y0147265D01*
X0017436Y0153659D02*
X0006600Y0153659D01*
X0006600Y0155257D02*
X0089600Y0155257D01*
X0089600Y0156856D02*
X0006600Y0156856D01*
X0006600Y0158454D02*
X0015794Y0158454D01*
X0017227Y0157724D02*
X0021800Y0157000D01*
X0026373Y0157724D01*
X0026373Y0157724D01*
X0030499Y0159827D01*
X0033773Y0163101D01*
X0035876Y0167227D01*
X0036600Y0171800D01*
X0035876Y0176373D01*
X0035876Y0176373D01*
X0033773Y0180499D01*
X0030499Y0183773D01*
X0026373Y0185876D01*
X0021800Y0186600D01*
X0017227Y0185876D01*
X0017227Y0185876D01*
X0013101Y0183773D01*
X0013101Y0183773D01*
X0009827Y0180499D01*
X0007724Y0176373D01*
X0007000Y0171800D01*
X0007000Y0171800D01*
X0007724Y0167227D01*
X0009827Y0163101D01*
X0009827Y0163101D01*
X0013101Y0159827D01*
X0017227Y0157724D01*
X0017227Y0157724D01*
X0013101Y0159827D02*
X0013101Y0159827D01*
X0012875Y0160053D02*
X0006600Y0160053D01*
X0006600Y0161651D02*
X0011276Y0161651D01*
X0009751Y0163250D02*
X0006600Y0163250D01*
X0006600Y0164848D02*
X0008936Y0164848D01*
X0008122Y0166447D02*
X0006600Y0166447D01*
X0007724Y0167227D02*
X0007724Y0167227D01*
X0007595Y0168045D02*
X0006600Y0168045D01*
X0006600Y0169644D02*
X0007342Y0169644D01*
X0007088Y0171242D02*
X0006600Y0171242D01*
X0006600Y0172841D02*
X0007165Y0172841D01*
X0007418Y0174439D02*
X0006600Y0174439D01*
X0006600Y0176038D02*
X0007671Y0176038D01*
X0007724Y0176373D02*
X0007724Y0176373D01*
X0008368Y0177636D02*
X0006600Y0177636D01*
X0006600Y0179235D02*
X0009182Y0179235D01*
X0009827Y0180499D02*
X0009827Y0180499D01*
X0010161Y0180833D02*
X0006600Y0180833D01*
X0006600Y0182432D02*
X0011759Y0182432D01*
X0013605Y0184030D02*
X0006600Y0184030D01*
X0006600Y0185629D02*
X0016742Y0185629D01*
X0021800Y0186600D02*
X0021800Y0186600D01*
X0026858Y0185629D02*
X0166742Y0185629D01*
X0163605Y0184030D02*
X0029995Y0184030D01*
X0031841Y0182432D02*
X0161759Y0182432D01*
X0160161Y0180833D02*
X0033439Y0180833D01*
X0033773Y0180499D02*
X0033773Y0180499D01*
X0034418Y0179235D02*
X0070644Y0179235D01*
X0070891Y0179337D02*
X0069212Y0178641D01*
X0067927Y0177356D01*
X0067231Y0175677D01*
X0067231Y0167923D01*
X0067927Y0166244D01*
X0069212Y0164959D01*
X0070891Y0164263D01*
X0072709Y0164263D01*
X0074388Y0164959D01*
X0075673Y0166244D01*
X0076368Y0167923D01*
X0076368Y0175677D01*
X0075673Y0177356D01*
X0074388Y0178641D01*
X0072709Y0179337D01*
X0070891Y0179337D01*
X0072956Y0179235D02*
X0080644Y0179235D01*
X0080891Y0179337D02*
X0079212Y0178641D01*
X0077927Y0177356D01*
X0077231Y0175677D01*
X0077231Y0167923D01*
X0077927Y0166244D01*
X0079212Y0164959D01*
X0080891Y0164263D01*
X0082709Y0164263D01*
X0084388Y0164959D01*
X0085673Y0166244D01*
X0086368Y0167923D01*
X0086368Y0175677D01*
X0085673Y0177356D01*
X0084388Y0178641D01*
X0082709Y0179337D01*
X0080891Y0179337D01*
X0082956Y0179235D02*
X0090644Y0179235D01*
X0088207Y0177636D02*
X0085393Y0177636D01*
X0086219Y0176038D02*
X0087381Y0176038D01*
X0087231Y0174439D02*
X0086368Y0174439D01*
X0086368Y0172841D02*
X0087231Y0172841D01*
X0087231Y0171242D02*
X0086368Y0171242D01*
X0086368Y0169644D02*
X0087231Y0169644D01*
X0087231Y0168045D02*
X0086368Y0168045D01*
X0085757Y0166447D02*
X0087843Y0166447D01*
X0089479Y0164848D02*
X0084121Y0164848D01*
X0079479Y0164848D02*
X0074121Y0164848D01*
X0075757Y0166447D02*
X0077843Y0166447D01*
X0077231Y0168045D02*
X0076368Y0168045D01*
X0076368Y0169644D02*
X0077231Y0169644D01*
X0077231Y0171242D02*
X0076368Y0171242D01*
X0076368Y0172841D02*
X0077231Y0172841D01*
X0077231Y0174439D02*
X0076368Y0174439D01*
X0076219Y0176038D02*
X0077381Y0176038D01*
X0078207Y0177636D02*
X0075393Y0177636D01*
X0068207Y0177636D02*
X0035232Y0177636D01*
X0035929Y0176038D02*
X0067381Y0176038D01*
X0067231Y0174439D02*
X0036182Y0174439D01*
X0036435Y0172841D02*
X0067231Y0172841D01*
X0067231Y0171242D02*
X0036512Y0171242D01*
X0036258Y0169644D02*
X0067231Y0169644D01*
X0067231Y0168045D02*
X0036005Y0168045D01*
X0035876Y0167227D02*
X0035876Y0167227D01*
X0035478Y0166447D02*
X0067843Y0166447D01*
X0069479Y0164848D02*
X0034664Y0164848D01*
X0033849Y0163250D02*
X0089600Y0163250D01*
X0089600Y0161651D02*
X0032324Y0161651D01*
X0033773Y0163101D02*
X0033773Y0163101D01*
X0030725Y0160053D02*
X0089600Y0160053D01*
X0089600Y0158454D02*
X0027806Y0158454D01*
X0030499Y0159827D02*
X0030499Y0159827D01*
X0021800Y0157000D02*
X0021800Y0157000D01*
X0047375Y0147265D02*
X0051225Y0147265D01*
X0050739Y0146779D02*
X0051921Y0147961D01*
X0053465Y0148600D01*
X0055135Y0148600D01*
X0056679Y0147961D01*
X0057861Y0146779D01*
X0058500Y0145235D01*
X0058500Y0138365D01*
X0057861Y0136821D01*
X0056679Y0135639D01*
X0055135Y0135000D01*
X0053465Y0135000D01*
X0051921Y0135639D01*
X0050739Y0136821D01*
X0050100Y0138365D01*
X0050100Y0145235D01*
X0050739Y0146779D01*
X0050278Y0145666D02*
X0048322Y0145666D01*
X0048500Y0144068D02*
X0050100Y0144068D01*
X0050100Y0142469D02*
X0048500Y0142469D01*
X0048500Y0140870D02*
X0050100Y0140870D01*
X0050100Y0139272D02*
X0048500Y0139272D01*
X0048214Y0137673D02*
X0050386Y0137673D01*
X0051485Y0136075D02*
X0047115Y0136075D01*
X0057115Y0136075D02*
X0061485Y0136075D01*
X0060386Y0137673D02*
X0058214Y0137673D01*
X0058500Y0139272D02*
X0060100Y0139272D01*
X0060100Y0140870D02*
X0058500Y0140870D01*
X0058500Y0142469D02*
X0060100Y0142469D01*
X0060100Y0144068D02*
X0058500Y0144068D01*
X0058322Y0145666D02*
X0060278Y0145666D01*
X0061225Y0147265D02*
X0057375Y0147265D01*
X0086500Y0120090D02*
X0098339Y0120090D01*
X0100261Y0120090D02*
X0149600Y0120090D01*
X0149600Y0121688D02*
X0142728Y0121688D01*
X0143526Y0123287D02*
X0149600Y0123287D01*
X0149600Y0124885D02*
X0143600Y0124885D01*
X0143041Y0126484D02*
X0149600Y0126484D01*
X0149971Y0128082D02*
X0141244Y0128082D01*
X0142319Y0131279D02*
X0153168Y0131279D01*
X0151570Y0129681D02*
X0099530Y0129681D01*
X0094906Y0128082D02*
X0091500Y0128082D01*
X0091500Y0126484D02*
X0095596Y0126484D01*
X0095043Y0124885D02*
X0090497Y0124885D01*
X0088898Y0123287D02*
X0095111Y0123287D01*
X0095891Y0121688D02*
X0087300Y0121688D01*
X0086500Y0118491D02*
X0093202Y0118491D01*
X0090853Y0116893D02*
X0087747Y0116893D01*
X0088476Y0115294D02*
X0090124Y0115294D01*
X0090100Y0113696D02*
X0088500Y0113696D01*
X0088500Y0112097D02*
X0090100Y0112097D01*
X0090100Y0110499D02*
X0088500Y0110499D01*
X0088500Y0108900D02*
X0090100Y0108900D01*
X0090540Y0107302D02*
X0088060Y0107302D01*
X0096725Y0092915D02*
X0101875Y0092915D01*
X0100548Y0091317D02*
X0098052Y0091317D01*
X0098500Y0089718D02*
X0100100Y0089718D01*
X0100100Y0088120D02*
X0098500Y0088120D01*
X0098500Y0086521D02*
X0100100Y0086521D01*
X0100100Y0084923D02*
X0098500Y0084923D01*
X0098483Y0083324D02*
X0100117Y0083324D01*
X0100835Y0081726D02*
X0097765Y0081726D01*
X0104300Y0062543D02*
X0104300Y0062543D01*
X0104300Y0060945D02*
X0104300Y0060945D01*
X0104300Y0059346D02*
X0104300Y0059346D01*
X0104300Y0057748D02*
X0104300Y0057748D01*
X0104300Y0056149D02*
X0104300Y0056149D01*
X0104300Y0054551D02*
X0104300Y0054551D01*
X0104300Y0052952D02*
X0104300Y0052952D01*
X0104300Y0051354D02*
X0104300Y0051354D01*
X0060835Y0081726D02*
X0057765Y0081726D01*
X0058483Y0083324D02*
X0060117Y0083324D01*
X0060100Y0084923D02*
X0058500Y0084923D01*
X0058500Y0086521D02*
X0060100Y0086521D01*
X0060100Y0088120D02*
X0058731Y0088120D01*
X0051875Y0092915D02*
X0046725Y0092915D01*
X0048052Y0091317D02*
X0050548Y0091317D01*
X0050100Y0089718D02*
X0048500Y0089718D01*
X0048500Y0088120D02*
X0050100Y0088120D01*
X0050100Y0086521D02*
X0048500Y0086521D01*
X0048500Y0084923D02*
X0050100Y0084923D01*
X0050117Y0083324D02*
X0048483Y0083324D01*
X0047765Y0081726D02*
X0050835Y0081726D01*
X0056743Y0105703D02*
X0061857Y0105703D01*
X0060540Y0107302D02*
X0058060Y0107302D01*
X0058500Y0108900D02*
X0060100Y0108900D01*
X0060100Y0110499D02*
X0058500Y0110499D01*
X0058500Y0112097D02*
X0060100Y0112097D01*
X0060100Y0113696D02*
X0058500Y0113696D01*
X0058476Y0115294D02*
X0060124Y0115294D01*
X0060853Y0116893D02*
X0057747Y0116893D01*
X0066743Y0105703D02*
X0067100Y0105703D01*
X0091500Y0129681D02*
X0093308Y0129681D01*
X0092100Y0131279D02*
X0091500Y0131279D01*
X0091500Y0132878D02*
X0092100Y0132878D01*
X0092100Y0134476D02*
X0091500Y0134476D01*
X0107115Y0136075D02*
X0130389Y0136075D01*
X0131634Y0137673D02*
X0108214Y0137673D01*
X0091500Y0150462D02*
X0185701Y0150462D01*
X0185701Y0152060D02*
X0092671Y0152060D01*
X0094000Y0153659D02*
X0185701Y0153659D01*
X0185701Y0155257D02*
X0094000Y0155257D01*
X0094000Y0156856D02*
X0185701Y0156856D01*
X0185701Y0158454D02*
X0177806Y0158454D01*
X0180499Y0159827D02*
X0180499Y0159827D01*
X0180725Y0160053D02*
X0185701Y0160053D01*
X0185701Y0161651D02*
X0182324Y0161651D01*
X0183773Y0163101D02*
X0183773Y0163101D01*
X0183849Y0163250D02*
X0185701Y0163250D01*
X0185701Y0164848D02*
X0184664Y0164848D01*
X0185478Y0166447D02*
X0185701Y0166447D01*
X0185701Y0177636D02*
X0185232Y0177636D01*
X0185701Y0179235D02*
X0184418Y0179235D01*
X0183773Y0180499D02*
X0183773Y0180499D01*
X0183439Y0180833D02*
X0185701Y0180833D01*
X0185701Y0182432D02*
X0181841Y0182432D01*
X0180499Y0183773D02*
X0180499Y0183773D01*
X0179995Y0184030D02*
X0185701Y0184030D01*
X0185701Y0185629D02*
X0176858Y0185629D01*
X0176373Y0185876D02*
X0176373Y0185876D01*
X0171800Y0186600D02*
X0171800Y0186600D01*
X0159827Y0180499D02*
X0159827Y0180499D01*
X0159182Y0179235D02*
X0123485Y0179235D01*
X0123630Y0179188D02*
X0122917Y0179420D01*
X0122175Y0179537D01*
X0121984Y0179537D01*
X0121984Y0171984D01*
X0126568Y0171984D01*
X0126568Y0175144D01*
X0126451Y0175885D01*
X0126219Y0176599D01*
X0125878Y0177268D01*
X0125437Y0177875D01*
X0124906Y0178406D01*
X0124299Y0178847D01*
X0123630Y0179188D01*
X0121984Y0179235D02*
X0121616Y0179235D01*
X0121616Y0179537D02*
X0121425Y0179537D01*
X0120683Y0179420D01*
X0119970Y0179188D01*
X0119301Y0178847D01*
X0118694Y0178406D01*
X0118163Y0177875D01*
X0117722Y0177268D01*
X0117381Y0176599D01*
X0117149Y0175885D01*
X0117031Y0175144D01*
X0117031Y0171984D01*
X0121616Y0171984D01*
X0121616Y0171616D01*
X0121984Y0171616D01*
X0121984Y0164063D01*
X0122175Y0164063D01*
X0122917Y0164180D01*
X0123630Y0164412D01*
X0124299Y0164753D01*
X0124906Y0165194D01*
X0125437Y0165725D01*
X0125878Y0166332D01*
X0126219Y0167001D01*
X0126451Y0167715D01*
X0126568Y0168456D01*
X0126568Y0171616D01*
X0121984Y0171616D01*
X0121984Y0171984D01*
X0121616Y0171984D01*
X0121616Y0179537D01*
X0120115Y0179235D02*
X0112956Y0179235D01*
X0112709Y0179337D02*
X0110891Y0179337D01*
X0109212Y0178641D01*
X0107927Y0177356D01*
X0107231Y0175677D01*
X0107231Y0167923D01*
X0107927Y0166244D01*
X0109212Y0164959D01*
X0110891Y0164263D01*
X0112709Y0164263D01*
X0114388Y0164959D01*
X0115673Y0166244D01*
X0116368Y0167923D01*
X0116368Y0175677D01*
X0115673Y0177356D01*
X0114388Y0178641D01*
X0112709Y0179337D01*
X0110644Y0179235D02*
X0102956Y0179235D01*
X0102709Y0179337D02*
X0100891Y0179337D01*
X0099212Y0178641D01*
X0097927Y0177356D01*
X0097231Y0175677D01*
X0097231Y0167923D01*
X0097927Y0166244D01*
X0099212Y0164959D01*
X0100891Y0164263D01*
X0102709Y0164263D01*
X0104388Y0164959D01*
X0105673Y0166244D01*
X0106368Y0167923D01*
X0106368Y0175677D01*
X0105673Y0177356D01*
X0104388Y0178641D01*
X0102709Y0179337D01*
X0105393Y0177636D02*
X0108207Y0177636D01*
X0107381Y0176038D02*
X0106219Y0176038D01*
X0106368Y0174439D02*
X0107231Y0174439D01*
X0107231Y0172841D02*
X0106368Y0172841D01*
X0106368Y0171242D02*
X0107231Y0171242D01*
X0107231Y0169644D02*
X0106368Y0169644D01*
X0106368Y0168045D02*
X0107231Y0168045D01*
X0107843Y0166447D02*
X0105757Y0166447D01*
X0104121Y0164848D02*
X0109479Y0164848D01*
X0114121Y0164848D02*
X0119170Y0164848D01*
X0119301Y0164753D02*
X0119970Y0164412D01*
X0120683Y0164180D01*
X0121425Y0164063D01*
X0121616Y0164063D01*
X0121616Y0171616D01*
X0117031Y0171616D01*
X0117031Y0168456D01*
X0117149Y0167715D01*
X0117381Y0167001D01*
X0117722Y0166332D01*
X0118163Y0165725D01*
X0118694Y0165194D01*
X0119301Y0164753D01*
X0121616Y0164848D02*
X0121984Y0164848D01*
X0121984Y0166447D02*
X0121616Y0166447D01*
X0121616Y0168045D02*
X0121984Y0168045D01*
X0121984Y0169644D02*
X0121616Y0169644D01*
X0121616Y0171242D02*
X0121984Y0171242D01*
X0121984Y0172841D02*
X0121616Y0172841D01*
X0121616Y0174439D02*
X0121984Y0174439D01*
X0121984Y0176038D02*
X0121616Y0176038D01*
X0121616Y0177636D02*
X0121984Y0177636D01*
X0125611Y0177636D02*
X0158368Y0177636D01*
X0157724Y0176373D02*
X0157724Y0176373D01*
X0157671Y0176038D02*
X0126401Y0176038D01*
X0126568Y0174439D02*
X0157418Y0174439D01*
X0157165Y0172841D02*
X0126568Y0172841D01*
X0126568Y0171242D02*
X0157088Y0171242D01*
X0157342Y0169644D02*
X0126568Y0169644D01*
X0126503Y0168045D02*
X0157595Y0168045D01*
X0157724Y0167227D02*
X0157724Y0167227D01*
X0158122Y0166447D02*
X0125937Y0166447D01*
X0124430Y0164848D02*
X0158936Y0164848D01*
X0159751Y0163250D02*
X0094000Y0163250D01*
X0094000Y0161651D02*
X0161276Y0161651D01*
X0162875Y0160053D02*
X0094000Y0160053D01*
X0094000Y0158454D02*
X0165794Y0158454D01*
X0167227Y0157724D02*
X0167227Y0157724D01*
X0171800Y0157000D02*
X0171800Y0157000D01*
X0163101Y0159827D02*
X0163101Y0159827D01*
X0161634Y0137673D02*
X0141966Y0137673D01*
X0143211Y0136075D02*
X0157964Y0136075D01*
X0156365Y0134476D02*
X0143600Y0134476D01*
X0143357Y0132878D02*
X0154767Y0132878D01*
X0157792Y0129681D02*
X0185701Y0129681D01*
X0185701Y0118491D02*
X0170256Y0118491D01*
X0172747Y0116893D02*
X0185701Y0116893D01*
X0185701Y0115294D02*
X0173534Y0115294D01*
X0173600Y0113696D02*
X0185701Y0113696D01*
X0185701Y0112097D02*
X0173034Y0112097D01*
X0171198Y0110499D02*
X0185701Y0110499D01*
X0185701Y0096112D02*
X0173195Y0096112D01*
X0173600Y0094514D02*
X0185701Y0094514D01*
X0185701Y0092915D02*
X0173372Y0092915D01*
X0172356Y0091317D02*
X0185701Y0091317D01*
X0185701Y0076930D02*
X0172710Y0076930D01*
X0173519Y0075332D02*
X0185701Y0075332D01*
X0185701Y0073733D02*
X0173600Y0073733D01*
X0173049Y0072134D02*
X0185701Y0072134D01*
X0185701Y0070536D02*
X0171288Y0070536D01*
X0160835Y0081726D02*
X0159000Y0081726D01*
X0159000Y0083324D02*
X0160058Y0083324D01*
X0160000Y0084923D02*
X0159000Y0084923D01*
X0159000Y0086521D02*
X0160574Y0086521D01*
X0159000Y0088120D02*
X0162446Y0088120D01*
X0154600Y0088120D02*
X0154000Y0088120D01*
X0154000Y0089718D02*
X0154600Y0089718D01*
X0154600Y0091317D02*
X0154000Y0091317D01*
X0154000Y0092915D02*
X0154600Y0092915D01*
X0154600Y0094514D02*
X0154000Y0094514D01*
X0154000Y0096112D02*
X0154600Y0096112D01*
X0154600Y0097711D02*
X0154000Y0097711D01*
X0154000Y0099309D02*
X0154600Y0099309D01*
X0154600Y0100908D02*
X0154000Y0100908D01*
X0154000Y0102506D02*
X0154600Y0102506D01*
X0154600Y0104105D02*
X0154000Y0104105D01*
X0154000Y0105703D02*
X0154600Y0105703D01*
X0154600Y0107302D02*
X0154000Y0107302D01*
X0154000Y0108900D02*
X0154600Y0108900D01*
X0154600Y0110499D02*
X0154000Y0110499D01*
X0154000Y0112097D02*
X0154600Y0112097D01*
X0154600Y0113696D02*
X0154000Y0113696D01*
X0154000Y0115294D02*
X0154600Y0115294D01*
X0154600Y0116893D02*
X0154000Y0116893D01*
X0154000Y0118491D02*
X0154600Y0118491D01*
X0154600Y0120090D02*
X0154000Y0120090D01*
X0154000Y0121688D02*
X0156077Y0121688D01*
X0157676Y0123287D02*
X0154000Y0123287D01*
X0154000Y0124885D02*
X0159274Y0124885D01*
X0160559Y0126484D02*
X0154595Y0126484D01*
X0156194Y0128082D02*
X0162356Y0128082D01*
X0161281Y0131279D02*
X0159391Y0131279D01*
X0149600Y0118491D02*
X0140256Y0118491D01*
X0142747Y0116893D02*
X0149600Y0116893D01*
X0149600Y0115294D02*
X0143534Y0115294D01*
X0143600Y0113696D02*
X0149600Y0113696D01*
X0149600Y0112097D02*
X0143034Y0112097D01*
X0141198Y0110499D02*
X0149600Y0110499D01*
X0159000Y0105703D02*
X0160235Y0105703D01*
X0160000Y0104105D02*
X0159000Y0104105D01*
X0159000Y0102506D02*
X0160397Y0102506D01*
X0161653Y0100908D02*
X0159000Y0100908D01*
X0154600Y0086521D02*
X0154000Y0086521D01*
X0154000Y0084923D02*
X0154600Y0084923D01*
X0154600Y0083324D02*
X0154000Y0083324D01*
X0154000Y0081726D02*
X0154600Y0081726D01*
X0131262Y0107302D02*
X0108271Y0107302D01*
X0099479Y0164848D02*
X0094121Y0164848D01*
X0095757Y0166447D02*
X0097843Y0166447D01*
X0097231Y0168045D02*
X0096368Y0168045D01*
X0096368Y0169644D02*
X0097231Y0169644D01*
X0097231Y0171242D02*
X0096368Y0171242D01*
X0096368Y0172841D02*
X0097231Y0172841D01*
X0097231Y0174439D02*
X0096368Y0174439D01*
X0096219Y0176038D02*
X0097381Y0176038D01*
X0098207Y0177636D02*
X0095393Y0177636D01*
X0092956Y0179235D02*
X0100644Y0179235D01*
X0115393Y0177636D02*
X0117989Y0177636D01*
X0117199Y0176038D02*
X0116219Y0176038D01*
X0116368Y0174439D02*
X0117031Y0174439D01*
X0117031Y0172841D02*
X0116368Y0172841D01*
X0116368Y0171242D02*
X0117031Y0171242D01*
X0117031Y0169644D02*
X0116368Y0169644D01*
X0116368Y0168045D02*
X0117097Y0168045D01*
X0117663Y0166447D02*
X0115757Y0166447D01*
X0180499Y0033773D02*
X0180499Y0033773D01*
X0180502Y0033770D02*
X0185701Y0033770D01*
X0185701Y0032172D02*
X0182101Y0032172D01*
X0183699Y0030573D02*
X0185701Y0030573D01*
X0185701Y0028975D02*
X0184550Y0028975D01*
X0183773Y0030499D02*
X0183773Y0030499D01*
X0185365Y0027376D02*
X0185701Y0027376D01*
X0185701Y0016187D02*
X0185346Y0016187D01*
X0185701Y0014588D02*
X0184531Y0014588D01*
X0183773Y0013101D02*
X0183773Y0013101D01*
X0183662Y0012990D02*
X0185701Y0012990D01*
X0185701Y0011391D02*
X0182064Y0011391D01*
X0180499Y0009827D02*
X0180499Y0009827D01*
X0180432Y0009793D02*
X0185701Y0009793D01*
X0185701Y0008194D02*
X0177295Y0008194D01*
X0171800Y0007000D02*
X0171800Y0007000D01*
X0167227Y0007724D02*
X0167227Y0007724D01*
D16*
X0149300Y0039300D02*
X0156800Y0046800D01*
X0156800Y0119300D01*
X0161800Y0124300D01*
X0166800Y0124300D01*
X0166800Y0134300D02*
X0159300Y0134300D01*
X0151800Y0126800D01*
X0151800Y0049300D01*
X0146800Y0044300D01*
X0091800Y0044300D01*
X0071800Y0024300D01*
X0071800Y0021800D01*
X0081800Y0021800D02*
X0081800Y0026800D01*
X0094300Y0039300D01*
X0149300Y0039300D01*
X0136800Y0084300D02*
X0121800Y0084300D01*
X0119300Y0086800D01*
X0104300Y0086800D01*
X0114300Y0094300D02*
X0109300Y0099300D01*
X0086800Y0099300D01*
X0084300Y0096800D01*
X0084300Y0086800D01*
X0079300Y0099300D02*
X0079300Y0069300D01*
X0084300Y0064300D01*
X0084300Y0056800D01*
X0064300Y0086800D02*
X0064300Y0091800D01*
X0076800Y0104300D01*
X0136800Y0104300D01*
X0136800Y0094300D02*
X0114300Y0094300D01*
X0099300Y0124300D02*
X0099300Y0126800D01*
X0094300Y0131800D01*
X0094300Y0141800D01*
X0089300Y0151800D02*
X0089300Y0126800D01*
X0084300Y0121800D01*
X0084300Y0111800D01*
X0069300Y0101800D02*
X0069300Y0126800D01*
X0074300Y0131800D01*
X0074300Y0141800D01*
X0089300Y0151800D02*
X0091800Y0154300D01*
X0091800Y0171800D01*
X0069300Y0101800D02*
X0054300Y0086800D01*
D17*
X0079300Y0099300D03*
X0099300Y0124300D03*
D18*
X0054300Y0056800D03*
M02*
